<?xml version="1.0" encoding="utf-8"?>
<!-- Generator: Adobe Illustrator 17.0.0, SVG Export Plug-In . SVG Version: 6.00 Build 0)  -->
<!DOCTYPE svg PUBLIC "-//W3C//DTD SVG 1.1//EN" "http://www.w3.org/Graphics/SVG/1.1/DTD/svg11.dtd">
<svg version="1.1" id="Layer_1" xmlns="http://www.w3.org/2000/svg" xmlns:xlink="http://www.w3.org/1999/xlink" x="0px" y="0px"
	 width="547.589px" height="530.57px" viewBox="0 0 374.125 435.897" enable-background="new 0 0 374.125 435.897"
	 xml:space="preserve">
<path d="M346.54,194.191c-0.288-4.201,2.245-10.692,0.414-13.887c0.074,0.001,0.146-0.002,0.219-0.002
	c-2.088-0.682-4.217-1.261-6.469-1.505c-0.94-0.102-1.979-0.089-3.059,0.031c0.01,0.003,0.021,0.007,0.031,0.01
	c-1.975,0.52-0.895,6.107,0.01,10.321c1.031,4.801,2.973,9.458,4.121,14.338c1.229,5.22,2.921,20.268-2.274,23.391
	c-5.924,3.562-18.161,1.116-25.02,1.116c-3.028,0-14.004-0.581-13.456,4.887c0.43,4.289,10.395,4.757,13.451,5.066
	c6.737,0.68,13.768-1.682,20.664-1.683c3.268,0,13.359,1.674,15.449-1.632c1.351-2.137,0.281-11.572,0.003-13.726
	C349.478,212.024,347.155,203.153,346.54,194.191z"/>
<path fill="none" stroke="#010102" stroke-width="6" stroke-miterlimit="10" d="M353.937,220.746
	c0.248-1.078,0.528-2.088,0.978-3.216c1.162-2.913,2.108-7.99-1.594-9.359c-1.577-0.583-2.642-0.224-3.226-2.12
	c-0.375-1.215-0.085-2.763-0.156-4.035c-4.325-0.394-7.383,2.702-10.908,4.374c0.612,0.778,2.711,2.636,1.686,4
	c-0.728,0.969-3.206,0.99-4.181,2.057c-2.399,2.625,0.607,5.017,0.576,7.304c-2.021,2.802-5.881,5.129-14.359,5.058
	c-11.562-0.096-20.634-14.808-20.634-14.808s-18.588-4.51-46.695-8.614c0.041,0.616,0.075,1.233,0.075,1.855
	c0,24.203-31.426,43.823-70.191,43.823s-70.191-19.62-70.191-43.823c0-1.598-0.249-1.471,0.018-3.025
	c-4.825,0.706-16.276,0.2-23.012,2.165c-1.955,0.571-3.513,1.35-4.397,2.427c-0.26,0.317-0.519,0.629-0.777,0.935
	c-11.312,13.425-20.247,15.852-40.214,28.077C13.645,254.08,5.396,262.543,7.263,267.688c0,0,0.427,2.467,0.687,3.564
	c0.391,1.652,1.395,2.444,3.132,2.343c0.507-0.03,1.227-0.516,1.709-0.444c0.561,0.085,1.233,1.056,1.6,1.437
	c0.975,1.012,1.735,2.046,2.374,3.312c0.726,0.133,1.701-0.259,2.395-0.459c1.243-0.359,2.679-0.71,3.786-1.413
	c1.03-0.654,1.79-1.77,2.684-2.591c-0.593-0.957-0.944-2.138-0.853-3.251c1.355,0.111,2.043-1.261,2.057-2.435
	c0.001-0.117-0.016-0.227-0.032-0.336c3.51-2.04,8.858-5.43,14.422-10.641c8.855-8.294,22.349-14.838,23.557-13.789
	c6.59,5.722,2.35,19.111,0.59,31.522c-2.052,14.473-10.709,28.871-5.059,34.979c27.574,29.812,112.127,21.567,120.498,19.892
	c32.145-6.429,48.619-35.359,104.942-12.296c28.054,11.488,30.054,28.835,30.054,28.835s1.238-0.367,1.542-1.797
	c0.509-2.396-4.274-11.104-2.576-15.351c0.256-0.639-1.194,0.705,3.424-2.691c4.74-3.485,4.6-10.442,4.861-14.83
	c0.679-11.409-0.305-20.624-3.939-28.929c-5.976-13.659-8.708-34.889-3.586-39.157c5.122-4.268,9.75-5.923,16.247-6.168
	c7.973-0.301,9.477,1.203,17.451,0.451C360.037,236.427,355.895,227.998,353.937,220.746z"/>
<path fill="#E5E5E5" stroke="#000000" stroke-width="7" stroke-miterlimit="10" d="M261.853,104.54
	c-27.57-61.539-56.649-92.958-56.94-93.269l-0.448-0.478l-0.387,0.53C128.838,114.32,106.421,171.727,89.91,221.698l-1.246,3.769
	c-13.368,40.417-24.914,75.323-26.004,124.941c-0.451,20.557-0.875,38.137,7.741,62.948c2.441,7.029,10.884,14.136,19.382,15.23
	c1.082,0.139,8.923,0.779,10.929,0.386c16.967-3.326,39.638-29.883,56.671-35.491c19.536-6.432,47.139-8.198,66.737,0
	c21.123,8.836,33.599,25.223,45.09,29.475c12.19,4.51,21.6,2.595,21.625,2.595c2.316,0,14.67-4.114,17.383-15.107
	c2.723-11.035,3.699-25.084,3.71-25.242C316.623,256.092,287.289,161.314,261.853,104.54z"/>
<path fill="#D1D1D1" d="M142.708,239.164c0,0,47.16,13.783,71.194,10.038c24.398-3.802,39.576-9.651,51.589-18.103
	c12.098-8.512,19.782-21.316,19.782-24.197C285.273,204.022,146.8,208.631,142.708,239.164z"/>
<path d="M298.701,214.354c-10.062-45.355-23.66-82.118-36.322-109.813c-28.134-61.539-57.808-92.958-58.105-93.269l-0.457-0.478
	l-0.395,0.53c-68.655,92.098-94.209,147.742-110.895,194.214C142.29,196.342,225.866,198.147,298.701,214.354z"/>
<ellipse cx="185.982" cy="202.947" rx="70.607" ry="46.221"/>
<ellipse fill="#E53017" cx="184.638" cy="201.33" rx="66.264" ry="43.603"/>
<path fill="#8C3128" d="M225.406,224.422c-6.712,4.738-13.906,6.236-18.659,8.199c-12.808,5.29-21.75,5.693-36.046,7.068
	c-6.236,0.6-14.81-1.066-20.8-1.228c10.101,4.101,21.997,6.472,34.737,6.472c36.596,0,66.264-19.522,66.264-43.603
	c0-6.391-2.107-12.455-5.861-17.924c-0.982,6.466,1.8,16.747-2.814,24.478C238.325,214.423,232.615,219.334,225.406,224.422z"/>
<ellipse transform="matrix(0.9791 -0.2035 0.2035 0.9791 -41.0332 49.6425)" opacity="0.6" fill="#F9F7F7" cx="220.825" cy="224.308" rx="13.824" ry="8.482"/>
<ellipse opacity="0.6" fill="#F9F7F7" cx="174.965" cy="178.027" rx="32.288" ry="18.064"/>
<ellipse opacity="0.5" fill="#F9F7F7" cx="168.347" cy="170.637" rx="13.001" ry="7.806"/>
<path d="M94.509,197.919c0,0-5.707,15.361-11.77,17.861c-6.063,2.501-7.133,6.073-8.916,8.931c-0.543,0.871-0.988,2.306-1.322,3.951
	c-0.763,3.753-0.957,8.6-0.461,10.338c0.713,2.501,3.21,12.503,4.28,13.932c1.07,1.429,1.07,1.429,1.07,1.429"/>
<path fill="none" d="M29.481,312.902c0.591-3.903,7.263-6.742,10.489-7.783c2.097-0.677,7.133-1.231,8.274-2.931
	c0.751,3.802,6.958,9.062,9.628,11.941c2.263,2.441,4.502,4.345,6.5,6.989c-0.082-0.187-0.295-0.551-0.347-0.739
	c0.421,7.629-1.61,15.894-2.144,23.38c-0.239,3.357,0,6.815,0,10.183c0,4.076,1.196,8.514,0.886,12.289
	c-8.624,1.778-15.149,6.513-24.305,3.157c-6.518-2.39-12.484-5.026-18.575-8.364c-0.237,0.001-0.234,0.018,0.011,0.053
	c1.069-2.735-11.458-15.716-1.239-15.713c3.662,0.001,7.191,3.513,10.813,3.966c5.63,0.704,4.603-2.446,6.156-7.18
	c1.346-4.101,2.202-6.276,0.1-10.424c-1.196-2.36-1.922-3.787-1.927-6.481c-0.005-2.425,1.897-4.836,1.789-6.865
	c-0.129-2.42-3.799-5.593-6.109-6.095"/>
<path d="M83.691,221.408c0-0.154,0.007-0.305,0.009-0.459c-17.739,10.811-42.997,25.934-50.918,29.309
	c-12.633,5.383-10.265,3.66-17.979,9.304c-7.235,5.294-6.024,4.888-6.024,9.292s19.443,17.044,23.521,31.911
	c1.152,4.202,1.834,6.876,2.208,8.525c-4.369,2.334-7.83,4.848-7.605,6.968l-0.022,0.016c2.074,1.568,7.087,4.242,9.538,4.756
	c0.099,4.549,2.488,7.77,2.722,12.312c0.126,2.441,0.024,4.993-0.335,7.358c-0.384,2.528-1.89,4.584-2.071,6.975
	c-6.809,0.234-19.48-1.099-15.3,9.722c1.271,3.291,8.432,7.67,12.01,8.369c8.997,1.757,19.48-0.461,28.358-1.213
	c-0.012-3.93,0.221-7.234,0.789-11.173c0.544-3.775,0-7.227,0-11.173c0-8.312,1.436-15.867,2.005-24.209
	c0.16-0.06,0.319-0.065,0.479-0.014c-5.73-2.757-11.503-17.177-14.596-15.783c-0.794,0.358-2.241,0.937-4.033,1.669l-4.476-6.935
	l-8.354-13.104l-7.492-7.851c0,0-4.775-5.279-3.549-8.604c1.226-3.325,8.792-8.107,10.325-8.819
	c1.533-0.713,12.976-7.887,16.348-9.787c3.372-1.9,28.108-19.628,30.867-22.478c0.209-0.216,3.734,0.823,4.066,0.552
	C83.864,225.099,83.691,223.28,83.691,221.408z"/>
<path d="M309.061,268.772c0,0-1.88-16.278,2.39-21.256c4.27-4.978,3.604-8.647,3.897-12.003c0.089-1.023-0.165-2.503-0.613-4.121
	c-1.022-3.691-3.047-8.098-4.277-9.423c-1.77-1.905-8.531-9.688-10.132-10.476c-1.602-0.788-1.602-0.788-1.602-0.788"/>
<path fill="none" stroke="#000000" stroke-miterlimit="10" d="M256.17,203.583c0,25.844-31.504,45.031-70.425,45.031
	s-70.523-19.187-70.523-45.031s31.552-46.795,70.474-46.795S256.17,177.739,256.17,203.583z"/>
<path fill="#121251" d="M353.937,221.746c0.248-1.078,0.528-2.088,0.978-3.216c1.162-2.913,2.108-7.99-1.594-9.359
	c-1.577-0.583-2.642-0.224-3.226-2.12c-0.375-1.215-0.085-2.763-0.156-4.035c-4.325-0.394-7.383,2.702-10.908,4.374
	c0.612,0.778,2.711,2.636,1.686,4c-0.728,0.969-3.206,0.99-4.181,2.057c-2.399,2.625,0.607,5.017,0.576,7.304
	c-2.021,2.802-5.881,5.129-14.359,5.058c-11.562-0.096-20.634-14.808-20.634-14.808s-18.588-4.51-46.695-8.614
	c0.041,0.616,0.075,1.233,0.075,1.855c0,24.203-31.426,43.823-70.191,43.823s-70.191-19.62-70.191-43.823
	c0-1.598-0.249-1.471,0.018-3.025c-4.825,0.706-16.276,0.2-23.012,2.165c-1.955,0.571-3.513,1.35-4.397,2.427
	c-0.26,0.317-0.519,0.629-0.777,0.935c-11.312,13.425-20.247,15.852-40.214,28.077C13.645,255.08,5.396,263.543,7.263,268.688
	l-0.046,0.046c0.017,0.001,0.036,0.003,0.067,0.019c0.054,1.132,0.406,2.402,0.666,3.499c0.391,1.652,1.395,2.444,3.132,2.343
	c0.507-0.03,1.227-0.516,1.709-0.444c0.561,0.085,1.233,1.056,1.6,1.437c0.975,1.012,1.735,2.046,2.374,3.312
	c0.726,0.133,1.701-0.259,2.395-0.459c1.243-0.359,2.679-0.71,3.786-1.413c1.03-0.654,1.79-1.77,2.684-2.591
	c-0.593-0.957-0.944-2.138-0.853-3.251c1.355,0.111,2.043-1.261,2.057-2.435c0.001-0.117-0.016-0.227-0.032-0.336
	c3.51-2.04,8.858-5.43,14.422-10.641c8.855-8.294,22.349-14.838,23.557-13.789c6.59,5.722,2.35,19.111,0.59,31.522
	c-2.052,14.473-10.709,28.871-5.059,34.979c27.574,29.812,112.127,21.567,120.498,19.892c23.93-4.786,39.175-22.042,68.64-21.034
	c10.116,0.346,21.907,2.844,36.302,8.739c28.054,11.488,30.054,28.835,30.054,28.835s2.138-4.269,2.442-5.699
	c0.509-2.396-4.818-9.478-3.119-13.724c0.256-0.639,5.869-2.332,6.842-7.195c2.07-10.35,3.03-19.728-2.173-37.892
	c-4.105-14.332-9.387-33.975-4.265-38.244c5.122-4.268,9.75-5.923,16.247-6.168c7.973-0.301,9.477,1.203,17.451,0.451
	C360.037,237.427,355.895,228.998,353.937,221.746z"/>
<g>
	
		<rect x="106.8" y="216.574" transform="matrix(0.2129 -0.9771 0.9771 0.2129 -127.4406 277.94)" fill="#FFFFFF" width="4" height="3"/>
	
		<rect x="93.715" y="260.504" transform="matrix(0.9771 0.2129 -0.2129 0.9771 58.0942 -14.3612)" fill="#FFFFFF" width="4" height="4"/>
	<polygon fill="#FFFFFF" points="122.095,265.975 118.369,265.243 117.587,269.04 121.496,269.598 	"/>
	<path fill="#FFFFFF" d="M127.611,269.864l-1.778,10.745l-6.144-1.098l0.639-2.931l-3.908-0.852l1.491-6.839l-3.908-0.852
		l-1.491,6.839l-13.679-2.981l0.85-3.902l0.417-2.433l-3.686-1.356l-0.64,2.937l-0.85,3.902l-2.931-0.639l-0.639,2.931l-6.839-1.491
		l2.756-10.574l-4.655-1.552l-6.295,21.464l5.055,1.723l-1.149,3.906l4.821,1.83l-2.868,6.671l4.628,2.268l3.068-7.509l22.402,5.012
		l-1.998,8.996l3.89,0.844l2.013-8.805l6.893,1.264l0.46-3.446l4.595,0.804l3.897-24.278L127.611,269.864z M115.78,278.659
		l-0.852,3.908l-3.908-0.852l0.852-3.908L115.78,278.659z M98.193,274.826l-0.852,3.908l-3.908-0.852l0.852-3.908L98.193,274.826z"
		/>
	<polygon fill="#FFFFFF" points="76.665,297.184 80.456,298.678 82.071,295.173 78.158,293.279 	"/>
	<polygon fill="#FFFFFF" points="117.217,309.442 117.906,305.996 114.87,305.55 114.231,308.481 	"/>
</g>
<g>
	<polygon fill="#FFFFFF" points="163.896,268.952 160.074,268.431 160.313,272.609 164.239,272.937 	"/>
	<polygon fill="#FFFFFF" points="189.3,267.622 185.525,268.026 185.902,271.884 189.8,271.26 	"/>
	<path fill="#FFFFFF" d="M195.76,269.744l1.442,10.748l-6.193,0.771l-0.258-2.989l-3.985,0.344l-0.601-6.974l-3.985,0.344
		l0.601,6.974l-13.948,1.202l-0.343-3.979l-0.419-3.456l-3.939-0.119l0.372,3.919l0.343,3.979l-2.989,0.258l0.258,2.989
		l-6.974,0.601l-0.319-12.104l-4.535-0.239l0.477,23.631l4.653,0.206l0.059,4.071l5.147,0.454l-0.55,8.136h5.132l0.452-8.2
		l22.881-1.912l0.894,8.344l3.939-1.074l-0.796-7.498l6.958-0.838l-0.672-4.316l4.655-1.074l-3.103-22.677L195.76,269.744z
		 M187.024,281.607l0.344,3.985l-3.985,0.344l-0.344-3.985L187.024,281.607z M169.09,283.153l0.344,3.985l-3.985,0.344l-0.344-3.985
		L169.09,283.153z"/>
	<polygon fill="#FFFFFF" points="155.147,312.647 159.21,312.834 160.074,308.511 155.419,308.511 	"/>
	<polygon fill="#FFFFFF" points="198.386,308.295 197.312,304.595 194.115,305.562 194.805,308.891 	"/>
</g>
<g>
	<path fill="#FFFFFF" d="M147.641,299.029"/>
	<path fill="#FFFFFF" d="M143.641,298.983"/>
	<path fill="#FFFFFF" d="M143.675,295.984"/>
</g>
<path fill="#050101" d="M254.17,201.541c0,0-9.683,31.529-34.274,40.445c-21.059,7.636,5.716-1.6,19.413-8.414
	c2.838-1.412,4.73-2.911,5.903-3.943c9.094-8.003,18.748-26.187,18.748-26.187"/>
<path fill="none" d="M324.345,289.537c0,0-2.473,20.318-3.883,33.919c-0.588,5.677-0.991,10.184-0.952,11.556
	c0.135,4.656-0.91,13.795-0.126,12.228"/>
<g>
	<polygon fill="#8C2525" points="128.419,218.836 128.416,218.835 128.419,218.837 	"/>
	<path fill="#8C2525" d="M119.922,220.118c-1.69-3.16-3.393-5.415-4.244-10.504c-0.497-2.974-0.108-4.983-0.666-8.34
		c-2.383,0.505-9.564,0.032-10.353-0.016c-1.492,0.088-10.16-0.642-15.712,3.265c-3.899,2.744-6.203,7.418-8.087,8.736
		c-7.862,5.503-17.961,11.512-20.784,13.236c-1.734,1.059-3.225,2.319-4.932,3.386c0.136,0.067,0.019-0.084,0.188-0.022l0.161,0.1
		c-0.01,0.054-0.015,0.084-0.015,0.084l0.103-0.03l1.525,0.574c0.092-0.049,2.727,0.123,2.816,0.072l0.144,3.899l4.476-0.11
		l-0.433-3.937h3.032l0.858,3.335l3.963-0.319l-0.528-2.394c0.857-0.083,1.849-0.174,2.965-0.282l0.535,2.439l3.963-0.337
		l-0.542-2.47l3.963-0.338l0.542,2.471l2.972-0.254l-0.542-2.471l3.963-0.338l0.543,2.471l2.972-0.254l-0.542-2.471l3.963-0.338
		l0.542,2.471l3.963-0.338l-0.542-2.471l2.972-0.254l0.542,2.471l3.963-0.338l-0.542-2.471l3.963-0.338l0.542,2.471l2.972-0.254
		l-0.542-2.471l3.963-0.338l0.543,2.471l2.972-0.254l-0.542-2.471l3.963-0.338l0.542,2.471l1.855,0.113
		c-0.07-0.078-0.327-0.446-0.394-0.527C124.142,225.212,121.972,223.951,119.922,220.118z"/>
</g>
<path fill="none" d="M52.209,232.043c1.513-1.81,4.124-3.087,6.18-4.289c1.847-1.08,3.585-2.402,5.439-3.599
	c4.739-3.06,10.242-5.578,14.583-9.153c2.057-1.695,4.289-3.169,6.475-4.674c3.028-2.086,4.704-5.117,7.361-7.488
	c0.692-0.617,2.812-1.432,2.835-2.531c0.072-3.556-20.777,6.403-21.483,6.785c-10.179,5.509-21.685,11.607-29.564,20.34
	c-1.752,1.942-4.828,5.08-3.068,8.045c1.076,1.813,3.982,1.868,5.824,1.071c2.118-0.917,3.301-3.258,5.256-4.343"/>
<path fill="#8C2525" d="M325.382,225.743c-0.22-0.038-2.257,0.195-4.408-0.088c-1.986-0.262-4.088-1.035-4.525-1.205
	c-0.993-0.385-3.219-1.635-5.848-3.791c-3.129-2.567-8.537-9.942-8.537-9.942l-20.946-3.966l-17.136-3.177
	c0,0.044-3.64,2.106-3.648,2.149c-1.905,9.708-6.514,13.444-11.12,19.89l0.189,0.266l-0.177,1.908l2.996,0.097l0.207-2.491
	l3.995,0.129l-0.207,2.491l3.995,0.129l0.207-2.491l2.019,0.065c0.325,0.016,0.65,0.032,0.975,0.048l-0.206,2.474l3.995,0.129
	l0.198-2.382c1.294,0.077,2.587,0.162,3.879,0.252l-0.083,2.26l2.996,0.097l-0.019-2.015l3.928,0.216l0.085,1.928l2.803,0.387
	l0.419-2.015c1.295,0.132,2.59,0.271,3.884,0.421l-0.605,1.872l3.466,0.432l0.134-1.936c1.11,0.142,2.219,0.294,3.327,0.451
	l-0.341,1.845l3.928,0.504l0.079-1.826c1.25,0.179,2.551,0.363,3.879,0.553l-0.146,1.777l4.159,0.504l0.067-1.677
	c0.923,0.143,1.846,0.291,2.765,0.447l-0.175,1.663c0,0,3.895,0.929,3.928,0.936c-0.038-0.009,0.173-1.682,0.185-1.861
	c0.018-0.004,0.04-0.009,0.058-0.013c-0.002,0.009-0.009,0.015-0.01,0.025l0.159-0.027c0.034-0.009,0.072-0.038,0.108-0.054
	c0.731-0.158,1.62-0.386,2.274-0.662c0.331,0.45,0.656,1.291,0.77,1.859c0.065,0.325-0.054,0.543,0.293,0.648
	c0.254,0.077,0.747-0.251,0.976-0.358c0.432-0.202,1.819-0.541,1.919-1.004c0.046-0.212-0.174-0.636-0.208-0.859
	c-0.045-0.3-0.053-0.614-0.091-0.907c0.714-0.032,1.517-0.502,2.178-0.758c0.471-0.182,0.573-0.288,0.872,0.193
	c0.227,0.366,0.269,0.703,0.344,1.116c0.057,0.314-0.069,0.451,0.302,0.507c0.222,0.034,0.739-0.268,0.965-0.344
	c0.667-0.221,1.667-0.363,2.232-0.773c-0.36-0.545-0.642-1.242-0.846-1.86C323.534,228.014,324.837,226.779,325.382,225.743z"/>
<path fill="none" stroke="#FFEC00" stroke-miterlimit="10" d="M328.635,316.41"/>
<path fill="none" stroke="#FFEC00" stroke-miterlimit="10" d="M329.91,311.498"/>
<path fill="none" stroke="#FFEC00" stroke-miterlimit="10" d="M330.91,293.498"/>
<path fill="none" stroke="#FFEC00" stroke-miterlimit="10" d="M331.91,285.498"/>
<g>
	<polygon fill="#FFFFFF" points="234.691,260.624 235.246,263.957 238.419,263.511 238.419,260.511 	"/>
	<rect x="261.419" y="260.511" fill="#FFFFFF" width="3" height="3"/>
	<path fill="#FFFFFF" d="M270.419,263.217v8.148l-6.014-0.715l0.014-3.139h-3l-0.249-4.665l-4.074-0.37l0.323,5.035l-14.211,0.891
		l-0.556-4.945l-0.185,0.055h-3.889l0.247,0.316l0.679,5.316l-4.29,0.338l0.756,3.905l-6.103,0.934l-1.478-8.884l-4.072,0.372
		l2.779,21.111l3.704-0.925l0.185,2.778l5.37-1.481l1.111,6.481l4.074-0.926l-1.111-6.111l20.925-2.407l-0.185,6.296l3.518,0.185
		l-0.042-6.481l4.772,1.111v-3.703l3.788,0.556l0.926-18.702L270.419,263.217z M261.419,271.511v3l-3.33-0.27l-0.248-2.724
		L261.419,271.511z M243.764,271.735l0.556,3.333l-3.518,0.556l-0.741-3.333L243.764,271.735z"/>
	<polygon fill="#FFFFFF" points="234.135,298.215 237.653,297.289 237.283,294.141 233.419,295.511 	"/>
	<polygon fill="#FFFFFF" points="268.577,293.585 269.133,290.437 265.419,290.511 265.8,293.77 	"/>
</g>
<g>
	<polygon fill="#FFFFFF" points="295.897,268.094 295.261,270.807 297.587,271.618 298.34,268.737 	"/>
	<polygon fill="#FFFFFF" points="312.626,274.588 311.285,273.929 310.843,276.586 312.499,277.26 	"/>
	<path fill="#FFFFFF" d="M314.342,277.766l-1.06,8.374l-3.033-1.09l0.753-2.88l-1.726-0.559l1.355-5.26l-2.556-1.13l-1.388,5.551
		l-7.767-2.515l0.898-2.496l1.166-3.302l-3.074-1.179l-0.924,3.635l-0.655,2.505l-1.726-0.559l-0.753,2.881l-3.452-1.118
		l2.316-8.523l-2.65-0.826l-5.018,19.072l2.589,0.838l-0.327,1.909l2.862,0.944l-1.06,5.307l2.226,0.59l0.954-5.425l12.714,5.424
		l-1.256,4.801l1.726,0.559l1.256-4.801l2.838,1.211l1.272-3.184l2.65,1.061l1.802-19.46L314.342,277.766z M308.523,284.49
		l-0.753,2.88l-2.589-0.838l0.753-2.88L308.523,284.49z M298.167,281.137l-0.753,2.88l-2.589-0.838l0.753-2.88L298.167,281.137z"/>
	<polygon fill="#FFFFFF" points="286.356,298.231 288.476,299.293 289.006,296.934 286.992,296.108 	"/>
	<polygon fill="#FFFFFF" points="306.709,307.133 307.557,304.656 305.861,303.713 305.225,306.19 	"/>
</g>
<path fill="none" d="M329.571,226.225c0.542,0.042,0.983-0.428,1.428-0.673c0.782-0.43,0.919-0.472,1.593-0.804
	c0.308-0.152,0.897-0.564,1.215-0.474c0.247,0.07,0.799,0.791,0.963,0.978c0.263,0.299,0.512,0.645,0.74,0.971
	c0.871,1.246,1.188,2.814,1.688,4.226c0.532,1.504,0.921,3.045,1.121,4.626c0.165,1.306,0.302,2.638,0.23,3.963
	c-2.07,0.107-4.202-0.182-6.284,0.216c-0.047-2.585-1.441-4.865-1.993-7.351c-0.265-1.193-0.163-2.294-0.76-3.377
	c-0.373-0.678-0.493-1.526-1.068-2.059c0.378-0.116,0.973-0.461,1.357-0.299"/>
<path fill="#C1C1C1" d="M308.508,333.05c0,0,5.832,66.387-4.683,80.041c-6.2,8.051-10.633,8.181-14.263,9.367
	c-2.876,0.939-14.7-1.008-16.583-1.707c-2.242-0.832-4.464-0.685-14.04-8.215c-1.795-1.412-5.752-3.589-7.888-6.349
	c-6.395-8.264,13.747,18.842,40.335,13.871c8.944-1.672,8.094-12.007,11.641-33.978c1.425-8.829,0.735-40.19-5.082-48.641
	C290.186,326.165,308.508,333.05,308.508,333.05z"/>
<g>
	<path fill="#C1C1C1" d="M225.461,316.208"/>
	<path fill="#C1C1C1" d="M308.508,333.05c-5.999-4.885-7.932-7.487-13.586-10.666c-40.765-22.922-66.43-11.258-70.989-9.132
		c3.053-0.518,7.011-0.733,11.765-1.522c40.329-6.691,66.001,32.806,73.807,38.382L308.508,333.05z"/>
</g>
<path d="M360.997,101.769c-2.196,3.861-4.515,9.284-5.716,14.506c4.494,2.534,4.7,8.751,5.561,13.334
	c0.979,5.215,3.131,9.934,2.487,15.588c-0.549,4.825-3.724,7.125-4.352,11.147c-0.777,4.972,2.728,9.277,0.173,14.456
	c-2.155,4.367-6.992,7.388-12.301,9.037c0.318,0.084,0.55,0.311,0.723,0.631c-0.455-0.132-0.901-0.24-1.323-0.291
	c-3.054-0.368-6.318,0.606-9.154,2.399c0.106-0.464,0.259-0.893,0.476-1.273c-0.807,0.006-1.6-0.011-2.358-0.075
	c-6.852-0.58-13.738-3.007-15.405-9.511c-1.438-5.609,2.247-9.202,2.514-14.166c-0.747,2.262,0.183,0.407-0.618,1.896
	c-5.177-3.419-8.104-9.517-5.623-15.504c1.236-2.984,4.57-4.326,5.732-7.495c1.909-5.209-0.178-1.772-2.157-6.064
	c-2.429-5.266-2.82-12.416,3.916-15.574c2.73-1.279,13.163-1.97,15.945,0.601c-2.182-6.887-1.182-20.444,0.156-26.838
	c1.061-5.069,3.221-11.489,5.49-16.2c2.931-6.086,6.272-5.979,13.071-5.561c11.097,0.682,17.334,11.414,12.403,22.244
	C368.593,93.541,363.618,97.161,360.997,101.769z"/>
</svg>
