<?xml version="1.0" encoding="utf-8"?>
<!-- Generator: Adobe Illustrator 17.0.0, SVG Export Plug-In . SVG Version: 6.00 Build 0)  -->
<!DOCTYPE svg PUBLIC "-//W3C//DTD SVG 1.1//EN" "http://www.w3.org/Graphics/SVG/1.1/DTD/svg11.dtd">
<svg version="1.1" id="Layer_1" xmlns="http://www.w3.org/2000/svg" xmlns:xlink="http://www.w3.org/1999/xlink" x="0px" y="0px"
	 width="450px" height="487.233px" viewBox="0 0 450 487.233" enable-background="new 0 0 450 487.233" xml:space="preserve">
<path fill="#CFDEE8" stroke="#6B6F70" stroke-miterlimit="10" d="M237.435,78.237c0.576-0.097,0.929,0.174,1.116-0.506
	c-6.283-3.413-14.203-5.531-18.857-11.306c-4.452-5.525-5.604-14.787-2.966-21.41c0.688,1.422,1.235,3.342,2.747,3.895
	c0.211-5.309,0.29-9.85,2.036-14.985c1.585-4.663,5.198-7.499,7.99-11.434c-0.067,0.788,0.068,1.613-0.048,2.393
	c1.161-4.705,7.13-7.853,10.503-10.855c3.234-2.879,7.241-5.367,10.826-7.448c-0.167,1.203-0.675,2.381-0.82,3.639
	c7.645-4.424,17.368-4.812,25.815-6.573c-3.506,1.273-3.639,5.756-1.12,7.704c5.295,4.096,7.387-1.55,8.942-5.378
	c2.098,0.228,5.492,4.017,6.249,5.917c3.884-1.424,7.569-2.146,11.846-1.93c-1.702,1.89-2.25,6.016-3.353,8.468
	c4.368-0.102,10.961,3.85,14.121,6.772c-2.66,0.072-5.415,1.067-7.482,2.885c5.717,1.162,12.896,9.315,12.976,15.126
	c-1.753-0.598-3.038-2.499-5.016-3.006c2.007,1.955,2.353,4.565,3.115,7.069c0.975,3.205,3.435,4.812,4.967,7.602
	c-2.093-1.661-4.732-0.706-7.136-1.372c0.769,4.943,5.636,11.541,10.515,12.802c-2.132-0.127-4.321,0.109-6.442,0.255
	c-3.482,0.241-6.856-0.395-10.225-0.232c1.552,1.631,2.196,2.778,2.321,5.115c0.125,2.319-1.075,8.392-3.682,9.394
	c-0.846-3.577-2.24-6.247-4.294-9.272c-0.39,5.357-4.43,8.431-8.238,11.673c-0.584-1.944-0.906-4.326-1.185-6.348
	c-1.449,6.76-9.405,11.971-14.21,16.382c-0.116-3.768-0.334-8.182-1.131-11.417c-1.18,3.065-3.328,4.483-5.8,6.347
	c-3.423,2.58-4.906,2.668-9.031,0.774c-4.144-1.903-8.235-3.905-12.726-5.059c-3.662-0.942-9.653-1.055-11.47-5.109"/>
<path fill="#E5E5E5" stroke="#000000" stroke-width="7" stroke-miterlimit="10" d="M294.434,154.289
	c-27.57-61.539-56.649-92.958-56.94-93.269l-0.448-0.478l-0.387,0.53c-75.241,102.997-97.657,160.403-114.169,210.375l-1.246,3.769
	c-13.368,40.417-24.914,75.323-26.004,124.941c-0.451,20.557-0.875,38.137,7.741,62.948c2.441,7.029,10.884,14.136,19.382,15.23
	c1.082,0.139,8.923,0.779,10.929,0.386c16.967-3.326,39.638-29.883,56.671-35.491c19.536-6.432,47.139-8.198,66.737,0
	c21.123,8.836,33.599,25.223,45.09,29.475c12.19,4.51,21.6,2.595,21.625,2.595c2.316,0,14.67-4.114,17.383-15.107
	c2.723-11.035,3.699-25.084,3.71-25.242C349.204,305.841,319.87,211.063,294.434,154.289z"/>
<path fill="#D1D1D1" d="M293.951,280.949c0.173,3.521,0.143,7.12,0.06,10.651c-0.057,2.404-0.478,4.758-0.542,7.156
	c-0.076,2.854,0.925,4.809,2.088,7.399c3.325,7.405,5.752,14.279,13.693,17.864c4.806,2.17,9.779,3.351,14.929,3.989
	c4.662,0.578,11.474,11.423,13.446,6.18c0.315-0.839-2.102-20.645-2.243-22.901c-0.209-3.339-2.084-8.372-2.359-11.58
	c-0.269-3.139-0.737-5.193-0.719-8.348c0.023-3.956-2.107-14.695-2.081-18.663c0.032-4.973,0.774,4.499,1.14-0.651
	c0.293-4.119,8.39,0.808,9.271-3.227c0.583-2.672,1.981-6.458,0.167-8.923c-1.089-1.479-3.142-2.317-4.764-2.992
	c-3.172-1.32-6.445-2.468-9.636-3.756c-3.027-1.221-6.515-2.726-9.836-2.706c-1.685,0.01-4.591-0.02-6.117,0.598
	c-1.525,0.618-2.314,2.286-3.651,3.243c-1.161,0.83-2.183,1.539-3.176,2.524C297.294,263.075,293.505,271.899,293.951,280.949z"/>
<path fill="#D1D1D1" d="M175.289,288.913c0,0,47.16,13.783,71.194,10.038c24.398-3.802,39.576-9.651,51.589-18.103
	c12.098-8.512,19.782-21.316,19.782-24.197C317.854,253.771,179.381,258.379,175.289,288.913z"/>
<path d="M127.089,247.668c0,0-5.707,15.361-11.77,17.861c-6.063,2.501-7.133,6.073-8.916,8.931
	c-0.543,0.871-0.988,2.306-1.322,3.951c-0.763,3.753-0.957,8.6-0.461,10.338c0.713,2.501,3.21,12.503,4.28,13.932
	c1.07,1.429,1.07,1.429,1.07,1.429"/>
<path d="M116.272,271.157c0-0.154,0.007-0.305,0.009-0.459c-17.739,10.811-42.997,25.934-50.918,29.309
	c-12.633,5.383-10.265,3.66-17.979,9.304c-7.235,5.294-6.024,4.888-6.024,9.292s19.443,17.044,23.521,31.911
	c4.596,16.755,1.7,9.235,1.7,9.235l8.277-3.088l4.292-2.85l-4.599-7.126l-8.354-13.104l-7.492-7.851c0,0-4.775-5.279-3.549-8.604
	c1.226-3.325,8.792-8.107,10.325-8.819c1.533-0.713,12.976-7.887,16.348-9.787c3.372-1.9,28.108-19.628,30.867-22.478
	c0.209-0.216,3.734,0.823,4.066,0.552C116.445,274.847,116.272,273.029,116.272,271.157z"/>
<path fill="#D1D1D1" d="M112.758,307.546c8.921,2.992,19.621,2.248,25.854-5.731c3.112-3.983,8.145-9.28,9.052-14.301
	c0.732-4.052-0.765-8.582,0.202-12.573c1.545-6.372,10.219-6.045,13.915-11.58c6.587-9.865-4.215-12.478-11.04-13.925
	c-6.541-1.387-10.304,0.705-13.074,7.296c-2.477,5.893-4.233,11.122-7.778,16.282c-3.512,5.111-6.504,6.985-7.916,13.317
	c-1.122,5.033-6.187,10.156-5.931,15.402c-3.636,0.5-2.42,4.819-0.407,6.292"/>
<path fill="#E5D83C" d="M140.565,255.226c0.761,12.205,1.677,25.287-4.425,36.239c-7.625,13.685-25.468,18.072-38.733,14.388
	c-13.005-3.613-15.931-6.093-24.291-10.686c-7.03-3.862-12.823-7.7-19.245-5.13c-1.268,0.507-2.504-0.38-3.705,0.547
	c-7.4,5.709-1.439,11.516-5.98,17.503c-4.665,6.152-13.092,5.079-16.158,13.95c-5.894-17.134-11.414-29.096,8.181-36.739
	c7.7-3.004,12.508-7.246,17.746-8.909c11.984-3.806,10.206-0.408,12.455-1.533c6.132-3.066,15.52,3.641,27.592,4.982
	c6.453,0.717,9.689,6.684,10.205,6.038c4.141-5.19,7.522-0.421,10.908-3.168c8.076-6.549,13.68-35.784,24.457-32.654
	c0.271,2.805,2.124,4.681,2.762,6.941"/>
<g>
	<g>
		<path d="M80.285,5.128h0.086H80.285z"/>
		<path d="M46.71,6.518"/>
	</g>
</g>
<g>
	<path fill="#A0864B" d="M53.652,283.845c-0.433,0.096-0.871,0.174-1.321,0.212C52.748,284.097,53.194,284.012,53.652,283.845z"/>
	<path fill="#A0864B" d="M61.045,288.652c-0.091,0.059-0.183,0.121-0.274,0.181c0.034,0.182,0.063,0.373,0.083,0.585L61.045,288.652
		z"/>
</g>
<path fill="#A0864B" d="M127.079,262.769c0.172-1.041,3.469-3.048,4.426-4.064c1.291-1.37,2.679-4.65,4.732-4.83
	c2.692-0.236,1.984,2.173,2.672,3.814c1.302,3.107,1.966-0.158,1.986-1.864c0.022-1.871,0.581-4.832-0.859-6.262
	c-1.629-1.618-4.749-0.832-6.467,0.35c-1.922,1.322-2.52,3.391-3.697,5.338c-1.083,1.792-2.465,3.342-3.042,5.282
	c-0.246,0.826-0.492,1.546-0.159,2.236"/>
<path d="M331.282,264.103c-10.062-45.355-23.66-82.118-36.322-109.813c-28.134-61.539-57.808-92.958-58.105-93.269l-0.457-0.478
	l-0.395,0.53c-68.655,92.098-94.209,147.742-110.895,194.214C174.871,246.091,258.447,247.896,331.282,264.103z"/>
<path d="M341.642,318.521c0,0-1.88-16.278,2.39-21.256c4.27-4.978,3.604-8.647,3.897-12.003c0.089-1.023-0.165-2.503-0.613-4.121
	c-1.021-3.691-3.047-8.098-4.277-9.423c-1.77-1.905-8.531-9.688-10.132-10.476c-1.602-0.788-1.602-0.788-1.602-0.788"/>
<path fill="#E5D83C" d="M322.236,260.914c-6.888,10.104-14.358,20.883-14.705,33.415c-0.434,15.66,12.664,28.545,25.951,32.152
	c13.026,3.537,16.808,2.898,26.341,3.22c8.016,0.27,14.957-0.07,19.166,5.419c0.831,1.084,2.347,0.952,2.906,2.363
	c3.446,8.688-4.644,10.636-3.799,18.102c0.868,7.671,8.662,11.053,6.766,20.246c13.818-11.72,24.674-19.184,11.731-35.764
	c-5.086-6.515-7.053-12.618-10.706-16.723c-8.359-9.393-8.566-5.564-9.925-7.679c-3.706-5.767-15.203-4.797-26.266-9.81
	c-5.914-2.679-11.744,0.798-11.857-0.021c-0.909-6.577-6.252-4.204-7.76-8.295c-3.598-9.755,6.516-37.752-4.348-40.565
	c-1.665,2.273-4.217,2.94-5.919,4.557"/>
<path fill="#AD2D1F" stroke="#60202B" stroke-miterlimit="10" d="M153.176,181.475c0,0,37.362-115.432,93.684-138.853
	s24.536,20.075,24.536,20.075s-8.922,10.595-8.922,10.038s61.32,93.126,61.736,124.352
	C324.736,236.537,149.273,181.475,153.176,181.475z"/>
<g>
	<path fill="#A0864B" d="M382.339,329.91c0.323,0.303,0.66,0.595,1.027,0.857C382.987,330.588,382.648,330.287,382.339,329.91z"/>
	<path fill="#A0864B" d="M373.528,330.266c0.048,0.097,0.096,0.198,0.143,0.296c-0.122,0.139-0.245,0.288-0.37,0.461
		L373.528,330.266z"/>
</g>
<path fill="#8C3128" d="M324.21,197.087c-0.416-31.226-61.736-124.91-61.736-124.352c0,0.558,8.922-10.038,8.922-10.038
	s20.679-27.843-1.012-26.422c1.751,7.154,0.789,9.601-2.054,16.109c-1.638,3.751-8.42,15.717-11.857,18.285
	c-3.228,2.413-11.506,0.265-11.999,5.039c3.715,0.295,7.307-0.927,10.957-0.402c-0.52,1.689-1.079,3.699-1.539,5.535
	c6.609,2.183,7.682,0.188,11.046,7.703c2.68,5.987,6.062,11.506,9.298,17.207c2.818,4.965,28.744,53.695,30.127,58.849
	c2.767,10.315,6.739,19.853,6.09,30.947c-0.223,3.806-3.761,10.798-2.599,14.819C318.041,208.671,324.31,204.589,324.21,197.087z"/>
<path fill="#CFDEE8" stroke="#6B6F70" stroke-miterlimit="10" d="M135.084,185.597c-1.112-1.009-7.308,3.113-9.796,5.329
	c2.039-0.335,4.603,0.503,6.666,0.254c-3.389,4.351-7.476,7.73-10.374,13.093c2.842,0.124,5.787,0.068,8.586,0.18
	c-3.035,4.469-6.758,6.643-11.279,9.118c2.021,0.155,3.705,1.209,5.631,1.499c-5.771,1.837-13.46,5.974-16.504,11.79
	c1.355-0.022,3.243,0.826,4.271,0.843c-3.915,2.085-4.374,6.242-5.833,10.124c2.679-0.177,5.554-1.244,8.11-2.201
	c-3.356,4.174-4.018,10.473-4.343,15.491c2.132-1.61,4.255-4.03,6.865-5.391c-0.881,4.243-0.67,8.701-0.795,13.121
	c0.72-3.161,2.646-5.779,5.421-7.426c-0.396,3.373,0.264,7.268,3.047,9.068c0.273-1.485,1.617-3.088,1.937-4.56
	c1.536,1.643,3.653,3.868,5.285,5.555c0.333-1.628,2.091-3.725,2.498-5.555c0.57,1.004,10.774,5.642,11.281,6.885
	c6.773-37.976,42.101-53.25,75.92-50.687c20.906,1.584,36.254,16.213,50.063,30.64c5.216,5.45,9.522,13.617,15.598,16.979
	c3.1,1.715,6.313,2.154,9.392,3.929c2.319,1.337,6.81,6.804,10.184,6.358c0.203-0.057,0.407-0.114,0.61-0.171
	c-0.12-3.001,1.358-4.299,2.287-6.127c1.654,3.51,4.99,6.155,8.697,7.528c-0.2-1.817,0.526-4.219,0.196-5.979
	c2.592,3.962,7.365,7.17,12.733,8.265c-0.89-1.295-1.254-2.918-2.044-4.231c2.449,3.698,7.15,4.597,11,6.573
	c-1.754-2.112-2.67-4.584-2.791-7.298c2.298,2.241,5.128,3.891,8.179,4.349c-0.315-2.103,0.608-4.77,0.239-6.865
	c2.793,1.957,6.273,3.597,9.819,2.946c-1.762-2.545-1.859-5.983-1.251-9.131c5.291-0.36,10.131-0.144,15.29-1.66
	c-3.277-0.924-6.021-3.561-7.717-6.228c1.671-2.936,5.439-3.976,8.113-5.466c-2.301-1.888-5.005-2.995-7.936-4.098
	c1.272-2.644,3.179-5.028,4.578-7.498c-3.506-1.345-7.119-0.813-10.857-1.057c1.806-2.98,5.104-4.278,6.208-7.532
	c-2.976-1.125-6.199-1.643-9.356-1.774c2.412-5.549,8.727-8.765,14.026-11.084c-3.751-1.199-9.465-0.453-13.889-0.689
	c-0.248-4.277,0.699-9.175-1.1-13.093c-2.612,3.025-5.074,7.103-9.892,6.084c0.83-2.405,0.379-5.097,0.603-7.608
	c-4.628,1.553-9.775,2.645-14.599,4.288c0.854-6.81-5.966-13.808-10.875-6.185c-2.774-3.161-4.892-6.887-6.788-10.633
	c-2.028,1.241-3.772,1.654-4.455,4.993c-2.314-3.344-6.561-5.689-9.912-7.18c0.591,1.503,0.108,4.412,0.581,5.969
	c-2.511,0.309-5.488,0.146-7.623-0.406c-0.119-3.476,2.099-6.465,3.565-9.567c-3.24-0.663-6.81-0.61-8.957,1.967
	c0.994-7.763-11.474-6.172-14.095-0.702c0.902-2.329,0.971-5.206,1.359-7.546c-3.345,0.468-6.338,3.558-9.161,5.316
	c0.165-2.851-1.221-4.974-3.85-6.159c-0.59,1.997-2.147,3.988-2.543,5.988c-1.562-4.882-8.823-4.745-13.149-5.966
	c0.264,2.076-0.353,3.943,0.402,5.966c-3.217-2.755-8.039-3.379-12.173-3.587c0.789,1.32,0.917,3.396,1.395,4.347
	c-4.06-2.987-15.134-7.059-20.099-6.652c0.369,1.524-0.531,3.697-0.16,5.229c-7.013,1.29-8.684-1.74-13.174-5.326
	c-0.859,1.854-2.967,3.265-3.748,5.207c-1.938-4.856-7.162-3.189-10.99-5.756c-0.357,2.678-0.917,5.501-1.773,8.115
	c-6.055-5.027-10.343-4.987-17.781-6.516c0.246,1.492-0.598,3.806-0.356,5.111c-4.764-2.673-8.928-3.369-14.521-2.961
	c1.41,3.02,1.811,6.747,2.011,10.031c-3.619-1.71-6.89-0.592-10.524-1.487c-3.439-0.847-4.436-3.889-8.642-3.043
	c1.262,0.958,2.889,3.621,3.842,4.549"/>
<ellipse cx="218.562" cy="252.696" rx="70.607" ry="46.221"/>
<ellipse fill="#E53017" cx="218.219" cy="253.078" rx="66.264" ry="43.603"/>
<path fill="#8C3128" d="M258.987,276.171c-6.712,4.738-13.906,6.236-18.659,8.199c-12.808,5.29-21.75,5.693-36.046,7.068
	c-6.236,0.6-14.81-1.066-20.8-1.228c10.101,4.101,21.997,6.472,34.737,6.472c36.596,0,66.264-19.522,66.264-43.603
	c0-6.391-2.107-12.455-5.861-17.924c-0.982,6.466,1.8,16.747-2.814,24.478C271.906,266.172,266.196,271.083,258.987,276.171z"/>
<ellipse transform="matrix(0.9791 -0.2035 0.2035 0.9791 -50.4771 57.3154)" opacity="0.6" fill="#F9F7F7" cx="253.406" cy="274.057" rx="13.824" ry="8.482"/>
<ellipse opacity="0.6" fill="#F9F7F7" cx="210.546" cy="230.776" rx="32.288" ry="18.064"/>
<ellipse opacity="0.5" fill="#F9F7F7" cx="202.928" cy="223.385" rx="13.001" ry="7.806"/>
<path fill="none" d="M62.062,362.651c0.591-3.903,7.263-6.742,10.489-7.783c2.097-0.677,7.133-1.231,8.274-2.931
	c0.751,3.802,6.958,9.062,9.628,11.941c2.263,2.441,4.502,4.345,6.5,6.989c-0.082-0.187-0.295-0.551-0.347-0.739
	c0.421,7.629-1.61,15.894-2.144,23.38c-0.239,3.357,0,6.815,0,10.183c0,4.076,1.196,8.514,0.886,12.289
	c-8.624,1.778-15.149,6.513-24.305,3.157c-6.518-2.39-12.484-5.026-18.575-8.364c-0.237,0.001-0.234,0.018,0.011,0.053
	c1.069-2.735-11.458-15.716-1.239-15.713c3.662,0.001,7.191,3.513,10.813,3.966c5.63,0.704,4.603-2.446,6.156-7.18
	c1.346-4.101,2.202-6.276,0.1-10.424c-1.196-2.36-1.922-3.787-1.927-6.481c-0.005-2.425,1.897-4.836,1.789-6.866
	c-0.129-2.42-3.799-5.593-6.109-6.095"/>
<path d="M59.483,366.009c-0.532-5.022,19.604-12.265,23.577-14.056c3.094-1.394,8.866,13.026,14.596,15.783
	c-0.159-0.051-0.319-0.046-0.479,0.014c-0.569,8.343-2.006,15.897-2.006,24.209c0,3.946,0.544,7.397,0,11.173
	c-0.568,3.939-0.801,7.242-0.789,11.173c-8.879,0.752-19.361,2.97-28.358,1.213c-3.579-0.699-10.739-5.078-12.01-8.369
	c-4.18-10.821,8.49-9.488,15.3-9.722c0.181-2.391,1.687-4.447,2.071-6.975c0.359-2.365,0.461-4.917,0.335-7.358
	c-0.234-4.542-2.623-7.763-2.722-12.312c-2.45-0.514-7.464-3.188-9.538-4.756"/>
<path d="M339.683,274.488c0.057-0.143-9.365,11.536,1.377-1.181c12.48,16.607,41.485,30.827,47.596,36.894
	c9.745,9.675,8.182,7.198,13.26,15.296c4.763,7.595,3.788,6.77,2.158,10.861s-24.37,8.64-33.659,20.944
	c-10.469,13.865-4.996,7.95-4.996,7.95l-6.547-5.931l-2.933-4.236l6.909-4.918l12.609-9.083l9.865-4.521c0,0,6.39-3.137,6.481-6.68
	c0.091-3.543-5.169-10.784-6.329-12.014c-1.16-1.229-10.305-8.296-12.735-11.309c-2.43-3.013-25.448-17.385-26.956-21.053
	c-0.114-0.278-5.694,0.571-5.903,0.197C340.822,284.198,338.991,276.227,339.683,274.488z"/>
<path d="M383.36,361.009c0.532-5.022-19.604-12.265-23.577-14.056c-3.094-1.394-8.866,13.026-14.596,15.783
	c0.159-0.051,0.319-0.046,0.479,0.014c0.569,8.343,2.006,15.897,2.006,24.209c0,3.946-0.544,7.397,0,11.173
	c0.568,3.939,0.801,7.242,0.789,11.173c8.879,0.752,19.361,2.97,28.358,1.213c3.579-0.699,10.739-5.078,12.01-8.369
	c4.18-10.821-8.49-9.488-15.3-9.722c-0.181-2.391-1.687-4.447-2.071-6.975c-0.359-2.365-0.461-4.917-0.335-7.358
	c0.234-4.542,2.623-7.763,2.722-12.312c2.45-0.514,7.464-3.188,9.538-4.756"/>
<path fill="#A0864B" d="M141.388,269.612c-0.04-0.826-0.772-4.162-0.72-5.119c0.184-0.393,0.34-0.814,0.43-1.302
	c0.546-2.982-1.033-6.47-0.607-8.999l-0.254,0.636c-0.603,2.807,0.505,5.556-1.39,8.007c-1.199,1.551-2.805,2.962-4.345,4.116
	c-2.115,1.585-3.497,2.706-3.557,5.392c1.417-3.761,6.39-3.901,8.854-6.551c-0.173,1.069-0.019,2.641-0.099,3.516
	c-0.11,1.2-0.425,2.533-0.76,3.708c-0.806,2.834-1.589,5.576-4.428,6.973c-1.85,0.911-3.76,1.322-5.633,1.989
	c0.978-3.553-1.208-6.933-2.099-10.352c-0.993-3.81-0.3-9.457,1.631-12.981l-0.041-0.041c-3.655,2.1-4.4,5.249-3.981,8.729
	c-0.006-0.004-0.01-0.008-0.015-0.011c-1.55-0.997-4.232,6.988-5.428,8.433l0.728-0.857c-1.659,2.185-2.525,4.524-3.054,6.963
	c-3.733-0.259-8.174,0.818-11.466,2.38c-0.784,0.372-1.509,0.819-2.205,1.303c0.067-0.37,0.077-0.8,0.06-1.298l-0.151,1.36
	c-0.044,0.031-0.088,0.06-0.132,0.091c-1.869-6.179-8.33-8.984-14.343-8.923c-2.13,0.021-3.893,0.427-5.614,1.126
	c-1.057-6.498-9.499-5.59-14.114-4.25c-0.558,0.162-1.091,0.369-1.614,0.595c-1.113-0.274-2.018-1.136-3.122-1.49
	c-1.135-0.364-2.24-0.375-3.449-0.389c-3.865-0.044-6.427,1.338-9.776,3.118c-2.481,1.319-4.618,3.026-5.989,5.499
	c-0.702,1.267-1.241,3.034-1.92,4.577c-0.12-0.252-0.239-0.504-0.371-0.727l1.356-1.808c-4.072,1.318-11.173,1.307-7.797,6.429
	c2.86,4.339,6.714,4.663,5.535,11.181c-1.027,5.674-7.08,8.057-10.297,12.693c-2.927,4.22-3.207,8.116-3.289,13.35
	c1.265-8.955,13.23-11.326,15.757-19.713c1.129-3.746,1.449-10.685,0.576-16.177c1.773,0.796,3.813,1.341,5.101,1.792
	c4.262,1.493,7.963-1.469,11.412-3.745c-0.039-0.207-0.086-0.394-0.143-0.562c1.215,0.824,2.409,1.422,3.492,2.456
	c1.391,1.328,2.686,3.216,4.197,4.402c1.463,1.149,3.539,1.678,5.182,2.481c3.515,1.719,6.262,3.09,10.348,2.687
	c0.705-0.069,2.678-0.086,3.747-0.454c0.062,0.087,0.117,0.176,0.182,0.262c2.55,3.387,5.3,4.981,9.283,5.978
	c2.264,0.567,6.494,2.282,8.895,1.471c0.274,0.166,0.547,0.333,0.829,0.478c2.66,1.37,5.735,0.804,8.501,0.241
	c3.937-0.802,7.551-1.795,10.707-4.473c2.025-1.719,3.002-4.211,4.851-5.978c1.517-1.45,3.636-2.577,4.533-4.581
	c0.525-1.171,0.839-2.223,1.459-3.307c0.962-1.684,2.449-4.877,2.258-6.614c-0.005-0.006-0.012-0.008-0.017-0.013
	c1.429-1.829,2.159-4.304,2.405-6.509C141.739,274.479,141.5,271.945,141.388,269.612z M94.385,302.49
	c-3.267-1.318-4.807-3.902-6.691-6.691c-3.213-4.756-5.887-12.408-12.421-12.702c2.496,0.59,3.113,2.07,4.326,4.228
	c0.917,1.63,2.278,2.652,3.343,4.202c0.961,1.398,1.673,2.911,2.415,4.419c-1.016-0.1-2.193,0.416-3.191,0.371
	c-1.547-0.07-3.081-0.398-4.637-0.565c-3.352-0.359-6.325-3.301-8.823-5.332c-3.045-2.477-5.296-4.353-9.202-5.02
	c-2.531-0.432-5.762-1.633-8.182-0.186c2.001-0.033,4.407-0.383,6.116,0.512c0.656,0.344,1.192,0.822,1.723,1.311
	c-0.539-0.007-1.185,0.216-1.91,0.616c-1.882,1.038-3.788,1.808-5.982,2.288c-1.643,0.36-3.374,0.32-4.987-0.177
	c-0.793-0.244-1.607-0.685-2.437-1.058c-0.187-0.785-0.404-1.515-0.654-2.181c2.809-2.637,4.314-6.495,7.905-8.415
	c3.439-1.839,8.239-2.945,11.909-1.476c-1.146,0.841-2.247,1.749-3.344,2.63c-1.418,1.138-3.866,3.803-6.009,4.582
	c5.053-1.118,9.019-5.897,13.715-7.834c3.629-1.497,12.258-2.033,14.457,2.302c-0.016,0.008-0.033,0.014-0.049,0.022
	c-0.075-0.068-0.149-0.137-0.228-0.222l0.224,0.224c-0.702,0.331-1.408,0.706-2.14,1.123c-3.374,1.921-7.566,2.587-11.443,2.289
	c3.451,1.215,8.437,0.442,12.032,0.057c3.47-0.372,6.889-2.167,10.52-1.542c3.201,0.55,5.739,2.534,7.813,4.733
	c0.863,0.915,1.11,2.015,2.538,1.952c-2.574,2.074-4.998,4.3-8.719,4.74c0.172,0.142,0.366,0.244,0.569,0.327
	c-0.72,0.289-1.33,0.728-1.633,1.339c0.793,0.216,1.68-0.043,2.469,0.166c0.94,0.249,1.87,1.17,2.579,1.791
	c1.658,1.452,2.17,3.045,3.054,4.933c0.47,1.005,1.073,1.979,1.759,2.903C100.327,302.838,95.663,303.005,94.385,302.49z
	 M107.17,300.846c-2.737-1.387-5.678-3.359-7.349-5.943c-0.889-1.375-1.651-2.676-3.361-3.154c-0.05-0.014-0.112-0.019-0.165-0.031
	c2.155-0.831,4.405-2.502,5.398-3.484c3.363-3.326,9.728-5.456,14.339-3.626l0.102,0.051c-0.433,3.168-0.618,6.46-1.477,9.772
	c-0.082-0.012-0.166-0.027-0.248-0.039c-1.906-0.266-6.976,0.51-7.101,3.113c0.837-1.43,2.98-1.091,4.403-0.932
	c1.791,0.2,3.696,0.749,5.374,1.466c1.916,0.819,4.045,2.526,6.083,2.713c0.245,0.022,0.536,0.029,0.855,0.019
	C118.532,302.819,112.77,303.683,107.17,300.846z M123.291,295.122c-2.634,0.485-5.329-0.152-7.928-0.583
	c3.643-5.504,0.181-12.289,4.198-17.806c0.621-0.853,4.262-3.614,5.494-6.11c1.092,4.05,2.974,8.238,3.225,11.571
	c-0.68,0.267-1.353,0.579-2.015,0.974c-1.468,0.877-2.579,1.83-3.583,3.211c-0.712,0.979-2.69,2.982-2.197,4.188
	c2.237-4.924,10.775-3.625,15.055-4.818c0.422-0.118,0.813-0.28,1.184-0.469C133.644,290.045,129.146,294.044,123.291,295.122z"/>
<path fill="#C12B17" stroke="#561010" stroke-miterlimit="10" d="M54.27,287.625c-2.463-0.348-6.354-0.271-9.065,0.358
	c-0.025-2.237-1.274-4.038-2.831-4.11c-0.232-2.836,0.317-5.519,0.96-8.168c1.247-5.142,0.513-8.587-3.047-12.909
	c-6.674-8.104-22.699,0.984-20.271,11.096c0.952,3.966,5.276,5.452,8.741,6.816c3.118,1.228,8.34,3.583,10.651,6.532
	c-0.036,0.263-0.057,0.534-0.057,0.812c0,2.315,1.312,4.191,2.93,4.191c0.038,0,0.073-0.014,0.111-0.016
	c2.081,2.302,4.525,3.386,5.684,7.011c0.666,2.082,0.314,3.76-0.022,5.73c-0.201,1.177-1.492,4.178-1.042,5.284
	c1.167,2.868,8.278,3.173,10.768,2.137c3.402-1.415,7.192-7.739,8.121-11.253C68.001,293.181,61.157,288.598,54.27,287.625z
	 M36.921,283.558c-2.009-2.012-4.501-5.071-7.138-6c-2.974-1.047-6.847,0.792-6.305-4.067c0.342-3.062,2.585-6.194,5.276-7.231
	c2.371-0.914,6.418-1.073,8.864-0.322c3.876,1.19,3.555,4.198,3.385,7.625c-0.151,3.038-0.514,6.258-0.251,9.344
	c0.029,0.343,0.064,0.89,0.137,1.477c-0.746,0.581-1.304,1.595-1.479,2.821C38.824,285.99,38.153,284.791,36.921,283.558z
	 M58.031,305.769c-3.56,2.309-4.156-0.862-5.589-3.454c-1.763-3.186-2.569-4.781-5.402-7.067c-1.179-0.952-2.696-1.995-4.038-3.149
	c0.725-0.265,1.342-0.907,1.737-1.783c0.777,0.091,1.609,0.135,2.301,0.135c2.411-0.003,6.097-0.704,8.172,0.692
	c0.914,0.615,2.023,2.498,2.89,3.375c0.805,0.815,3.397,2.642,3.65,3.785C62.249,300.545,59.751,304.654,58.031,305.769z"/>
<path fill="#A0864B" d="M391.253,334.251l0.242,2.248c-0.227,0.124-0.459,0.28-0.69,0.435c0.205-1.674,0.644-3.468,0.688-4.916
	c0.085-2.827-0.88-5.386-2.34-7.787c-1.97-3.241-3.467-5.738-6.812-7.674c-1.046-0.606-2.002-1.161-3.164-1.427
	c-1.13-0.26-2.348,0.02-3.445-0.313c-0.334-0.461-0.687-0.912-1.083-1.336c-3.282-3.509-10.077-8.601-14.304-3.555
	c-1.123-1.48-2.431-2.729-4.251-3.836c-5.139-3.123-12.126-4.011-16.888,0.346c-0.021-0.049-0.045-0.097-0.067-0.145l0.565-1.246
	c-0.269,0.419-0.48,0.794-0.612,1.146c-0.351-0.771-0.746-1.526-1.23-2.247c-2.032-3.024-5.3-6.219-8.642-7.903
	c0.791-2.367,1.242-4.82,0.931-7.546l0.185,1.065c-0.29-1.853,1.474-10.195-0.363-10.067c-0.007,0-0.012,0.001-0.019,0.001
	c2.112-3.155,3.109-5.821,1.039-9.493l-0.055,0.037c-0.14,4.016-2.428,9.235-5.228,12.004c-2.513,2.485-6.118,4.279-7.092,7.834
	c-1.27-1.53-2.702-2.857-3.827-4.584c-1.726-2.651-0.999-5.407-0.245-8.255c0.313-1.181,0.723-2.488,1.241-3.575
	c0.378-0.793,1.313-2.065,1.71-3.073c0.765,3.537,4.969,6.197,4.266,10.155c1.32-2.34,0.705-4.009-0.304-6.452
	c-0.735-1.779-1.395-3.812-1.634-5.758c-0.377-3.075,1.979-4.872,2.895-7.593l0.106-0.677c-0.926,2.392-4.065,4.584-5.119,7.427
	c-0.172,0.465-0.253,0.907-0.295,1.339c-0.443,0.849-2.777,3.344-3.233,4.033c-1.288,1.948-2.788,4.005-3.75,6.132
	c-0.914,2.021-1.551,4.522-1.257,6.824c-0.007,0.002-0.014,0-0.021,0.003c-1.051,1.396-1.404,4.901-1.437,6.84
	c-0.021,1.249-0.287,2.313-0.435,3.589c-0.252,2.181,0.993,4.232,1.558,6.253c0.687,2.463,0.254,5.104,1.117,7.617
	c1.345,3.914,3.945,6.613,6.92,9.314c2.09,1.897,4.445,3.954,7.432,4.135c0.316,0.019,0.636,0.015,0.957,0.012
	c1.651,1.924,6.163,2.609,8.399,3.278c3.934,1.177,7.112,1.212,11.034-0.398c0.099-0.041,0.192-0.09,0.29-0.133
	c0.731,0.862,2.419,1.884,2.99,2.304c3.307,2.433,6.369,2.657,10.269,2.975c1.823,0.148,3.877,0.754,5.722,0.514
	c1.905-0.248,3.982-1.21,5.857-1.641c1.459-0.336,2.791-0.24,4.257-0.328c-0.135,0.116-0.271,0.253-0.41,0.411
	c1.802,3.719,3.472,8.156,7.899,9.049c1.337,0.27,3.37,0.843,5.301,1.065c-3.556,4.275-6.825,10.405-7.767,14.202
	c-2.111,8.502,6.965,16.651,3.478,24.996c2.603-4.542,4.352-8.034,3.991-13.157c-0.397-5.629-4.384-10.769-2.369-16.172
	c2.315-6.206,5.794-4.515,10.469-6.785C400.191,341.081,394.081,337.464,391.253,334.251z M310.964,289.722
	c3.07,3.212,11.074,6.456,10.483,11.832c1.04-0.785,0.363-3.517,0.25-4.722c-0.158-1.7-0.627-3.087-1.44-4.591
	c-0.367-0.678-0.786-1.29-1.234-1.866c1.918-2.737,5.676-5.377,8.683-8.301c-0.216,2.775,1.505,7.009,1.603,8.059
	c0.635,6.796-5.806,10.86-5.486,17.453c-2.454-0.957-5.096-1.786-7.113-3.548c-4.483-3.917-6.308-9.653-6.524-15.322
	C310.408,289.066,310.661,289.405,310.964,289.722z M327.645,317.191c-6.264-0.421-10.776-4.107-14.45-8.673
	c0.27,0.171,0.523,0.314,0.745,0.42c1.847,0.881,4.55,0.5,6.615,0.775c1.81,0.241,3.728,0.742,5.369,1.485
	c1.305,0.591,3.32,1.394,3.31,3.05c1.221-2.301-2.74-5.558-4.515-6.303c-0.076-0.032-0.156-0.062-0.233-0.093
	c0.953-3.286,2.476-6.211,3.721-9.156l0.113,0.008c4.898,0.782,9.283,5.864,10.475,10.441c0.352,1.351,1.432,3.938,2.861,5.753
	c-0.052-0.017-0.107-0.044-0.158-0.057c-1.715-0.462-3.034,0.267-4.501,0.995C334.242,317.203,330.707,317.397,327.645,317.191z
	 M385.654,338.763c-1.641-0.397-3.149-1.247-4.378-2.396c-1.641-1.534-2.886-3.169-3.974-5.022c-0.419-0.714-0.86-1.235-1.327-1.505
	c0.706-0.15,1.412-0.286,2.151-0.247c1.927,0.103,3.816,1.633,5.519,2.683c-1.341-2.48-4.733-3.098-7.129-4.019
	c-3.698-1.422-6.592-0.958-10.475-0.384c-3.185,0.471-7.244,1.482-10.309,0.078c-1.422-0.652-2.909-1.153-4.275-1.883
	c-0.882-0.471-1.629-1.516-2.554-1.949c1.409-0.918,2.793-1.854,4.333-2.566c1.707-0.788,3.399-0.972,5.02-1.905
	c2.145-1.235,3.431-2.193,5.878-1.425c-5.768-3.084-11.975,2.128-17.166,4.576c-3.045,1.436-5.689,2.871-9.17,2.335
	c-1.362-0.209-5.286-2.735-6.166-2.9c1.062-0.443,2.078-0.974,2.995-1.597c1.724-1.172,2.978-2.28,5.145-2.681
	c0.926-0.171,2.196-0.488,3.132-0.222c0.785,0.223,1.415,0.9,2.207,1.119c0.052-0.68-0.249-1.369-0.72-1.985
	c0.217,0.033,0.435,0.044,0.656,0.01c-2.975-2.279-3.921-5.431-5.075-8.529c1.196,0.784,1.969-0.035,3.179-0.381
	c2.906-0.831,6.101-1.24,9.134-0.078c3.441,1.318,5.463,4.607,8.257,6.699c2.894,2.167,6.785,5.379,10.373,6.096
	c-3.485-1.724-6.749-4.438-8.669-7.813c-0.416-0.732-0.831-1.415-1.266-2.058l0.307-0.078c-0.111,0.032-0.21,0.054-0.31,0.074
	c-0.01-0.015-0.021-0.029-0.031-0.044c4.105-2.604,11.25,2.265,13.605,5.405c3.048,4.064,4.017,10.198,7.79,13.74
	c-1.444-1.764-2.188-5.306-2.825-7.009c-0.494-1.318-0.976-2.66-1.532-3.969c3.906,0.611,7.467,4.014,9.485,7.352
	c2.107,3.485,1.43,7.571,2.498,11.272c-0.555,0.446-1.115,0.962-1.676,1.542C387.385,338.994,386.46,338.958,385.654,338.763z"/>
<path fill="#C12B17" stroke="#561010" stroke-miterlimit="10" d="M362.979,338.52c-0.996,3.495-0.967,10.868,1.234,13.822
	c1.611,2.162,7.881,5.532,10.349,3.662c0.952-0.721,1.375-3.96,1.803-5.075c0.717-1.865,1.272-3.488,2.908-4.938
	c2.848-2.524,5.503-2.207,8.468-3.124c0.031,0.021,0.054,0.051,0.087,0.07c1.391,0.827,3.477-0.117,4.66-2.107
	c0.142-0.239,0.262-0.483,0.365-0.727c3.493-1.355,9.185-0.712,12.493-0.175c3.676,0.597,8.152,1.528,10.996-1.395
	c7.252-7.453-1.884-23.452-11.76-19.893c-5.268,1.898-7.659,4.485-9.213,9.542c-0.801,2.606-1.7,5.193-3.347,7.513
	c-1.376-0.734-3.369,0.177-4.533,2.087c-2.01-1.925-5.316-3.979-7.61-4.938C373.459,330.162,365.234,330.607,362.979,338.52z
	 M392.868,340.073c0.475-1.144,0.514-2.301,0.169-3.181c0.363-0.467,0.672-0.92,0.873-1.2c1.802-2.518,3.134-5.473,4.556-8.161
	c1.604-3.033,2.865-5.783,6.804-4.826c2.486,0.604,5.884,2.808,7.456,4.804c1.784,2.267,2.113,6.105,0.843,8.912
	c-2.016,4.454-4.406,0.895-7.497,0.276c-2.742-0.549-6.446,0.808-9.201,1.512C395.181,338.64,393.992,339.328,392.868,340.073z
	 M367.991,338.202c0.802-0.854,3.963-1.1,5.071-1.39c1.193-0.311,3.108-1.363,4.209-1.425c2.496-0.14,5.308,2.345,7.379,3.579
	c0.595,0.354,1.333,0.741,2.047,1.06c-0.108,0.955,0.095,1.822,0.583,2.42c-1.744,0.307-3.581,0.428-5.08,0.645
	c-3.603,0.519-5.111,1.478-8.254,3.317c-2.556,1.496-4.687,3.917-6.569,0.114C366.467,344.684,366.418,339.877,367.991,338.202z"/>
</svg>
