<?xml version="1.0" encoding="utf-8"?>
<!-- Generator: Adobe Illustrator 17.0.0, SVG Export Plug-In . SVG Version: 6.00 Build 0)  -->
<!DOCTYPE svg PUBLIC "-//W3C//DTD SVG 1.1//EN" "http://www.w3.org/Graphics/SVG/1.1/DTD/svg11.dtd">
<svg version="1.1" id="Layer_1" xmlns="http://www.w3.org/2000/svg" xmlns:xlink="http://www.w3.org/1999/xlink" x="0px" y="0px"
	 width="450px" height="487.233px" viewBox="0 0 450 487.233" enable-background="new 0 0 450 487.233" xml:space="preserve">
<path fill="#CFDEE8" stroke="#6B6F70" stroke-miterlimit="10" d="M237.435,78.237c0.576-0.097,0.929,0.174,1.116-0.506
	c-6.283-3.413-14.203-5.531-18.857-11.306c-4.452-5.525-5.604-14.787-2.966-21.41c0.688,1.422,1.235,3.342,2.747,3.895
	c0.211-5.309,0.29-9.85,2.036-14.985c1.585-4.663,5.198-7.499,7.99-11.434c-0.067,0.788,0.068,1.613-0.048,2.393
	c1.161-4.705,7.13-7.853,10.503-10.855c3.234-2.879,7.241-5.367,10.826-7.448c-0.167,1.203-0.675,2.381-0.82,3.639
	c7.645-4.424,17.368-4.812,25.815-6.573c-3.506,1.273-3.639,5.756-1.12,7.704c5.295,4.096,7.387-1.55,8.942-5.378
	c2.098,0.228,5.492,4.017,6.249,5.917c3.884-1.424,7.569-2.146,11.846-1.93c-1.702,1.89-2.25,6.016-3.353,8.468
	c4.368-0.102,10.961,3.85,14.121,6.772c-2.66,0.072-5.415,1.067-7.482,2.885c5.717,1.162,12.896,9.315,12.976,15.126
	c-1.753-0.598-3.038-2.499-5.016-3.006c2.007,1.955,2.353,4.565,3.115,7.069c0.975,3.205,3.435,4.812,4.967,7.602
	c-2.093-1.661-4.732-0.706-7.136-1.372c0.769,4.943,5.636,11.541,10.515,12.802c-2.132-0.127-4.321,0.109-6.442,0.255
	c-3.482,0.241-6.856-0.395-10.225-0.232c1.552,1.631,2.196,2.778,2.321,5.115c0.125,2.319-1.075,8.392-3.682,9.394
	c-0.846-3.577-2.24-6.247-4.294-9.272c-0.39,5.357-4.43,8.431-8.238,11.673c-0.584-1.944-0.906-4.326-1.185-6.348
	c-1.449,6.76-9.405,11.971-14.21,16.382c-0.116-3.768-0.334-8.182-1.131-11.417c-1.18,3.065-3.328,4.483-5.8,6.347
	c-3.423,2.58-4.906,2.668-9.031,0.774c-4.144-1.903-8.235-3.905-12.726-5.059c-3.662-0.942-9.653-1.055-11.47-5.109"/>
<path fill="#E5E5E5" stroke="#000000" stroke-width="7" stroke-miterlimit="10" d="M294.434,154.289
	c-27.57-61.539-56.649-92.958-56.94-93.269l-0.448-0.478l-0.387,0.53c-75.241,102.997-97.657,160.403-114.169,210.375l-1.246,3.769
	c-13.368,40.417-24.914,75.323-26.004,124.941c-0.451,20.557-0.875,38.137,7.741,62.948c2.441,7.029,10.884,14.136,19.382,15.23
	c1.082,0.139,8.923,0.779,10.929,0.386c16.967-3.326,39.638-29.883,56.671-35.491c19.536-6.432,47.139-8.198,66.737,0
	c21.123,8.836,33.599,25.223,45.09,29.475c12.19,4.51,21.6,2.595,21.625,2.595c2.316,0,14.67-4.114,17.383-15.107
	c2.723-11.035,3.699-25.084,3.71-25.242C349.204,305.841,319.87,211.063,294.434,154.289z"/>
<path fill="#D1D1D1" d="M175.289,288.913c0,0,47.16,13.783,71.194,10.038c24.398-3.802,39.576-9.651,51.589-18.103
	c12.098-8.512,19.782-21.316,19.782-24.197C317.854,253.771,179.381,258.379,175.289,288.913z"/>
<path d="M127.089,247.668c0,0-5.707,15.361-11.77,17.861c-6.063,2.501-7.133,6.073-8.916,8.931
	c-0.543,0.871-0.988,2.306-1.322,3.951c-0.763,3.753-0.957,8.6-0.461,10.338c0.713,2.501,3.21,12.503,4.28,13.932
	c1.07,1.429,1.07,1.429,1.07,1.429"/>
<path d="M116.272,271.157c0-0.154,0.007-0.305,0.009-0.459c-17.739,10.811-42.997,25.934-50.918,29.309
	c-12.633,5.383-10.265,3.66-17.979,9.304c-7.235,5.294-6.024,4.888-6.024,9.292s19.443,17.044,23.521,31.911
	c4.596,16.755,1.7,9.235,1.7,9.235l8.277-3.088l4.292-2.85l-4.599-7.126l-8.354-13.104l-7.492-7.851c0,0-4.775-5.279-3.549-8.604
	s8.792-8.107,10.325-8.819c1.533-0.713,12.976-7.887,16.348-9.787c3.372-1.9,28.108-19.628,30.867-22.478
	c0.209-0.216,3.734,0.823,4.066,0.552C116.445,274.847,116.272,273.029,116.272,271.157z"/>
<g>
	<g>
		<path d="M80.285,5.128h0.086H80.285z"/>
		<path d="M46.71,6.518"/>
	</g>
</g>
<g>
	<path fill="#A0864B" d="M53.652,283.845c-0.433,0.096-0.871,0.174-1.321,0.212C52.748,284.097,53.194,284.012,53.652,283.845z"/>
	<path fill="#A0864B" d="M61.045,288.652c-0.091,0.059-0.183,0.121-0.274,0.181c0.034,0.182,0.063,0.373,0.083,0.585L61.045,288.652
		z"/>
</g>
<path fill="#A0864B" d="M127.079,262.769c0.172-1.041,3.469-3.048,4.426-4.064c1.291-1.37,2.679-4.65,4.732-4.83
	c2.692-0.236,1.984,2.173,2.672,3.814c1.302,3.107,1.966-0.158,1.986-1.864c0.022-1.871,0.581-4.832-0.859-6.262
	c-1.629-1.618-4.749-0.832-6.467,0.35c-1.922,1.322-2.52,3.391-3.697,5.338c-1.083,1.792-2.465,3.342-3.042,5.282
	c-0.246,0.826-0.492,1.546-0.159,2.236"/>
<path d="M331.282,264.103c-10.062-45.355-23.66-82.118-36.322-109.813c-28.134-61.539-57.808-92.958-58.105-93.269l-0.457-0.478
	l-0.395,0.53c-68.655,92.098-94.209,147.742-110.895,194.214C174.871,246.091,258.447,247.896,331.282,264.103z"/>
<path d="M341.642,318.521c0,0-1.88-16.278,2.39-21.256c4.27-4.978,3.604-8.647,3.897-12.003c0.089-1.023-0.165-2.503-0.613-4.121
	c-1.021-3.691-3.047-8.098-4.277-9.423c-1.77-1.905-8.531-9.688-10.132-10.476c-1.602-0.788-1.602-0.788-1.602-0.788"/>
<path fill="#AD2D1F" stroke="#60202B" stroke-miterlimit="10" d="M153.176,181.475c0,0,37.362-115.432,93.684-138.853
	s24.536,20.075,24.536,20.075s-8.922,10.595-8.922,10.038s61.32,93.126,61.736,124.352
	C324.736,236.537,149.273,181.475,153.176,181.475z"/>
<g>
	<path fill="#A0864B" d="M382.339,329.91c0.323,0.303,0.66,0.595,1.027,0.857C382.987,330.588,382.648,330.287,382.339,329.91z"/>
	<path fill="#A0864B" d="M373.528,330.266c0.048,0.097,0.096,0.198,0.143,0.296c-0.122,0.139-0.245,0.288-0.37,0.461
		L373.528,330.266z"/>
</g>
<path fill="#8C3128" d="M324.21,197.087c-0.416-31.226-61.736-124.91-61.736-124.352c0,0.558,8.922-10.038,8.922-10.038
	s20.679-27.843-1.012-26.422c1.751,7.154,0.789,9.601-2.054,16.109c-1.638,3.751-8.42,15.717-11.857,18.285
	c-3.228,2.413-11.506,0.265-11.999,5.039c3.715,0.295,7.307-0.927,10.957-0.402c-0.52,1.689-1.079,3.699-1.539,5.535
	c6.609,2.183,7.682,0.188,11.046,7.703c2.68,5.987,6.062,11.506,9.298,17.207c2.818,4.965,28.744,53.695,30.127,58.849
	c2.767,10.315,6.739,19.853,6.09,30.947c-0.223,3.806-3.761,10.798-2.599,14.819C318.041,208.671,324.31,204.589,324.21,197.087z"/>
<path fill="#CFDEE8" stroke="#6B6F70" stroke-miterlimit="10" d="M135.084,185.597c-1.112-1.009-7.308,3.113-9.796,5.329
	c2.039-0.335,4.603,0.503,6.666,0.254c-3.389,4.351-7.476,7.73-10.374,13.093c2.842,0.124,5.787,0.068,8.586,0.18
	c-3.035,4.469-6.758,6.643-11.279,9.118c2.021,0.155,3.705,1.209,5.631,1.499c-5.771,1.837-13.46,5.974-16.504,11.79
	c1.355-0.022,3.243,0.826,4.271,0.843c-3.915,2.085-4.374,6.242-5.833,10.124c2.679-0.177,5.554-1.244,8.11-2.201
	c-3.356,4.174-4.018,10.473-4.343,15.491c2.132-1.61,4.255-4.03,6.865-5.391c-0.881,4.243-0.67,8.701-0.795,13.121
	c0.72-3.161,2.646-5.779,5.421-7.426c-0.396,3.373,0.264,7.268,3.047,9.068c0.273-1.485,1.617-3.088,1.937-4.56
	c1.536,1.643,3.653,3.868,5.285,5.555c0.333-1.628,2.091-3.725,2.498-5.555c0.57,1.004,10.774,5.642,11.281,6.885
	c6.773-37.976,42.101-53.25,75.92-50.687c20.906,1.584,36.254,16.213,50.063,30.64c5.216,5.45,9.522,13.617,15.598,16.979
	c3.1,1.715,6.313,2.154,9.392,3.929c2.319,1.337,6.81,6.804,10.184,6.358c0.203-0.057,0.407-0.114,0.61-0.171
	c-0.12-3.001,1.358-4.299,2.287-6.127c1.654,3.51,4.99,6.155,8.697,7.528c-0.2-1.817,0.526-4.219,0.196-5.979
	c2.592,3.962,7.365,7.17,12.733,8.265c-0.89-1.295-1.254-2.918-2.044-4.231c2.449,3.698,7.15,4.597,11,6.573
	c-1.754-2.112-2.67-4.584-2.791-7.298c2.298,2.241,5.128,3.891,8.179,4.349c-0.315-2.103,0.608-4.77,0.239-6.865
	c2.793,1.957,6.273,3.597,9.819,2.946c-1.762-2.545-1.859-5.983-1.251-9.131c5.291-0.36,10.131-0.144,15.29-1.66
	c-3.277-0.924-6.021-3.561-7.717-6.228c1.671-2.936,5.439-3.976,8.113-5.466c-2.301-1.888-5.005-2.995-7.936-4.098
	c1.272-2.644,3.179-5.028,4.578-7.498c-3.506-1.345-7.119-0.813-10.857-1.057c1.806-2.98,5.104-4.278,6.208-7.532
	c-2.976-1.125-6.199-1.643-9.356-1.774c2.412-5.549,8.727-8.765,14.026-11.084c-3.751-1.199-9.465-0.453-13.889-0.689
	c-0.248-4.277,0.699-9.175-1.1-13.093c-2.612,3.025-5.074,7.103-9.892,6.084c0.83-2.405,0.379-5.097,0.603-7.608
	c-4.628,1.553-9.775,2.645-14.599,4.288c0.854-6.81-5.966-13.808-10.875-6.185c-2.774-3.161-4.892-6.887-6.788-10.633
	c-2.028,1.241-3.772,1.654-4.455,4.993c-2.314-3.344-6.561-5.689-9.912-7.18c0.591,1.503,0.108,4.412,0.581,5.969
	c-2.511,0.309-5.488,0.146-7.623-0.406c-0.119-3.476,2.099-6.465,3.565-9.567c-3.24-0.663-6.81-0.61-8.957,1.967
	c0.994-7.763-11.474-6.172-14.095-0.702c0.902-2.329,0.971-5.206,1.359-7.546c-3.345,0.468-6.338,3.558-9.161,5.316
	c0.165-2.851-1.221-4.974-3.85-6.159c-0.59,1.997-2.147,3.988-2.543,5.988c-1.562-4.882-8.823-4.745-13.149-5.966
	c0.264,2.076-0.353,3.943,0.402,5.966c-3.217-2.755-8.039-3.379-12.173-3.587c0.789,1.32,0.917,3.396,1.395,4.347
	c-4.06-2.987-15.134-7.059-20.099-6.652c0.369,1.524-0.531,3.697-0.16,5.229c-7.013,1.29-8.684-1.74-13.174-5.326
	c-0.859,1.854-2.967,3.265-3.748,5.207c-1.938-4.856-7.162-3.189-10.99-5.756c-0.357,2.678-0.917,5.501-1.773,8.115
	c-6.055-5.027-10.343-4.987-17.781-6.516c0.246,1.492-0.598,3.806-0.356,5.111c-4.764-2.673-8.928-3.369-14.521-2.961
	c1.41,3.02,1.811,6.747,2.011,10.031c-3.619-1.71-6.89-0.592-10.524-1.487c-3.439-0.847-4.436-3.889-8.642-3.043
	c1.262,0.958,2.889,3.621,3.842,4.549"/>
<ellipse cx="218.562" cy="252.696" rx="70.607" ry="46.221"/>
<ellipse fill="#E53017" cx="218.219" cy="253.078" rx="66.264" ry="43.603"/>
<path fill="#8C3128" d="M258.987,276.171c-6.712,4.738-13.906,6.236-18.659,8.199c-12.808,5.29-21.75,5.693-36.046,7.068
	c-6.236,0.6-14.81-1.066-20.8-1.228c10.101,4.101,21.997,6.472,34.737,6.472c36.596,0,66.264-19.522,66.264-43.603
	c0-6.391-2.107-12.455-5.861-17.924c-0.982,6.466,1.8,16.747-2.814,24.478C271.906,266.172,266.196,271.083,258.987,276.171z"/>
<ellipse transform="matrix(-0.2035 -0.9791 0.9791 -0.2035 36.6279 577.9508)" opacity="0.6" fill="#F9F7F7" enable-background="new    " cx="253.403" cy="274.077" rx="8.482" ry="13.824"/>
<ellipse opacity="0.6" fill="#F9F7F7" enable-background="new    " cx="210.546" cy="230.776" rx="32.288" ry="18.064"/>
<ellipse opacity="0.5" fill="#F9F7F7" enable-background="new    " cx="202.928" cy="223.385" rx="13.001" ry="7.806"/>
<path fill="none" d="M62.062,362.651c0.591-3.903,7.263-6.742,10.489-7.783c2.097-0.677,7.133-1.231,8.274-2.931
	c0.751,3.802,6.958,9.062,9.628,11.941c2.263,2.441,4.502,4.345,6.5,6.989c-0.082-0.187-0.295-0.551-0.347-0.739
	c0.421,7.629-1.61,15.894-2.144,23.38c-0.239,3.357,0,6.815,0,10.183c0,4.076,1.196,8.514,0.886,12.289
	c-8.624,1.778-15.149,6.513-24.305,3.157c-6.518-2.39-12.484-5.026-18.575-8.364c-0.237,0.001-0.234,0.018,0.011,0.053
	c1.069-2.735-11.458-15.716-1.239-15.713c3.662,0.001,7.191,3.513,10.813,3.966c5.63,0.704,4.603-2.446,6.156-7.18
	c1.346-4.101,2.202-6.276,0.1-10.424c-1.196-2.36-1.922-3.787-1.927-6.481c-0.005-2.425,1.897-4.836,1.789-6.866
	c-0.129-2.42-3.799-5.593-6.109-6.095"/>
<path d="M59.483,366.009c-0.532-5.022,19.604-12.265,23.577-14.056c3.094-1.394,8.866,13.026,14.596,15.783
	c-0.159-0.051-0.319-0.046-0.479,0.014c-0.569,8.343-2.006,15.897-2.006,24.209c0,3.946,0.544,7.397,0,11.173
	c-0.568,3.939-0.801,7.242-0.789,11.173c-8.879,0.752-19.361,2.97-28.358,1.213c-3.579-0.699-10.739-5.078-12.01-8.369
	c-4.18-10.821,8.49-9.488,15.3-9.722c0.181-2.391,1.687-4.447,2.071-6.975c0.359-2.365,0.461-4.917,0.335-7.358
	c-0.234-4.542-2.623-7.763-2.722-12.312c-2.45-0.514-7.464-3.188-9.538-4.756"/>
<path d="M339.683,274.488c0.057-0.143-9.365,11.536,1.377-1.181c12.48,16.607,41.485,30.827,47.596,36.894
	c9.745,9.675,8.182,7.198,13.26,15.296c4.763,7.595,3.788,6.77,2.158,10.861s-24.37,8.64-33.659,20.944
	c-10.469,13.865-4.996,7.95-4.996,7.95l-6.547-5.931l-2.933-4.236l6.909-4.918l12.609-9.083l9.865-4.521c0,0,6.39-3.137,6.481-6.68
	c0.091-3.543-5.169-10.784-6.329-12.014c-1.16-1.229-10.305-8.296-12.735-11.309s-25.448-17.385-26.956-21.053
	c-0.114-0.278-5.694,0.571-5.903,0.197C340.822,284.198,338.991,276.227,339.683,274.488z"/>
<path d="M383.36,361.009c0.532-5.022-19.604-12.265-23.577-14.056c-3.094-1.394-8.866,13.026-14.596,15.783
	c0.159-0.051,0.319-0.046,0.479,0.014c0.569,8.343,2.006,15.897,2.006,24.209c0,3.946-0.544,7.397,0,11.173
	c0.568,3.939,0.801,7.242,0.789,11.173c8.879,0.752,19.361,2.97,28.358,1.213c3.579-0.699,10.739-5.078,12.01-8.369
	c4.18-10.821-8.49-9.488-15.3-9.722c-0.181-2.391-1.687-4.447-2.071-6.975c-0.359-2.365-0.461-4.917-0.335-7.358
	c0.234-4.542,2.623-7.763,2.722-12.312c2.45-0.514,7.464-3.188,9.538-4.756"/>
</svg>
