<?xml version="1.0" encoding="utf-8"?>
<!-- Generator: Adobe Illustrator 17.0.0, SVG Export Plug-In . SVG Version: 6.00 Build 0)  -->
<!DOCTYPE svg PUBLIC "-//W3C//DTD SVG 1.1//EN" "http://www.w3.org/Graphics/SVG/1.1/DTD/svg11.dtd">
<svg version="1.1" id="Layer_1" xmlns="http://www.w3.org/2000/svg" xmlns:xlink="http://www.w3.org/1999/xlink" x="0px" y="0px"
	 width="745.348px" height="460.964px" viewBox="0 0 745.348 460.964" enable-background="new 0 0 745.348 460.964"
	 xml:space="preserve">
<symbol  id="guitar3" viewBox="-93 -280.712 186 561.423">
	<path d="M-18.278,277.288l-14.727-27.11c0,0,17.569-26.666,1.088-59.627c0,0,5.002,1.236,10.113-1.583
		c5.388-2.972,10.9-10.197,10.9-17.952c0-12.526,2.275-86.195,1.952-144.042c-0.221-39.647-3.08-71.862-3.08-71.862
		S-33.905-79.091-49.813-7.107c-0.21,0.949-1.317,0.143-1.547-0.734c-0.222-0.85-0.533-1.971-0.913-3.303
		c-3.465-12.148-12.697-41.83-13.051-42.891c-0.184-0.553,27.558-34.49,20.283-58.462c-9.546-31.454-39.788-58.217-46.82-78.415
		c-0.434-1.247-0.977-1.298-0.109-1.921c20.072-14.41,38.549-64.438,44.912-81.141c0.224-0.587,4.056-0.461,4.196-0.487
		c0.233-0.044,0.335,0.143,0.57,0.613c0.062,0.123,25.296,64.116,61.726,67.204c1.873,0.159,4.155-0.871,5.22-2.269
		c3.552-4.665,29.959-53.452,39.381-69.256c1.972-3.308,5.379-1.603,5.379-1.603l12.646,49.339l10.308,26.519
		c0,0,0.249,1.164-0.249,2.826c-2.181,7.271-12.485,22.778-22.879,39.823c-7.3,11.972-16.104,23.648-15.869,38.309
		c0.192,11.989,9.628,26.71,18.909,38.696c1.218,1.573-7.159,37.384-7.159,37.384s-3.437,5.733-3.896,2.783
		c-6.091-39.111-43.92-46.484-44.08-25.807C16.992-50,12.553-44.059,10.758,27.779c-0.801,32.07,2.44,77.429,0.778,142.756
		c0,0-3.045,20.368,18.273,18.914c3.569-0.243-2.35,5.884-6.732,16.35c-4.277,10.215-5.14,26.794-0.801,37.828
		c1.041,2.649,2.365,4.214,4.569,6.663c0.634,0.705-15.81,28.153-15.81,28.153s2.227-18.597-0.3-26.161
		c-3.013-9.017-18.594-13.625-26.127-2.244C-23.63,262.484-15.287,270.201-18.278,277.288z"/>
	<polygon fill="#ADADAD" points="26,-147 -19,-147 -19,-127 26,-127 	"/>
	<polyline fill="#ADADAD" points="28,-165 28,-177 -22,-177 -22,-165 	"/>
	<path fill="#5D5D5D" d="M47.197-163.31c0-2.64-2.047-4.78-4.572-4.78s-4.572,2.14-4.572,4.78s2.047,4.78,4.572,4.78
		S47.197-160.67,47.197-163.31z"/>
	<path fill="#5D5D5D" d="M52.808-179.312c0-2.295-1.861-4.156-4.156-4.156c-2.295,0-4.156,1.861-4.156,4.156
		c0,2.295,1.861,4.156,4.156,4.156C50.947-175.155,52.808-177.016,52.808-179.312z"/>
	<path fill="#5D5D5D" d="M60.705-199.053c0-2.525-1.954-4.572-4.364-4.572c-2.41,0-4.364,2.047-4.364,4.572
		c0,2.525,1.954,4.572,4.364,4.572C58.751-194.482,60.705-196.529,60.705-199.053z"/>
	<path fill="#F9F9F9" d="M-13.444,233.918c0-2.353-1.861-4.26-4.156-4.26s-4.156,1.907-4.156,4.26c0,2.353,1.861,4.26,4.156,4.26
		S-13.444,236.271-13.444,233.918z"/>
	<path fill="#F9F9F9" d="M-12.029,218.125c0-2.353-1.861-4.26-4.156-4.26s-4.156,1.907-4.156,4.26c0,2.353,1.861,4.26,4.156,4.26
		S-12.029,220.477-12.029,218.125z"/>
	<path fill="#F9F9F9" d="M17.272,233.814c0-2.41-1.814-4.364-4.052-4.364s-4.052,1.954-4.052,4.364s1.814,4.364,4.052,4.364
		S17.272,236.224,17.272,233.814z"/>
	<path fill="#F9F9F9" d="M16.649,217.397c0-2.295-1.768-4.156-3.948-4.156s-3.948,1.861-3.948,4.156
		c0,2.295,1.768,4.156,3.948,4.156S16.649,219.693,16.649,217.397z"/>
	<path fill="#F9F9F9" d="M17.974,200.876c0-2.238-1.721-4.052-3.844-4.052s-3.844,1.814-3.844,4.052s1.721,4.052,3.844,4.052
		S17.974,203.114,17.974,200.876z"/>
	<path fill="#F9F9F9" d="M-14.107,200.876c0-2.468-1.907-4.468-4.26-4.468s-4.26,2-4.26,4.468s1.907,4.468,4.26,4.468
		S-14.107,203.344-14.107,200.876z"/>
	<path fill="#8C8C8C" d="M-27.822,234.23c0-2.64-1.907-4.78-4.26-4.78s-4.26,2.14-4.26,4.78s1.907,4.78,4.26,4.78
		S-27.822,236.87-27.822,234.23z"/>
	<path fill="#8C8C8C" d="M-26.576,218.021c0-2.754-1.768-4.987-3.948-4.987s-3.948,2.233-3.948,4.987s1.768,4.987,3.948,4.987
		S-26.576,220.775-26.576,218.021z"/>
	<path fill="#8C8C8C" d="M-28.861,200.461c0-2.582-1.861-4.676-4.156-4.676s-4.156,2.093-4.156,4.676
		c0,2.582,1.861,4.676,4.156,4.676S-28.861,203.043-28.861,200.461z"/>
	<path fill="#8C8C8C" d="M28.494,233.918c0-2.582-1.582-4.676-3.533-4.676s-3.533,2.093-3.533,4.676
		c0,2.582,1.582,4.676,3.533,4.676S28.494,236.501,28.494,233.918z"/>
	<path fill="#8C8C8C" d="M28.494,218.644c0-2.41-1.675-4.364-3.741-4.364s-3.741,1.954-3.741,4.364s1.675,4.364,3.741,4.364
		S28.494,221.054,28.494,218.644z"/>
	<path fill="#8C8C8C" d="M32.65,203.643c0-2.525-1.721-4.572-3.844-4.572s-3.844,2.047-3.844,4.572c0,2.525,1.721,4.572,3.844,4.572
		S32.65,206.168,32.65,203.643z"/>
	<path fill="#ADADAD" d="M17.921-74.833c0,0,6.56-14.767,18.601-11.059c12.097,3.725,19.543,11.205,23.594,22.056
		c1.841,4.933,5.303,14.055,3.828,18.477c-0.501,1.502-2.535,2.799-2.588,1.637c-0.024-0.53-0.782-0.548-0.84-2.288
		c-0.276-8.369-8.245-23.752-18.227-30.474c-1.476-0.994-2.706-1.912-4.317-2.535C32.785-81.023,24.149-83.833,17.921-74.833z"/>
	<path fill="#ADADAD" d="M-20.726-52.307c-7.827-2.96-19.532,1.964-29.087,45.201c-0.21,0.949-1.317,0.143-1.547-0.734
		c-0.222-0.85-0.533-1.971-0.913-3.303c-3.465-12.148-12.697-41.83-13.051-42.891c-0.044-0.133,3.314-1.214,4.013-0.748
		c2.932,12.7,10.065,39.075,10.065,34.702C-51.245-24.978-38.306-64.734-20.726-52.307z"/>
	<path fill="#ADADAD" d="M-37.626-103.318c-0.417,2.166-3.395,3.245-6.458,3.78c0.489-4.466,0.287-8.859-0.957-12.959
		c-9.546-31.453-39.788-58.217-46.82-78.415c-0.434-1.247-0.977-1.298-0.109-1.921c0.561-0.403,1.125-0.843,1.689-1.301
		c6.804,7.237,11.206,16.026,17.225,24.092c14.047,18.827,27.46,37.541,33.106,50.808C-36.241-110.517-37.35-104.751-37.626-103.318
		z"/>
	<path fill="#ADADAD" d="M68.921-66.557c0,0-2.544,16.11-2.852,12.41c-0.308-3.7,3.237-27.133,4.471-28.443s1.233,0.077,1.156,1.002
		C71.619-80.663,68.921-66.557,68.921-66.557z"/>
	<path fill="#ADADAD" d="M50.388-125.547c0.155,0.372-0.856,5.136-1.997,1.141s1.494-10.442,1.931-12.081
		s12.785-23.822,12.785-23.822s39.885-59.664,23.057-33.11s-22.074,34.64-22.074,34.64S47.613-132.2,50.388-125.547z"/>
	<path fill="#545454" d="M92.399-203.039c0,0-20.691-77.047-23.005-76.774c-2.314,0.272-1.361,0-1.77,1.633
		c-0.408,1.634,22.668,74.028,23.141,75.549c0.343,1.103-0.592,1.548,0.817,0.817C92.527-202.304,92.399-203.039,92.399-203.039z"/>
	<path fill="#545454" d="M-43.45-273.965c0.594-0.12,0.562-1.53,1.552,0.998c5.863,14.971,21.772,38.857,25.604,43.305
		c4.111,4.771,22.612,23.796,35.729,23.017c2.466-0.146-6.078,1.755-10.488,0.568c-2.652-0.714-11.021-3.957-18.632-10.366
		c-3.105-2.615-10.216-9.484-16.15-17.684c-8.61-11.898-16.148-25.883-17.097-27.78"/>
	<path fill="#545454" d="M53.372-122.956c0.192,11.989,9.628,26.71,18.909,38.696c0.009,0.011,0.012,0.042,0.02,0.057l-2.074-0.95
		c0,0-7.313-6.54-13.892-20.426c-1.725-3.64-2.693-7.632-3.047-11.547c-0.307-3.395-0.156-6.277,0.141-8.416
		C53.381-124.691,53.358-123.83,53.372-122.956z"/>
	<polygon fill="#6B6B6B" points="-10.845,170.157 11.632,170.516 17.791,-92.234 -12.513,-91.917 	"/>
	<g>
		<path fill="none" stroke="#020202" stroke-miterlimit="10" d="M92.119-201.088c-2.181,7.271-12.485,22.778-22.879,39.823
			c-7.3,11.972-16.104,23.648-15.869,38.309c0.192,11.989,9.628,26.71,18.909,38.696c1.218,1.573-7.159,37.384-7.159,37.384
			s-3.437,5.733-3.896,2.783c-5.874-37.718-41.253-45.909-43.91-27.899l-5.702,242.509l-0.114-0.002c0,0.007,0,0.014,0,0.02
			c0,0-3.027,20.368,18.291,18.914c3.569-0.243-2.341,5.884-6.723,16.35c-4.277,10.215-5.136,26.794-0.797,37.828
			c1.041,2.649,2.367,4.214,4.571,6.663c0.634,0.705-15.809,28.153-15.809,28.153s2.227-18.597-0.3-26.161
			c-3.013-9.017-18.593-13.625-26.127-2.244c-8.238,12.445,0.105,20.162-2.885,27.249l-14.727-27.11c0,0,17.569-26.666,1.088-59.627
			c0,0,5.002,1.236,10.113-1.583c5.388-2.972,10.9-10.197,10.9-17.953c0-0.977,0.014-2.325,0.039-4.008l-1.351-212.169
			c-2.124-3.063-22.534-30.11-37.598,38.054c-0.21,0.949-1.317,0.143-1.547-0.734c-0.222-0.85-0.533-1.971-0.913-3.303
			c-3.465-12.148-12.697-41.83-13.051-42.891c-0.184-0.553,27.558-34.49,20.283-58.462c-9.546-31.453-39.788-58.217-46.82-78.415
			c-0.434-1.247-0.977-1.298-0.109-1.921c20.072-14.41,38.549-64.438,44.912-81.141c0.224-0.587,4.056-0.461,4.196-0.487
			c0.233-0.044,0.335,0.143,0.57,0.613c0.062,0.123,25.296,64.116,61.726,67.204c1.873,0.159,4.155-0.871,5.22-2.269
			c3.552-4.665,29.959-53.452,39.381-69.256c1.972-3.308,5.379-1.603,5.379-1.603l14.436,45.651l8.518,30.208
			C92.369-203.915,92.618-202.751,92.119-201.088z"/>
		<path fill="#6B6B6B" stroke="#000000" stroke-miterlimit="10" d="M-32.082,229.45c2.353,0,4.26,2.14,4.26,4.78
			s-1.907,4.78-4.26,4.78s-4.26-2.14-4.26-4.78S-34.435,229.45-32.082,229.45z"/>
		<path fill="#6B6B6B" stroke="#000000" stroke-miterlimit="10" d="M-34.472,218.021c0-2.754,1.768-4.987,3.948-4.987
			c2.181,0,3.948,2.233,3.948,4.987c0,2.755-1.768,4.987-3.948,4.987C-32.705,223.008-34.472,220.775-34.472,218.021z"/>
		<path fill="#6B6B6B" stroke="#000000" stroke-miterlimit="10" d="M-33.018,195.785c2.295,0,4.156,2.093,4.156,4.676
			s-1.861,4.676-4.156,4.676s-4.156-2.093-4.156-4.676S-35.313,195.785-33.018,195.785z"/>
		<path fill="#6B6B6B" stroke="#000000" stroke-miterlimit="10" d="M21.429,233.918c0-2.582,1.582-4.676,3.533-4.676
			c1.951,0,3.533,2.093,3.533,4.676s-1.582,4.676-3.533,4.676C23.01,238.594,21.429,236.501,21.429,233.918z"/>
		<path fill="#6B6B6B" stroke="#000000" stroke-miterlimit="10" d="M28.494,218.644c0,2.41-1.675,4.364-3.741,4.364
			s-3.741-1.954-3.741-4.364c0-2.41,1.675-4.364,3.741-4.364S28.494,216.234,28.494,218.644z"/>
		<path fill="#6B6B6B" stroke="#000000" stroke-miterlimit="10" d="M24.961,203.643c0-2.525,1.721-4.572,3.844-4.572
			c2.123,0,3.844,2.047,3.844,4.572s-1.721,4.572-3.844,4.572C26.683,208.215,24.961,206.168,24.961,203.643z"/>
	</g>
	<polygon fill="#ADADAD" points="13,170 -11,170 -11,174 13,174 	"/>
	<polygon fill="#ADADAD" points="26,-111 -19,-111 -19,-91 26,-91 	"/>
	<polygon display="none" fill="none" points="-93,280 93,280 93,-280 -93,-280 	"/>
</symbol>
<path d="M371.517,181.903c-4.501,15.309,27.469,55.633,39.509,65.539c14.871,12.235,48.851,31.517,68.218,19.598
	c-10.098,12.308-22.399,5.94-34.557,12.398c-13.622,7.236-16.71,26.488-8.662,38.602c15.185,22.855,56.71,3.784,71.464,34.173
	c-18.131-12.784-51.834-6.376-39.73,21.245c10.63,24.259,42.276,20.69,47.75-5.032c8.424,8.098,6.892,24.055,2.7,34.205
	c-1.829,4.429-6.257,15.87-10.944,18.063c-8.319,3.893-7.727-2.262-15.078-7.757c-12.246-9.153-28.833-8.066-42.467-2.826
	c-18.303,7.035-26.46,16.985-45.941,22.176c-46.847,12.482-53.192-37.585-56.763-72.678c-3.624-35.617-4.823-56.444-0.171-91.927
	c3.706-28.264,18.271-52.203,23.387-79.36"/>
<path d="M242.319,68.634c-12.198,17.115-18.116,41.415-26.687,62.214c-10.354,25.126-23.232,44.836-38.918,66.902
	c-21.88,30.779-50.685,58.754-89.416,65.354c-14.743,2.512-23.009-3.075-36.19-5.243c12.485,4.423,20.402,18.655,11.861,29.872
	c-13.563,17.815-29.158,23.484-22.682,48.983c-0.817-22.053,21.313-34.417,40.947-24.778c13.385,6.571,17.851,18.185,11.157,30.444
	c-6.465,11.84-15.661,11.805-25.463,18.089c8.988,0.568,13.206,0.525,20.463-5.194c8.539-6.73,10.924-16.448,22.989-18.126
	c16.839-2.342,34.58,18.345,26.289,35.113c-13.115,26.525-67.756-1.292-74.346,32.51c10.014-14.817,46.995-13.842,43.348,8.733
	c-5.286,32.725-62.521,4.75-64.535,28.097c5.648-7.077,30.361-2.724,39.278-1.363c5.363,0.818,15.968,4.744,21.182,3.014
	c7.698-2.555,15.67-16.06,20.212-22.37c9.955-13.829,17.521-15.413,32.743-7.04c19.774,10.876,54.797,28.132,62.126,7.307
	c5.591-15.886-19.17-55.237-15.453-71.682c9.482-41.958,23.311-82.288,31.154-124.592c5.06-27.291,4.731-55.489,9.707-82.57
	c2.961-16.116,8.376-29.964,6.529-46.164c-0.915-8.029-5.74-21.253-4.178-27.509"/>
<path d="M495.459,273.215c-5.498-4.415-24.555-1.032-32.444,0.003c-4.794,0.628-42.371,7.831-32.458-6.662
	c1.443-2.11,13.215-6.407,15.842-6.961c5.749-1.212,11.542,0.806,16.784,2.135c6.041,1.531,11.601,1.684,17.94,1.677
	c9.191-0.01,9.301,1.309,14.336,8.3"/>
<path fill="#E5E5E5" stroke="#000000" stroke-width="7" stroke-miterlimit="10" d="M225.651,106.371
	c27.57-61.539,56.649-92.958,56.94-93.269l0.448-0.478l0.387,0.53c75.241,102.997,97.657,160.403,114.169,210.375l1.246,3.769
	c13.368,40.417,24.914,75.323,26.004,124.941c0.451,20.557,0.875,38.137-7.741,62.948c-2.441,7.029-10.884,14.136-19.382,15.23
	c-1.082,0.139-8.923,0.779-10.929,0.386c-16.967-3.326-39.638-29.883-56.671-35.491c-19.536-6.432-47.139-8.198-66.737,0
	c-21.123,8.836-33.599,25.223-45.09,29.475c-12.19,4.51-21.6,2.595-21.625,2.595c-2.316,0-14.67-4.114-17.383-15.107
	c-2.723-11.035-3.699-25.084-3.71-25.242C170.881,257.923,200.216,163.145,225.651,106.371z"/>
<path fill="#8E8E8E" d="M344.797,240.995c0,0-47.16,13.783-71.194,10.038c-24.398-3.802-39.576-9.651-51.589-18.103
	c-12.098-8.512-19.782-21.316-19.782-24.197C202.232,205.853,340.704,210.462,344.797,240.995z"/>
<path d="M188.803,216.185c10.062-45.355,23.66-82.118,36.322-109.813c28.134-61.539,57.808-92.958,58.105-93.269l0.457-0.478
	l0.395,0.53c68.655,92.098,94.209,147.742,110.895,194.214C345.214,198.173,261.639,199.978,188.803,216.185z"/>
<ellipse cx="301.523" cy="204.778" rx="70.607" ry="46.221"/>
<ellipse fill="#E53017" cx="302.866" cy="203.161" rx="66.264" ry="43.603"/>
<path fill="#8C3128" d="M262.099,226.254c6.712,4.738,13.906,6.236,18.659,8.199c12.808,5.29,21.75,5.693,36.046,7.068
	c6.236,0.6,14.81-1.066,20.8-1.228c-10.101,4.101-21.997,6.472-34.737,6.472c-36.596,0-66.264-19.522-66.264-43.603
	c0-6.391,2.107-12.455,5.861-17.924c0.982,6.466-1.8,16.747,2.814,24.478C249.179,216.254,254.889,221.165,262.099,226.254z"/>
<ellipse transform="matrix(-0.9791 -0.2035 0.2035 -0.9791 481.7483 501.8245)" opacity="0.6" fill="#F9F7F7" cx="266.68" cy="226.139" rx="13.824" ry="8.482"/>
<ellipse opacity="0.6" fill="#F9F7F7" cx="312.539" cy="179.859" rx="32.288" ry="18.064"/>
<ellipse opacity="0.5" fill="#F9F7F7" cx="319.158" cy="172.468" rx="13.001" ry="7.806"/>
<path d="M392.996,199.75c0,0,5.707,15.361,11.77,17.861s7.133,6.073,8.916,8.931c0.543,0.871,0.988,2.306,1.322,3.951
	c0.763,3.753,0.957,8.6,0.461,10.338c-0.713,2.501-3.21,12.503-4.28,13.932c-1.07,1.429-1.07,1.429-1.07,1.429"/>
<path d="M178.443,270.603c0,0,1.88-16.278-2.39-21.256c-4.27-4.978-3.604-8.647-3.897-12.003c-0.089-1.023,0.165-2.503,0.613-4.121
	c1.021-3.691,3.047-8.098,4.277-9.423c1.77-1.905,8.531-9.688,10.132-10.476c1.602-0.788,1.602-0.788,1.602-0.788"/>
<path fill="#8E8E8E" d="M372.63,420.071c-0.151-2.646,1.424-4.702,5.279-11.848c1.675-3.105,4.173-6.952,6.492-12.591
	c1.631-3.966,8.477-19.143,10.46-23.055c4.835-9.535,17.697-17.297,26.537-16.671c0.069,0.005-0.215-9.461-0.344-12.969
	c-0.164-4.444,0.086-7.826-4.667-8.773c-6.963-1.386-15.2,7.295-19.471,11.31c-3.855,3.625-8.384,6.213-11.276,10.735
	c-3.352,5.241-6.304,10.936-9.134,16.47c-4.547,8.89-10.284,20.638-11.747,30.631c-0.448,3.061-2.306,8.761,0.169,11.055
	c3.002,2.783,3.686,2.944,7.671,5.69"/>
<path d="M478.258,231.859"/>
<path d="M570.503,177.446"/>
<path d="M85.366,131.707c-0.407,0.883-12.317-7.395-17.116-13.908c-2.113-2.868-10.256-11.619-12.619-12.807
	c-2.584-1.299-5.646-2.807-8.199-3.08c-2.619-0.28-4.622-0.354-8.217,1.643c-2.672,1.484-3.177,4.039-2.191,6.711
	c2.023,5.485,6.18,8.622,8.457,10.546c3.243,2.739,15.87,10.4,18.109,17.843c0.354,1.178-7.627,3.233-8.331,15.298
	c-6.704-0.457-14.067-9.294-20.611-12.266c-5.254-2.386-10.557-8.948-16.086-9.35c-1.98-0.144-10.255,0.101-10.456,7.138
	c-0.051,1.792-0.905,3.619,4.022,8.948c2.591,2.803,4.868,4.227,10.255,7.239c5.721,3.199,5.232,2.845,10.657,6.435
	c13.07,8.646,10.365,6.077,17.647,11.722c12.875,9.981,38.839,30.503,48.881,8.296c2.065-4.565,1.494-3.666,4.985-7.917
	c2.59-3.154,7.951-5.458,10.409-8.65c5.28-6.857-2.311-15.823-6.744-22.871c-5.371-8.539-0.879-10.286-12.858-13.78
	c-3.14-0.916-8.753-0.365-10.013,2.784"/>
<path fill="#8E8E8E" d="M209.469,350.429c0,0,91.241,4.772,93.814,33.544c2.573,28.772,15.524-22.934,15.524-22.934l-76.023-36.023
	L209.469,350.429z"/>
<path fill="#020001" d="M113.021,161.252c0.241-0.06-8.108,5.942-2.195,13.317c7.401,9.232,16.935,18.856,20.704,24.963
	c0.904,1.464,1.948,3.375,3.907,4.256c8.943,4.023,33.284,9.509,34.919,18.494c0.726,3.992,9.778-0.306,9.711-0.206
	c-0.271,0.407-6.416,11.626-6.416,11.626s-37.466-21.601-39.434-19.706c-0.438,0.422-6.03,0.44-6.62-1.987
	c-1.357-5.585-11.132-13.178-18.089-22.285c-4.009-5.248-9.164-3.438-12.438-7.106c-2.625-2.94-10.246,3.798-10.246,3.798
	L113.021,161.252z"/>
<use xlink:href="#guitar3"  width="186" height="561.423" x="-93" y="-280.712" transform="matrix(0.6069 0.9008 0.9008 -0.6069 482.7139 222.4744)" overflow="visible"/>
<path d="M516.306,219.592c-2.53-6.878-0.816-1.974-3.674-9.71c-1.234-3.341-4.92-8.096-7.241-9.362
	c-6.643-3.623-12.519-6.496-14.958-5.62c-4.121,1.48-5.597,4.01-5.579,7.941c0.006,1.307,3.763,10.287,5.09,11.584
	c4.282,4.185,6.616,5.443,7.944,8.082c2.211,4.392,5.868,6.892,0.195,9.088c-4.406,2.224-7.598-7.504-12.452-12.804
	c-3.897-4.256-8.518-6.89-12.935-7.071c-1.984-0.081-5.861-0.053-7.495,4.95c-0.556,1.704-1.031,6.239,0.349,8.089
	c2.282,3.06,1.163,3.28,3.417,6.014c4.991,6.054,8.911,12.678,8.386,12.199c-2.584-2.358-15.434,3.058-10.95,11.107
	c7.928,14.232,18.916,19.913,27.363,21.314c11.502,1.907,14.607-3.038,19.485-5.579c3.62-1.885,6.08-2.101,9.593-4.073
	c7.547-4.236,13.392-7.964,14.925-16.148c0.639-3.411,4.188-6.826,5.951-14.064c2.399-9.851,3.039-14.218,0.94-19.364
	c-0.636-1.558,1.898-14.499,0.397-14.814c-1.679-0.352-16.862,7.154-18.336,10.588c-0.876,2.041,1.824,13.035,0.871,14.796
	c-4.06,7.505-10.843-4.17-11.174-7.232"/>
</svg>
