<?xml version="1.0" encoding="utf-8"?>
<!-- Generator: Adobe Illustrator 17.0.0, SVG Export Plug-In . SVG Version: 6.00 Build 0)  -->
<!DOCTYPE svg PUBLIC "-//W3C//DTD SVG 1.1//EN" "http://www.w3.org/Graphics/SVG/1.1/DTD/svg11.dtd">
<svg version="1.1" id="Layer_1" xmlns="http://www.w3.org/2000/svg" xmlns:xlink="http://www.w3.org/1999/xlink" x="0px" y="0px"
	 width="414.012px" height="434.882px" viewBox="0 0 414.012 434.882" enable-background="new 0 0 414.012 434.882"
	 xml:space="preserve">
<g>
	<g>
		<g>
			<path fill="#0A0A54" d="M49.669,239.018c103.546,42.79,207.092-32.03,310.638,11.503c12.396,69.09,24.792,138.18,37.187,207.27
				c-128.26-97.019-256.52-47.439-384.78-143.539C25.033,289.174,37.351,264.096,49.669,239.018z"/>
			<path fill="#8C2525" d="M370.857,309.32c-10.778-5.723-21.555-10.245-32.333-13.799c-0.708-4.548-1.417-9.096-2.125-13.644
				c10.607,3.219,21.213,7.39,31.82,12.744C369.099,299.52,369.978,304.421,370.857,309.32z"/>
			<path fill="#8C2525" d="M360.308,250.52c-103.872-43.669-207.744,31.759-311.615-11.91c9.934-19.963,19.868-39.927,29.803-59.89
				c84.003,0.669,168.007-94.979,252.01-94.31C340.439,139.78,350.373,195.15,360.308,250.52z"/>
			<path fill="#0A0A54" d="M68.229,245.479c-3.256-0.93-6.512-1.963-9.768-3.105c-1.648,3.768-3.296,7.536-4.944,11.304
				c3.366,1.373,6.733,2.633,10.099,3.787c0.769-1.998,1.538-3.995,2.307-5.993c3.311,1.042,6.623,1.98,9.934,2.821
				c1.428-4.216,2.855-8.431,4.283-12.647c-3.201-0.624-6.402-1.342-9.603-2.16C69.767,241.483,68.998,243.481,68.229,245.479z"/>
			<path fill="#0A0A54" d="M135.46,260.611c-3.311,0.05-6.623,0.048-9.934-0.014c-0.438,2.615-0.876,5.231-1.315,7.846
				c3.366,0.157,6.733,0.254,10.099,0.298c-0.383,2.71-0.766,5.42-1.149,8.13c3.079,0.124,6.159,0.204,9.238,0.247
				c0.32-2.678,0.639-5.356,0.959-8.035c0.332-2.779,0.663-5.557,0.995-8.336c0.349-2.924,0.698-5.848,1.047-8.772
				c-2.931,0.206-5.861,0.377-8.792,0.506C136.226,255.191,135.843,257.901,135.46,260.611z"/>
			<path fill="#0A0A54" d="M302.349,249.578c-2.98-0.282-5.96-0.505-8.94-0.674c0.987,8.296,1.973,16.591,2.96,24.887
				c3.079,0.345,6.159,0.745,9.238,1.207c-0.543-4.237-1.086-8.473-1.629-12.71c3.703,0.455,7.406,1,11.109,1.646
				c-1.207-8.696-2.414-17.392-3.621-26.087c-3.582-0.42-7.164-0.743-10.745-0.979C301.263,241.105,301.806,245.341,302.349,249.578
				z"/>
			<path fill="#DDDFE8" stroke="#686868" stroke-miterlimit="10" d="M77.617,247.543c-0.717,2.102-1.433,4.205-2.15,6.307
				c-3.309-0.846-6.617-1.788-9.926-2.835c-0.849,2.191-1.698,4.382-2.546,6.574c3.369,1.17,6.738,2.234,10.107,3.199
				c-0.717,2.102-1.433,4.205-2.15,6.307c3.767,1.181,7.533,2.241,11.3,3.19c2.033-6.882,4.067-13.764,6.1-20.646
				C84.774,249.049,81.196,248.354,77.617,247.543z"/>
			<path fill="#DDDFE8" stroke="#686868" stroke-miterlimit="10" d="M260.232,214.685c0.618,7.333,1.236,14.665,1.854,21.998
				c-2.928,0.222-5.856,0.48-8.784,0.767c0.276,3.777,0.551,7.554,0.827,11.331c6.617-0.456,13.234-0.763,19.851-0.862
				c-0.368-3.776-0.736-7.552-1.103-11.328c-0.751-7.712-1.502-15.424-2.253-23.135
				C267.159,213.808,263.695,214.221,260.232,214.685z"/>
			<path fill="#DDDFE8" stroke="#686868" stroke-miterlimit="10" d="M233.781,239.744c-0.149-3.238-0.298-6.476-0.446-9.713
				c-3.204,0.516-6.408,1.054-9.611,1.606c0.209,6.667,0.419,13.334,0.628,20.002c3.309-0.385,6.617-0.754,9.926-1.102
				c0.182,3.957,0.364,7.915,0.546,11.872c3.369-0.25,6.738-0.477,10.107-0.673c-0.463-7.742-0.926-15.484-1.389-23.227
				C240.288,238.893,237.034,239.308,233.781,239.744z"/>
			<path fill="#DDDFE8" stroke="#686868" stroke-miterlimit="10" d="M106.898,251.799c0.496-2.173,0.992-4.347,1.488-6.521
				c-2.883-0.127-5.767-0.312-8.65-0.561c-1.141,4.415-2.283,8.831-3.424,13.246c2.978,0.424,5.955,0.783,8.933,1.081
				c-0.606,2.656-1.213,5.313-1.819,7.97c3.369,0.441,6.738,0.806,10.107,1.103c1.042-5.279,2.083-10.558,3.125-15.838
				C113.404,252.188,110.151,252.03,106.898,251.799z"/>
			<path fill="#DDDFE8" stroke="#686868" stroke-miterlimit="10" d="M145.939,251.521c6.507-0.477,13.014-1.129,19.52-1.899
				c-0.463,6.258-0.926,12.516-1.389,18.773c-6.738,0.393-13.477,0.665-20.215,0.754
				C144.55,263.274,145.244,257.397,145.939,251.521z"/>
			<path fill="#DDDFE8" stroke="#686868" stroke-miterlimit="10" d="M98.113,250.992c0.541-2.091,1.081-4.183,1.622-6.274
				c6.087,0.526,12.174,0.767,18.262,0.774c0.496-2.514,0.992-5.028,1.488-7.542c-9.131,0.273-18.262,0.008-27.394-0.966
				c-0.661,2.236-1.321,4.473-1.982,6.709c-0.585,1.982-1.171,3.963-1.756,5.945C91.607,250.175,94.86,250.623,98.113,250.992z"/>
			<path fill="#DDDFE8" stroke="#686868" stroke-miterlimit="10" d="M328.766,286.793c0.661,4.457,1.323,8.914,1.984,13.371
				c3.156,0.935,6.313,1.947,9.469,3.042c-0.684-4.378-1.367-8.756-2.051-13.133c-0.738-4.729-1.477-9.458-2.215-14.187
				c-10.19-2.999-20.38-5.109-30.57-6.537c0.546,4.242,1.091,8.483,1.637,12.725C314.268,283.284,321.517,284.833,328.766,286.793z"
				/>
			<path fill="#DDDFE8" stroke="#686868" stroke-miterlimit="10" d="M165.459,249.622c-0.22,2.98-0.441,5.96-0.661,8.94
				c3.309-0.295,6.617-0.62,9.926-0.968c0.148-2.756,0.297-5.512,0.445-8.268c0.166-3.075,0.331-6.151,0.497-9.226
				c-9.611,1.548-19.223,2.902-28.834,3.865c-0.298,2.518-0.595,5.037-0.893,7.555C152.445,251.045,158.952,250.392,165.459,249.622
				z"/>
			<path fill="#8C2525" d="M99.56,288.596c3.018,0.616,6.035,1.175,9.053,1.682c1.496-7.527,2.993-15.054,4.489-22.581
				c-3.366-0.299-6.733-0.667-10.099-1.11c-1.108,4.82-2.216,9.64-3.324,14.46c-3.129-0.58-6.258-1.223-9.387-1.937
				c-0.604,2.319-1.207,4.638-1.811,6.956C92.174,287.001,95.867,287.842,99.56,288.596z"/>
			<path fill="#DDDFE8" stroke="#686868" stroke-miterlimit="10" d="M255.864,272.575c0.248,3.399,0.496,6.799,0.744,10.198
				c6.948,0.089,13.896,0.334,20.843,0.798c-0.347-3.565-0.694-7.13-1.042-10.696c-3.767-0.163-7.533-0.26-11.3-0.302
				c-0.325-3.859-0.65-7.718-0.976-11.578c-6.401,0.102-12.803,0.366-19.204,0.739c0.22,3.687,0.441,7.374,0.661,11.06
				C249.016,272.689,252.44,272.612,255.864,272.575z"/>
			<path fill="#DDDFE8" stroke="#686868" stroke-miterlimit="10" d="M326.354,214.415c-2.834-0.461-5.668-0.847-8.501-1.165
				c0.661,4.457,1.323,8.914,1.984,13.372c-3.524-0.504-7.048-0.904-10.573-1.208c0.541,3.909,1.081,7.817,1.622,11.726
				c3.579,0.406,7.157,0.908,10.736,1.517c0.661,4.457,1.323,8.914,1.984,13.371c2.978,0.593,5.955,1.259,8.933,2.003
				C330.478,240.825,328.416,227.62,326.354,214.415z"/>
			<path fill="#DDDFE8" stroke="#686868" stroke-miterlimit="10" d="M276.41,272.875c6.506,0.281,13.012,0.757,19.518,1.48
				c0.932,7.872,1.864,15.743,2.796,23.615c-6.705-1.076-13.41-1.896-20.115-2.515C277.876,287.928,277.143,280.402,276.41,272.875z
				"/>
			<path fill="#DDDFE8" stroke="#686868" stroke-miterlimit="10" d="M56.609,247.93c0.821-1.89,1.643-3.78,2.464-5.669
				c2.928,1.013,5.856,1.937,8.784,2.779c1.466-3.785,2.932-7.57,4.398-11.355c-2.834-0.65-5.668-1.38-8.501-2.196
				c-0.821,1.89-1.643,3.78-2.464,5.669c-3.204-1.022-6.408-2.151-9.611-3.395c-1.665,3.368-3.33,6.736-4.995,10.104
				C49.992,245.337,53.3,246.689,56.609,247.93z"/>
			<path fill="#8C2525" d="M204.012,244.64c6.512-0.996,13.025-1.993,19.537-2.932c0.107,3.505,0.215,7.009,0.322,10.514
				c-6.623,0.763-13.245,1.585-19.868,2.405C204.006,251.298,204.009,247.969,204.012,244.64z"/>
			<path fill="#8C2525" d="M224.193,262.736c3.366-0.294,6.733-0.572,10.099-0.829c-0.163-3.593-0.325-7.186-0.488-10.779
				c-3.311,0.345-6.623,0.712-9.934,1.094C223.979,255.726,224.086,259.231,224.193,262.736z"/>
			<path fill="#8C2525" d="M194.417,236.401c6.402-1.155,12.804-2.34,19.206-3.498c0.052,3.417,0.105,6.833,0.157,10.25
				c-6.512,0.982-13.025,1.993-19.537,2.972C194.301,242.884,194.359,239.643,194.417,236.401z"/>
			<path fill="#DDDFE8" stroke="#686868" stroke-miterlimit="10" d="M224.715,263.218c-0.121-3.86-0.243-7.72-0.364-11.58
				c-6.617,0.769-13.234,1.598-19.851,2.427c0-3.333,0-6.667,0-10c-3.253,0.502-6.507,1.004-9.76,1.499
				c-0.06,3.559-0.121,7.119-0.181,10.678c-0.055,3.256-0.111,6.513-0.166,9.769C204.5,265.081,214.607,264.081,224.715,263.218z"/>
			<path fill="#DDDFE8" stroke="#686868" stroke-miterlimit="10" d="M193.913,294.249c0.055-3.246,0.11-6.491,0.165-9.737
				c-6.948,0.287-13.896,0.543-20.843,0.705c0.149-2.762,0.298-5.524,0.446-8.287c-3.424,0.161-6.849,0.299-10.273,0.406
				c-0.216,2.922-0.432,5.844-0.649,8.767c-0.203,2.74-0.405,5.479-0.608,8.219C172.739,294.512,183.326,294.416,193.913,294.249z"
				/>
			<path fill="#DDDFE8" stroke="#686868" stroke-miterlimit="10" d="M184.285,266.913c-0.11,3.158-0.22,6.315-0.331,9.473
				c3.424-0.2,6.849-0.414,10.273-0.637c0.171-10.061,0.342-20.123,0.513-30.184c-3.253,0.495-6.507,0.982-9.76,1.455
				c-0.11,3.158-0.22,6.315-0.331,9.473c-3.309,0.385-6.617,0.754-9.926,1.102c-0.182,3.376-0.364,6.752-0.546,10.128
				C177.547,267.473,180.916,267.201,184.285,266.913z"/>
			<path fill="#8C2525" d="M316.173,271.761c-3.739-0.714-7.479-1.326-11.218-1.846c-1.683-13.134-3.366-26.267-5.049-39.401
				c3.551,0.181,7.103,0.448,10.654,0.812C312.431,244.804,314.302,258.282,316.173,271.761z"/>
			<path fill="#DDDFE8" stroke="#686868" stroke-miterlimit="10" d="M340.196,296.728c6.959,2.365,13.918,5.138,20.876,8.381
				c1.654,9.577,3.307,19.154,4.961,28.731c-7.179-3.706-14.358-6.926-21.538-9.725C343.063,314.986,341.63,305.857,340.196,296.728
				z"/>
			<path fill="#DDDFE8" stroke="#686868" stroke-miterlimit="10" d="M214.111,233.329c-0.056-3.472-0.112-6.944-0.168-10.416
				c-0.054-3.37-0.109-6.74-0.163-10.11c-3.403,0.824-6.806,1.657-10.209,2.489c-0.006,3.325-0.011,6.649-0.017,9.974
				c-6.297,1.337-12.595,2.672-18.892,3.947c-0.116,3.149-0.232,6.298-0.347,9.446C194.248,236.957,204.18,235.108,214.111,233.329z
				"/>
			<path fill="#DDDFE8" stroke="#686868" stroke-miterlimit="10" d="M136.178,252.097c3.253-0.143,6.507-0.337,9.76-0.575
				c-1.323,11.193-2.646,22.386-3.968,33.579c-3.474-0.13-6.948-0.308-10.422-0.54C133.092,273.739,134.635,262.918,136.178,252.097
				z"/>
			<path fill="#DDDFE8" stroke="#686868" stroke-miterlimit="10" d="M78.515,282.939c0.656-2.22,1.312-4.44,1.968-6.66
				c-3.821-1.053-7.643-2.218-11.464-3.507c0.645-1.892,1.29-3.784,1.935-5.676c-3.424-1.074-6.849-2.248-10.273-3.53
				c-0.694,1.793-1.389,3.586-2.083,5.379c-3.126-1.245-6.253-2.578-9.379-4.006c-0.821,1.89-1.643,3.78-2.464,5.669
				C57.341,275.713,67.928,279.752,78.515,282.939z"/>
			<path fill="#DDDFE8" stroke="#686868" stroke-miterlimit="10" d="M140.978,293.495c3.529,0.223,7.058,0.397,10.587,0.533
				c0.276-2.89,0.551-5.779,0.827-8.669c3.474,0.044,6.948,0.049,10.422,0.023c0.419-5.662,0.838-11.324,1.257-16.986
				c-3.369,0.197-6.738,0.363-10.107,0.491c-0.276,2.89-0.551,5.779-0.827,8.669c-3.424,0.037-6.849,0.036-10.273-0.011
				C142.235,282.862,141.606,288.178,140.978,293.495z"/>
			<path fill="#DDDFE8" stroke="#686868" stroke-miterlimit="10" d="M87.299,292.822c7.232,1.985,14.464,3.611,21.697,4.945
				c3.162,0.583,6.324,1.111,9.485,1.588c0.42-2.486,0.84-4.972,1.26-7.459c0.462-2.735,0.924-5.47,1.386-8.205
				c-3.474-0.35-6.948-0.762-10.422-1.245c-0.496,2.514-0.992,5.028-1.488,7.542c-6.705-1.103-13.41-2.464-20.115-4.138
				C88.501,288.175,87.9,290.498,87.299,292.822z"/>
			<path fill="#DDDFE8" stroke="#686868" stroke-miterlimit="10" d="M119.485,237.95c-0.496,2.514-0.992,5.028-1.488,7.542
				c3.204,0.004,6.408-0.058,9.611-0.177c0.882-5.221,1.764-10.442,2.646-15.664c-2.729,0.274-5.458,0.504-8.187,0.686
				c-6.242,0.417-12.485,0.581-18.727,0.436c-0.601,2.324-1.202,4.648-1.802,6.972C107.52,238.077,113.503,238.129,119.485,237.95z"
				/>
			<path fill="#8C2525" d="M326.371,273.966c-3.399-0.824-6.799-1.557-10.198-2.206c-0.664-4.783-1.328-9.565-1.992-14.348
				c3.339,0.536,6.678,1.154,10.017,1.862C324.922,264.172,325.647,269.069,326.371,273.966z"/>
			<path fill="#8C2525" d="M152.664,277.129c-3.422,0.038-6.843,0.037-10.265-0.01c0.333-2.794,0.667-5.587,1-8.381
				c3.366-0.045,6.733-0.135,10.099-0.264C153.221,271.358,152.942,274.243,152.664,277.129z"/>
			<path fill="#8C2525" d="M184.136,257.023c-2.98,0.341-5.96,0.669-8.94,0.98c0.163-3.074,0.325-6.147,0.488-9.221
				c2.931-0.391,5.861-0.799,8.792-1.219C184.362,250.717,184.249,253.87,184.136,257.023z"/>
			<path fill="#DDDFE8" stroke="#686868" stroke-miterlimit="10" d="M291.366,235.826c-0.441-3.729-0.883-7.457-1.324-11.186
				c3.204-0.009,6.408,0.046,9.611,0.172c1.037,8.059,2.074,16.118,3.11,24.177c-3.309-0.316-6.617-0.559-9.926-0.735
				c0.54,4.557,1.079,9.115,1.619,13.672c-3.032-0.255-6.064-0.455-9.097-0.606c-0.926-8.518-1.852-17.035-2.778-25.553
				C285.51,235.737,288.438,235.755,291.366,235.826z"/>
			<path fill="#8C2525" d="M134.31,268.741c-3.366-0.044-6.733-0.141-10.099-0.298c0.876-5.231,1.753-10.462,2.629-15.692
				c3.256-0.034,6.512-0.126,9.769-0.27C135.843,257.901,135.077,263.321,134.31,268.741z"/>
			<path fill="#DDDFE8" stroke="#686868" stroke-miterlimit="10" d="M214.607,264.119c0.055,3.421,0.11,6.842,0.165,10.263
				c6.849-0.445,13.697-0.86,20.546-1.181c0.149,3.238,0.298,6.475,0.446,9.713c3.474-0.081,6.948-0.138,10.422-0.165
				c-0.214-3.573-0.427-7.147-0.641-10.72c-0.205-3.431-0.41-6.863-0.616-10.294C234.822,262.325,224.715,263.188,214.607,264.119z"
				/>
			<rect x="224.421" y="252.652" fill="#8C2525" width="0" height="0"/>
		</g>
	</g>
	<line fill="none" stroke="#000000" x1="12.5" y1="30.566" x2="12.5" y2="66.566"/>
	<line fill="none" stroke="#000000" x1="-41" y1="84.066" x2="-5" y2="84.066"/>
	<line fill="none" stroke="#000000" x1="-41" y1="458.066" x2="-5" y2="458.066"/>
	<line fill="none" stroke="#000000" x1="12.5" y1="511.566" x2="12.5" y2="475.566"/>
	<line fill="none" stroke="#000000" x1="397.5" y1="30.566" x2="397.5" y2="66.566"/>
	<line fill="none" stroke="#000000" x1="451" y1="84.066" x2="415" y2="84.066"/>
	<line fill="none" stroke="#000000" x1="451" y1="458.066" x2="415" y2="458.066"/>
	<line fill="none" stroke="#000000" x1="397.5" y1="511.566" x2="397.5" y2="475.566"/>
</g>
<g>
	<path fill="#FFFFFF" d="M70.813,235.088c-0.84,0.103-2.129,0.561-2.855,0.357c-3.731,0.376-38.206,24.255-37.568,26.72
		c0.155,0.601,2.762,2.592,0.918,4.201c-2.053,1.791-8.125,4.683-9.115,2.751c-1.811-3.532-5.429-5.32-4.997-3.796
		c0.132,0.465-0.905-2.841-4.191,1.54c-1.335,1.78-24.627,40.381-20.465,43.5c6.486,4.861,40.413,36.024,53.988,33.354
		c17.5-3.442,22.522-39.133,21.498-40.655c-1.13-1.68-3.819-3.491-3.743-5.275c0.412-9.693,6.907-32.022,7.006-34.099
		c0.086-1.809,0.248-3.552,0.571-5.321c0.552-3.023,1.401-5.841,1.739-8.943c0.251-2.304,1.402-4.922,0.193-7.142
		C73.119,241.048,72.23,234.914,70.813,235.088z"/>
	<path fill="#FFFFFF" d="M67.956,241.267c0.035,0.016,0.078,0.018,0.116,0.029c0.06-0.006,0.112-0.026,0.174-0.029H67.956z"/>
	<path fill="#FFFFFF" d="M111.195,159.801c-1.033-0.165-57.427-29.454-39.996,8.251c1.024,2.215-12.821,0.4-15.251,0.182
		c-5.19-0.466,0.676,8.702-4.539,8.715c-2.083,0.005,1.486,2.929-0.545,3.631c-1.776,0.614-3.027,9.089-4.539,10.167
		c-2.769,1.975-0.253,4.785-3.268,6.173c-2.958,1.362-2.938,3.207-1.452,5.81c1.153,2.02-5.913,3.079-5.084,5.265
		c0.544,1.434-13.178,12.02-12.346,13.254c1.134,1.683-7.086,22.489-5.81,23.966c1.518,1.757,40.924-24.391,43.241-25.484
		c1.242-0.585,1.998-1.576,3.139-2.292c0.863-0.541,2.1-0.6,2.952-1.029c1.95-0.982,3.596-2.66,5.568-3.616
		c2.423-1.174,4.876-1.208,7.085-2.928c2.069-1.61,3.691-3.691,5.47-5.595c1.257-1.346,2.765-2.118,4.054-3.354
		c1.763-1.69,10.094-10.486,11.352-12.411C101.919,187.45,113.344,155.979,111.195,159.801z"/>
	<path fill="#FFFFFF" d="M159.889,377.993c-0.211-4.736,240.363,85.705,239.657,81.027c-0.713-4.72-37.548-225.774-39.618-230.185
		c-0.506-1.079-24.509,0.953-25.514,0.297c-2.685-1.753-6.082,0.968-8.201,2.647c-2.554,2.024-4.869,3.566-6.297,6.581
		c-1.432,3.024-0.178,6.767-0.178,9.956c0,3.285,0.3,6.247,1.408,9.308c1.004,2.774,1.417,5.535,1.924,8.406
		c0.257,1.455,2.165,4.897,3.02,6.137c0.523,0.758,4.141,25.995,4.201,24.322l-1.106,12.161c-0.212,1.45-1.982,2.223-1.321,3.252
		c2.026,3.153-8.454,5.273-7.043,8.608c1.414,3.338,3.684,13.173,3.913,10.843c0.128-1.306-4.361,4.086-5.646,13.972
		C315.852,370.237,160.036,381.286,159.889,377.993z"/>
	<path fill="#FFFFFF" d="M333.646,215.738c1.836-0.602,9.059-2.534,9.559-4.224c0.36-1.215-1.677-5.212-1.941-6.57
		c-0.226-1.161,6.599-3.119,5.823-4.032c-1.565-1.842,0.217-1.598-1.493-3.285c-0.262-0.258,9.68-3.149,8.81-7.615
		c-5.189-26.62-21.056-125.237-21.462-124.954c-0.502,0.35-68.849,11.093-69.236,12.093l38.63,123.07
		c13.343,1.763,2.447-4.024,4.636-0.085c0.894,1.608,4.497,4.768,5.522,6.186c1.737,2.403,3.648,4.336,5.908,6.176
		C322.151,215.552,328.759,217.339,333.646,215.738z"/>
</g>
<path d="M303.116,201.082c-10.062-45.355-19.387-78.003-32.048-105.698c-28.134-61.539-60.915-92.748-61.212-93.058l-0.457-0.478
	l-0.395,0.53C140.349,94.476,114.6,147.37,97.914,193.843C147.676,184.648,230.281,184.875,303.116,201.082z"/>
<path fill="none" d="M35.062,303.956c0.591-3.903,7.263-6.742,10.489-7.783c2.097-0.677,7.133-1.231,8.274-2.931
	c0.751,3.802,6.958,9.062,9.628,11.941c2.263,2.441,4.502,4.345,6.5,6.989c-0.082-0.187-0.295-0.551-0.347-0.739
	c0.421,7.629-1.61,15.894-2.144,23.38c-0.239,3.357,0,6.815,0,10.183c0,4.076,1.196,8.514,0.886,12.289
	c-8.624,1.778-15.149,6.513-24.305,3.157c-6.518-2.39-12.484-5.026-18.575-8.364c-0.237,0.001-0.234,0.018,0.011,0.053
	c1.069-2.735-11.458-15.716-1.239-15.713c3.662,0.001,7.191,3.513,10.813,3.966c5.63,0.704,4.603-2.446,6.156-7.18
	c1.346-4.101,2.202-6.276,0.1-10.424c-1.196-2.36-1.922-3.787-1.927-6.481c-0.005-2.425,1.897-4.836,1.789-6.865
	c-0.129-2.42-3.799-5.593-6.109-6.095"/>
<path d="M359.205,121.312c-2.21-2.87,2.828-17.256,6.372-23.488c2.621-4.608,7.596-8.228,9.637-12.712
	c4.931-10.831-1.306-21.562-12.403-22.244c-6.799-0.418-10.14-0.525-13.071,5.561c-2.268,4.71-4.429,11.131-5.489,16.2
	c-1.46,6.978-2.53,22.511,0.513,28.567c0.578-4.532-13.391-3.841-16.614-2.33c-6.736,3.158-6.345,10.307-3.916,15.574
	c1.979,4.292,4.066,0.854,2.157,6.064c-1.162,3.17-4.495,4.511-5.732,7.495c-2.481,5.987,1.079,12.417,6.255,15.836
	c0.802-1.489,1.389-2.103-0.013-2.228c-0.267,4.964-3.951,8.558-2.514,14.166c1.667,6.504,8.553,8.931,15.405,9.511
	c8.356,0.707,20.193-2.839,23.937-10.428c2.555-5.179-0.95-9.484-0.173-14.456c0.629-4.022,3.803-6.322,4.352-11.147
	c0.644-5.654-1.508-10.373-2.487-15.588c-0.901-4.8-1.073-11.403-6.217-13.678"/>
<path opacity="0.5" fill="#171735" d="M116.505,192.263c6.503,14.233,9.251,27.066,19.761,36.327
	c41.967,36.981,123.73,27.534,132.931-34.579"/>
<ellipse cx="191.562" cy="194.001" rx="70.607" ry="46.221"/>
<ellipse fill="#E53017" cx="190.219" cy="192.384" rx="66.264" ry="43.603"/>
<g>
	<g>
		<path d="M80.285-46.567h0.086H80.285z"/>
		<path d="M46.71-45.176"/>
	</g>
</g>
<path fill="#C1C1C1" d="M314.508,324.616c-5.999-4.885-7.932-7.487-13.586-10.666c-40.765-22.922-66.43-11.258-70.989-9.132
	c3.053-0.518,7.011-0.733,11.765-1.522c29.22-4.848,50.743,14.549,63.354,27.725c4.792,10.57,5.305,38.392,3.976,46.625
	c-3.547,21.971-2.697,32.306-11.641,33.978c-26.588,4.971-46.729-22.135-40.335-13.871c2.135,2.76,6.093,4.937,7.888,6.349
	c9.576,7.531,11.798,7.383,14.04,8.215c1.883,0.698,13.707,2.646,16.583,1.707c3.629-1.185,8.063-1.316,14.263-9.367
	C320.34,391.003,314.508,324.616,314.508,324.616z"/>
<ellipse opacity="0.6" fill="#F9F7F7" cx="180.546" cy="169.082" rx="32.288" ry="18.064"/>
<ellipse transform="matrix(0.9791 -0.2035 0.2035 0.9791 -39.0956 50.5912)" opacity="0.6" fill="#F9F7F7" cx="226.406" cy="215.363" rx="13.824" ry="8.482"/>
<ellipse opacity="0.5" fill="#F9F7F7" cx="173.928" cy="161.691" rx="13.001" ry="7.806"/>
<path fill="#8C3128" d="M230.987,215.477c-6.712,4.738-13.906,6.236-18.659,8.199c-12.808,5.29-21.75,5.693-36.046,7.068
	c-6.236,0.6-14.81-1.066-20.8-1.228c10.101,4.101,21.997,6.472,34.737,6.472c36.596,0,66.264-19.522,66.264-43.603
	c0-6.391-2.107-12.455-5.861-17.924c-0.982,6.466,1.8,16.747-2.814,24.478C243.906,205.477,238.196,210.388,230.987,215.477z"/>
<path fill="#8C2525" d="M73.93,234.688c-0.694,0.447-1.404,0.355-2.139,0.016c-0.738-0.341-0.976-0.468-1.85-0.469
	c-1.017-0.001-1.911,0.204-2.873,0.498c-0.243,0.074-1.677,0.578-1.747,0.295c-0.048-0.194,0.421-0.409,0.528-0.553
	c0.148-0.199,0.218-0.486,0.213-0.75c-0.011-0.576-0.432-1.016-0.736-1.459c-0.253-0.368-1.178-0.859-1.067-1.33
	c0.132-0.563,1.551-0.749,1.999-0.792c1.804-0.175,3.384,0.098,4.996,0.936c1.138,0.591,2.251,1.027,2.849,2.23
	c0.172,0.345,0.51,1.332-0.172,1.322"/>
<path fill="#030355" d="M13.745,259.451c-0.379-1.076,0.049-2.94-0.492-3.697c-0.379-0.531,2.534-3.75,3.053-4.18
	c2.027-1.68,3.993-3.442,5.998-5.15c1.33-1.133,2.031-1.303,3.236-2.806c1.144-1.427,2.792-2.323,4.305-3.382
	c2.946-2.062,6.303-3.863,9.106-5.961c1.203-0.901,2.194-2.113,3.494-2.921c1.192-0.74,2.625-1.234,3.854-1.901
	c3.898-1.719,11.009-8.547,9.283-5.033c-1.547,3.15,12.142,6.314,10.769,9.527c-1.068,2.497-29.446,20.455-31.004,22.698
	c-0.689,0.993-1.665,1.484-2.305,2.498c-0.547,0.867-0.822,2.56-2.099,2.482c-0.411,1.189,0.329,1.653,0.365,2.591
	c0.039,1.004-0.778,1.695-1.619,2.455c-1.493,1.349-3.864,2.779-5.994,2.465c-1.534-0.226-1.242-1.057-1.987-2.149
	c-0.785-1.15-1.736-1.396-3.085-1.574c-0.99-0.131-2.004,0.002-2.806-0.578C14.399,263.806,14.277,260.96,13.745,259.451z"/>
<path fill="none" d="M99.335,174.662c-9.712-12.607-30.951-10.048-41.528-0.652c-2.916,2.59-5.67,5.742-8.161,8.738
	c-4.941,5.943-9.425,13.672-4.952,21.203c7.714,12.988,32.021,7.544,41.733,1.449C94.741,200.181,106.955,184.555,99.335,174.662z"
	/>
<polygon fill="#8C2525" points="74.349,253.07 75.118,253.294 77.298,247.012 78.516,247.204 80.15,241.659 74.509,240.248 
	73.772,247.525 73.611,252.685 "/>
<path fill="none" stroke="#000000" stroke-width="2" stroke-miterlimit="10" d="M359.937,212.311
	c0.248-1.078,0.528-2.088,0.978-3.216c1.162-2.913,2.108-7.99-1.594-9.359c-1.577-0.583-2.642-0.224-3.226-2.12
	c-0.375-1.215-0.085-2.763-0.156-4.035c-4.325-0.394-7.383,2.702-10.908,4.374c0.612,0.778,2.711,2.636,1.686,4
	c-0.728,0.969-3.206,0.99-4.181,2.057c-2.399,2.625,0.607,5.017,0.576,7.304c-2.021,2.802-5.881,5.129-14.359,5.058
	c-11.562-0.096-20.634-14.808-20.634-14.808s-18.588-4.51-46.695-8.614c0.041,0.616,0.075,1.233,0.075,1.855
	c0,24.203-31.426,43.823-70.191,43.823s-68.884-19.333-70.191-43.823c-0.085-1.595-0.249-1.471,0.018-3.025
	c-4.825,0.706-16.276,0.2-23.012,2.165c-1.955,0.571-3.513,1.35-4.397,2.427c-0.26,0.318-0.519,0.629-0.777,0.935
	c-11.312,13.425-20.247,15.852-40.214,28.077c-33.089,20.258-41.386,28.891-39.519,34.037c0,0,0.475,2.297,0.735,3.394
	c0.391,1.652,1.395,2.444,3.132,2.343c0.507-0.03,1.227-0.516,1.709-0.444c0.561,0.085,1.233,1.056,1.6,1.437
	c0.975,1.012,1.735,2.046,2.374,3.312c0.726,0.133,1.701-0.259,2.395-0.459c1.243-0.359,2.679-0.71,3.786-1.413
	c1.03-0.654,1.79-1.77,2.684-2.591c-0.593-0.957-0.944-2.138-0.853-3.251c1.355,0.111,2.043-1.261,2.057-2.435
	c0.001-0.117-0.016-0.227-0.032-0.336c3.51-2.04,8.858-5.43,14.422-10.641c8.855-8.294,22.349-14.838,23.557-13.789
	c6.59,5.722,2.35,19.111,0.59,31.522c-2.052,14.473-10.709,28.871-5.059,34.979c27.574,29.812,112.127,21.567,120.498,19.892
	c23.93-4.786,39.175-22.042,68.64-21.034c10.116,0.346,21.907,2.844,36.302,8.739c28.054,11.488,29.698,28.386,29.698,28.386
	s2.494-3.819,2.798-5.249c0.509-2.396-4.818-9.478-3.119-13.724c0.256-0.639,5.869-2.332,6.842-7.195
	c2.07-10.35,3.03-19.728-2.173-37.892c-4.105-14.333-9.387-33.975-4.265-38.244c5.122-4.268,9.75-5.923,16.247-6.168
	c7.973-0.301,9.477,1.203,17.451,0.451C366.037,227.992,361.895,219.563,359.937,212.311z"/>
<path d="M96.343,194.037c-0.492,0.024-0.91,0.021-1.362-0.162c3.007-0.776,3.702-5.285,5.897-6.859
	c1.562-1.12,5.044-0.508,6.824-0.341c2.52,0.236,5.54,0.412,8.051,0.012c1.851-0.295,3.192-0.678,5.019,0.099
	c1.391,0.591,2.399,2.572,1.417,3.847c-1.126,1.463-4.898,0.583-6.392,0.733c-1.74,0.174-3.443,0.496-5.196,0.669
	c-2.479,0.245-5.056,0.685-7.56,1.069c-1.586,0.243-5.251-0.066-6.383,1.116c-0.241-0.111-0.348-0.295-0.47-0.497"/>
<path d="M32.483,307.314c-0.532-5.022,19.604-12.265,23.577-14.056c3.094-1.394,8.866,13.026,14.596,15.783
	c-0.159-0.051-0.319-0.046-0.479,0.014c-0.569,8.343-2.006,15.897-2.006,24.209c0,3.946,0.544,7.397,0,11.173
	c-0.568,3.939-0.801,7.242-0.789,11.173c-8.879,0.752-19.361,2.97-28.358,1.213c-3.579-0.699-10.739-5.078-12.01-8.369
	c-4.18-10.821,8.49-9.488,15.3-9.722c0.181-2.391,1.687-4.447,2.071-6.975c0.359-2.365,0.461-4.917,0.335-7.358
	c-0.234-4.542-2.623-7.763-2.722-12.312c-2.45-0.514-7.464-3.188-9.538-4.756"/>
<path d="M360.597,115.38c-0.41-0.399-0.481-0.887-1.116-1.115c-0.42-0.151-0.998-0.219-1.439-0.072
	c-0.666,0.222-0.886,1.103-1.038,1.747c-0.33,1.4-0.232,2.811-0.044,4.215c0.151,1.131,0.545,2.291,1.794,2.604
	c1.008,0.253,1.892-0.306,2.145-1.292c0.253-0.987-0.147-1.925-0.208-2.9c-0.046-0.736-0.033-1.524,0.038-2.25
	c0.046-0.471,0.092-0.7-0.181-1.031"/>
<path fill="#CCCCCC" stroke="#000000" stroke-width="5" stroke-miterlimit="10" d="M318.51,376.255
	c0.595-16.362,0.639-32.167,0.218-47.419c-5.938-8.508-18.755-17.246-34.944-22.477c-9.283-3-20.46-5.911-30.788-5.437
	c-21.023,0.964-26.267,4.809-38.319,11.075c-7.508,3.903-18.46,9.75-36.426,11.438c-26.542,2.495-53.8,1.889-82.178-5.807
	c-13.344-3.619-20.644-8.085-24.198-10.863c-1.439,10.86-2.362,22.321-2.634,34.698c-0.451,20.557-0.875,38.137,7.741,62.948
	c2.441,7.029,10.884,14.136,19.382,15.23c1.082,0.139,8.923,0.779,10.929,0.386c16.967-3.326,39.638-29.883,56.671-35.491
	c19.536-6.432,47.139-8.198,66.737,0c21.123,8.836,33.599,25.223,45.09,29.475c12.19,4.51,21.6,2.595,21.625,2.595
	c2.316,0,14.67-4.114,17.383-15.107C317.523,390.462,318.499,376.412,318.51,376.255z"/>
<path fill="#030355" d="M327.334,217.189c-0.046,0.792,1.794,11.101,1.794,11.879c0,0.123,0.368-0.327,2.302-0.412
	c1.135-1.674,18.232-0.016,20.541,0.057c2.503,0.079,7.504-0.987,8.962-3.185c1.696-2.557,0.459-6.675-0.318-9.182
	c-0.687-2.215-1.821-3.533-0.835-5.653c0.9-1.935,1.259-4.102,1.58-6.184c0.379-2.455-0.853-4.356-3.041-5.432
	c-2.134-1.049-2.281-2.714-2.147-5.142c-3.441-0.193-7.009,0.843-9.337,3.148c-1.572,1.557,0.75,2.297-0.165,4.254
	c-0.683,1.462-3.512,1.461-4.433,2.858c-0.801,1.216-0.664,3.383-0.133,4.691c0.828,2.041,2.119,2.861-0.005,4.323
	c-3.129,2.155-1.725,1.413-5.215,2.526c-0.473,0.151-6.382,0.811-6.833,0.964"/>
<path d="M343.972,173.383c2.164-0.99,4.672-1.28,7.029-0.853c1.845,0.334,2.026,0.508,1.757,2.225
	c-0.185,1.182-0.386,2.178-0.386,3.429c0,5.073,0.511,10.029,1.526,14.889c-2.415,0.06-5.728,1.701-7.672,3.227
	c-0.237-4.51,0.965-10.064-0.85-14.174c-1.012-2.293-2.482-2.809-4.328-4.333c-2.771-2.287,1.042-3.621,2.923-4.582"/>
<path d="M25.096,269.389c2.382-1.143,4.087-3.546,6.66-4.231c-0.252,2.881,3.173,6.942,4.809,9.198
	c2.525,3.483,4.282,7.36,6.828,10.976c1.619,2.3,3.062,5.189,4.976,7.208c0.607,0.64,1.126,1.039,1.929,1.364
	c0.642,0.26,1.954,0.105,2.442,0.549c1.582,1.44-4.167,5.743-5.407,6.441c-1.837,1.034-4.226,1.44-6.463,1.402
	c-0.432-0.007-0.872,0.184-1.359,0.154c0.198-1.324,0.95-2.782,1.062-4.14c0.138-1.678-0.951-3.291-1.451-4.954
	c-0.995-3.31-2.793-6.042-4.768-8.878c-2.058-2.955-3.435-6.876-5.995-9.442c-1.51-1.513-6.416-4.104-2.233-5.992"/>
<polygon fill="#030355" points="311.449,237.696 318.65,238.655 318.576,239.196 311.516,238.235 "/>
<polyline fill="#686868" points="309.533,231.273 309.846,226.068 311.449,237.696 310.394,237.535 "/>
<polygon fill="#686868" points="136.601,252.465 134.053,270.031 133.226,269.135 135.706,251.776 "/>
<polyline fill="#686868" points="113.909,268.655 102.737,267.67 103.018,266.53 113.925,267.501 "/>
<path fill="#686868" d="M304.954,269.939c0,0,18.964,3.026,19.972,3.78c0.107,0.08-0.331-1.217-0.331-1.217l-19.766-3.516
	L304.954,269.939z"/>
<rect y="1.566" fill="#FFFFFF" width="30" height="84"/>
<rect x="389" y="7.566" fill="#FFFFFF" width="24" height="79"/>
<path fill="#AAAAAA" d="M316.25,329.564c0,0,2.338,64.69-6.129,76.235c-8.467,11.545-10.754-71.249-16.427-80.646
	c-1.88-3.114-10.637-7.623-17.551-11.346c-9.961-5.364-22.86-10.425-22.86-10.425s2.723-0.171,7.201,0.232
	c9.064,0.815,25.361,3.74,41.118,13.512C307.306,320.664,310.985,323.253,316.25,329.564z"/>
</svg>
