<?xml version="1.0" encoding="utf-8"?>
<!-- Generator: Adobe Illustrator 17.0.0, SVG Export Plug-In . SVG Version: 6.00 Build 0)  -->
<!DOCTYPE svg PUBLIC "-//W3C//DTD SVG 1.1//EN" "http://www.w3.org/Graphics/SVG/1.1/DTD/svg11.dtd">
<svg version="1.1" id="Layer_1" xmlns="http://www.w3.org/2000/svg" xmlns:xlink="http://www.w3.org/1999/xlink" x="0px" y="0px"
	 width="414.012px" height="434.882px" viewBox="0 0 414.012 434.882" enable-background="new 0 0 414.012 434.882"
	 xml:space="preserve">
<path fill="#E5E5E5" stroke="#000000" stroke-width="7" stroke-miterlimit="10" d="M294.434,102.595
	c-27.57-61.539-56.649-92.958-56.94-93.269l-0.448-0.478l-0.387,0.53c-75.241,102.997-97.657,160.403-114.169,210.375l-1.246,3.769
	c-13.368,40.417-24.914,75.323-26.004,124.941c-0.451,20.557-0.875,38.137,7.741,62.948c2.441,7.029,10.884,14.136,19.382,15.23
	c1.082,0.139,8.923,0.779,10.929,0.386c16.967-3.326,39.638-29.883,56.671-35.491c19.536-6.432,47.139-8.198,66.737,0
	c21.123,8.836,33.599,25.223,45.09,29.475c12.19,4.51,21.6,2.595,21.625,2.595c2.316,0,14.67-4.114,17.383-15.107
	c2.723-11.035,3.699-25.084,3.71-25.242C349.204,254.146,319.87,159.369,294.434,102.595z"/>
<path d="M331.282,212.408c-10.062-45.355-23.66-82.118-36.322-109.813c-28.134-61.539-57.808-92.958-58.105-93.269l-0.457-0.478
	l-0.395,0.53c-68.655,92.098-94.209,147.742-110.895,194.214C174.871,194.397,258.447,196.202,331.282,212.408z"/>
<path d="M127.089,195.974c0,0-5.707,15.361-11.77,17.861c-6.063,2.501-7.133,6.073-8.916,8.931
	c-0.543,0.871-0.988,2.306-1.322,3.951c-0.763,3.753-0.957,8.6-0.461,10.338c0.713,2.501,3.21,12.503,4.28,13.932
	s1.07,1.429,1.07,1.429"/>
<path d="M116.272,219.463c0-0.154,0.007-0.305,0.009-0.459c-17.739,10.811-42.997,25.934-50.918,29.309
	c-12.633,5.383-10.265,3.66-17.979,9.304c-7.235,5.294-6.024,4.888-6.024,9.292s19.443,17.044,23.521,31.911
	c4.596,16.755,1.7,9.235,1.7,9.235l8.277-3.088l4.292-2.85l-4.599-7.126l-8.354-13.104l-7.492-7.851c0,0-4.775-5.279-3.549-8.604
	s8.792-8.107,10.325-8.819c1.533-0.713,12.976-7.887,16.348-9.787c3.372-1.9,28.108-19.628,30.867-22.478
	c0.209-0.216,3.734,0.823,4.066,0.552C116.445,223.153,116.272,221.335,116.272,219.463z"/>
<path fill="none" d="M62.062,310.956c0.591-3.903,7.263-6.742,10.489-7.783c2.097-0.677,7.133-1.231,8.274-2.931
	c0.751,3.802,6.958,9.062,9.628,11.941c2.263,2.441,4.502,4.345,6.5,6.989c-0.082-0.187-0.295-0.551-0.347-0.739
	c0.421,7.629-1.61,15.894-2.144,23.38c-0.239,3.357,0,6.815,0,10.183c0,4.076,1.196,8.514,0.886,12.289
	c-8.624,1.778-15.149,6.513-24.305,3.157c-6.518-2.39-12.484-5.026-18.575-8.364c-0.237,0.001-0.234,0.018,0.011,0.053
	c1.069-2.735-11.458-15.716-1.239-15.713c3.662,0.001,7.191,3.513,10.813,3.966c5.63,0.704,4.603-2.446,6.156-7.18
	c1.346-4.101,2.202-6.276,0.1-10.424c-1.196-2.36-1.922-3.787-1.927-6.481c-0.005-2.425,1.897-4.836,1.789-6.865
	c-0.129-2.42-3.799-5.593-6.109-6.095"/>
<path d="M59.483,314.314c-0.532-5.022,19.604-12.265,23.577-14.056c3.094-1.394,8.866,13.026,14.596,15.783
	c-0.159-0.051-0.319-0.046-0.479,0.014c-0.569,8.343-2.006,15.897-2.006,24.209c0,3.946,0.544,7.397,0,11.173
	c-0.568,3.939-0.801,7.242-0.789,11.173c-8.879,0.752-19.361,2.97-28.358,1.213c-3.579-0.699-10.739-5.078-12.01-8.369
	c-4.18-10.821,8.49-9.488,15.3-9.722c0.181-2.391,1.687-4.447,2.071-6.975c0.359-2.365,0.461-4.917,0.335-7.358
	c-0.234-4.542-2.623-7.763-2.722-12.312c-2.45-0.514-7.464-3.188-9.538-4.756"/>
<path d="M341.642,266.826c0,0-1.88-16.278,2.39-21.256c4.27-4.978,3.604-8.647,3.897-12.003c0.089-1.023-0.165-2.503-0.613-4.121
	c-1.021-3.691-3.047-8.098-4.277-9.423c-1.77-1.905-8.531-9.688-10.132-10.476c-1.602-0.788-1.602-0.788-1.602-0.788"/>
<path d="M386.205,128.312c-1.044-6.953,2.828-17.256,6.372-23.488c2.621-4.608,7.596-8.228,9.637-12.712
	c4.931-10.831-1.306-21.562-12.403-22.244c-6.799-0.418-10.14-0.525-13.071,5.561c-2.268,4.71-4.429,11.131-5.489,16.2
	c-1.46,6.978-2.53,22.511,0.513,28.567c0.578-4.532-13.391-3.841-16.614-2.33c-6.736,3.158-6.345,10.307-3.916,15.574
	c1.979,4.292,4.066,0.854,2.157,6.064c-1.162,3.17-4.495,4.511-5.732,7.495c-2.481,5.987,0.447,12.085,5.623,15.504
	c0.802-1.489-0.129,0.365,0.618-1.896c-0.267,4.964-3.951,8.558-2.514,14.166c1.667,6.504,8.553,8.931,15.405,9.511
	c8.356,0.707,20.193-2.839,23.937-10.428c2.555-5.179-0.95-9.484-0.173-14.456c0.629-4.022,3.803-6.322,4.352-11.147
	c0.644-5.654-1.508-10.373-2.487-15.588c-0.901-4.8-1.073-11.403-6.217-13.678"/>
<path d="M370.771,177.857c-2.664-0.335-1.48,5.814-0.504,10.356c1.031,4.801,2.973,9.458,4.121,14.338
	c1.229,5.22,2.92,20.268-2.274,23.391c-5.924,3.562-18.161,1.116-25.02,1.116c-3.028,0-14.004-0.581-13.456,4.887
	c0.43,4.289,10.395,4.757,13.451,5.066c6.737,0.68,13.768-1.682,20.664-1.683c3.267,0,13.359,1.674,15.449-1.632
	c1.351-2.137,0.281-11.572,0.003-13.726c-1.146-8.89-3.469-17.761-4.084-26.723c-0.44-6.405,5.681-18.134-7.11-15.388"/>
<path fill="#0A0A54" d="M386.937,220.311c0.248-1.078,0.528-2.088,0.978-3.216c1.162-2.913,2.108-7.99-1.594-9.359
	c-1.577-0.583-2.642-0.224-3.226-2.12c-0.375-1.215-0.085-2.763-0.156-4.035c-4.325-0.394-7.383,2.702-10.908,4.374
	c0.612,0.778,2.711,2.636,1.686,4c-0.728,0.969-3.206,0.99-4.181,2.057c-2.399,2.625,0.607,5.017,0.576,7.304
	c-2.021,2.802-5.837,5.075-14.315,5.004c-11.562-0.096-20.678-14.754-20.678-14.754s-18.588-4.51-46.695-8.614
	c0.041,0.616,0.075,1.233,0.075,1.855c0,24.203-31.426,43.823-70.191,43.823s-68.884-19.333-70.191-43.823
	c-0.085-1.595-0.249-1.471,0.018-3.025c-4.825,0.706-16.276,0.2-23.012,2.165c-1.955,0.571-3.513,1.35-4.397,2.427
	c-0.26,0.318-0.519,0.629-0.777,0.935c-11.312,13.425-20.247,15.852-40.214,28.077c-33.089,20.258-41.386,28.891-39.519,34.037
	c0,0,0.475,2.297,0.735,3.394c0.391,1.652,1.395,2.444,3.132,2.343c0.507-0.03,1.227-0.516,1.709-0.444
	c0.561,0.085,1.233,1.056,1.6,1.437c0.975,1.012,1.735,2.046,2.374,3.312c0.726,0.133,1.701-0.259,2.395-0.459
	c1.243-0.359,2.679-0.71,3.786-1.413c1.03-0.654,1.79-1.77,2.684-2.591c-0.593-0.957-0.944-2.138-0.853-3.251
	c1.355,0.111,2.043-1.261,2.057-2.435c0.001-0.117-0.016-0.227-0.032-0.336c3.51-2.04,8.858-5.43,14.422-10.641
	c8.855-8.294,22.349-14.838,23.557-13.789c6.59,5.722,2.35,19.111,0.59,31.522c-2.052,14.473-10.709,28.871-5.059,34.979
	c27.574,29.812,112.127,21.567,120.498,19.892c23.93-4.786,39.175-22.042,68.64-21.034c10.116,0.346,21.907,2.844,36.302,8.739
	c28.054,11.488,29.698,28.386,29.698,28.386s2.494-3.819,2.798-5.249c0.509-2.396-4.818-9.478-3.119-13.724
	c0.256-0.639,5.869-2.332,6.842-7.195c2.07-10.35,3.03-19.728-2.173-37.892c-4.105-14.333-9.387-33.975-4.265-38.244
	c5.122-4.268,9.75-5.923,16.247-6.168c7.973-0.301,9.477,1.203,17.451,0.451C393.037,235.992,388.895,227.563,386.937,220.311z"/>
<g display="none">
	<g display="inline">
		<path fill="#8C2525" d="M116.711,196.876c-3.76,0.251-7.52,0.525-11.279,0.82c-0.256,10.361-0.513,20.721-0.769,31.082
			c3.239-0.346,6.478-0.675,9.719-0.988c0.159-6.846,0.319-13.691,0.478-20.537c3.229-0.251,6.458-0.487,9.688-0.705
			c0.074-3.392,0.147-6.784,0.221-10.176C122.083,196.529,119.397,196.697,116.711,196.876z"/>
		<path fill="#8C2525" d="M299.341,227.643c-0.106-2.856-0.212-5.712-0.319-8.567c-3.221-0.336-6.443-0.656-9.666-0.96
			c0.186,5.769,0.371,11.539,0.557,17.308c3.25,0.246,6.499,0.508,9.746,0.786c0.106,2.856,0.212,5.712,0.319,8.567
			c3.261,0.25,6.522,0.516,9.781,0.798c-0.24-5.654-0.48-11.308-0.72-16.962C305.808,228.274,302.575,227.95,299.341,227.643z"/>
		<path fill="#8C2525" d="M221.526,223.397c-0.01-3.09,0.089-6.18,0.078-9.27c-3.237-0.076-6.604-0.136-9.604-0.18
			c0,6.24,0,12.479,0,18.719c3-0.016,6.408-0.016,9.666,0.001c0.01,3.09-0.034,6.18-0.023,9.27c3.269-0.013,6.51-0.009,9.779,0.01
			c-0.042-6.121-0.097-12.241-0.139-18.362C228.035,223.507,224.774,223.444,221.526,223.397z"/>
		<path fill="#8C2525" d="M143.573,225.416c-0.06,3.331-0.12,6.662-0.18,9.993c3.253-0.245,6.507-0.474,9.761-0.687
			c0.158-9.902,0.316-19.803,0.473-29.705c-3.232,0.121-6.463,0.259-9.694,0.413c-0.06,3.331-0.12,6.662-0.18,9.993
			c-3.238,0.184-6.477,0.385-9.714,0.602c-0.067,3.362-0.134,6.723-0.201,10.085C137.083,225.862,140.328,225.631,143.573,225.416z"
			/>
		<path fill="#8C2525" d="M163.323,204.702c-12.927,0.355-25.854,0.97-38.774,1.846c0.074-3.392,0.147-6.784,0.221-10.176
			c12.894-0.753,25.793-1.246,38.687-1.48C163.412,198.162,163.367,201.432,163.323,204.702z"/>
		<path fill="#8C2525" d="M241.007,223.872c-6.492-0.223-12.986-0.382-19.481-0.475c-0.021-6.18-0.041-12.36-0.062-18.54
			c6.454,0.212,12.905,0.489,19.352,0.83C240.88,211.749,240.944,217.81,241.007,223.872z"/>
		<path fill="#8C2525" d="M260.64,233.654c-6.51-0.295-13.022-0.525-19.536-0.689c-0.064-6.062-0.128-12.123-0.192-18.185
			c6.469,0.282,12.935,0.63,19.397,1.042C260.419,221.766,260.529,227.71,260.64,233.654z"/>
		<path fill="#8C2525" d="M123.667,247.254c-6.511,0.683-13.016,1.431-19.516,2.245c0.171-6.907,0.342-13.814,0.513-20.721
			c6.477-0.691,12.959-1.317,19.445-1.877C123.961,233.685,123.814,240.469,123.667,247.254z"/>
		<path fill="#8C2525" d="M125.087,206.512c-3.409,0.229-6.818,0.476-10.227,0.742c-0.159,6.846-0.319,13.691-0.478,20.537
			c3.241-0.313,6.483-0.609,9.725-0.889c0.074-3.392,0.147-6.784,0.221-10.176c6.473-0.499,12.948-0.933,19.425-1.301
			c0.06-3.331,0.12-6.662,0.18-9.993C137.65,205.729,131.368,206.09,125.087,206.512z"/>
		<path fill="#8C2525" d="M163.457,194.892c-0.045,3.27-0.09,6.54-0.134,9.811c-3.232,0.089-6.463,0.194-9.695,0.315
			c-0.105,6.601-0.21,13.202-0.316,19.803c3.247-0.182,6.494-0.348,9.742-0.497c0.045-3.27,0.09-6.54,0.134-9.811
			c3.24-0.119,6.48-0.222,9.719-0.308c0.073-6.48,0.146-12.96,0.22-19.44C169.904,194.791,166.681,194.833,163.457,194.892z"/>
		<path fill="#8C2525" d="M289.356,218.116c3.224,0.304,6.446,0.624,9.666,0.96c-0.106-2.856-0.212-5.712-0.319-8.567
			c-6.414-0.73-12.835-1.395-19.262-1.995c0.086,3.146,0.173,6.292,0.259,9.438c0.153,5.595,0.307,11.19,0.46,16.785
			c3.252,0.213,6.503,0.443,9.753,0.688C289.727,229.655,289.541,223.886,289.356,218.116z"/>
		<path fill="#8C2525" d="M338.569,240.337c-3.237-0.409-6.475-0.802-9.714-1.179c0.149,2.77,0.297,5.54,0.446,8.31
			c3.254,0.348,6.508,0.713,9.759,1.094c0.164,2.742,0.327,5.483,0.491,8.225c3.267,0.353,6.532,0.722,9.796,1.108
			c-0.537-8.14-1.074-16.281-1.61-24.421c-3.218-0.47-6.437-0.924-9.659-1.361C338.241,234.854,338.405,237.596,338.569,240.337z"/>
		<path fill="#8C2525" d="M269.998,216.489c-3.229-0.239-6.459-0.461-9.69-0.667c0.055,2.972,0.11,5.944,0.165,8.916
			c3.243,0.177,6.485,0.37,9.726,0.58c0.067,2.943,0.135,5.885,0.202,8.828c3.254,0.18,6.506,0.377,9.758,0.59
			c-0.24-8.741-0.479-17.482-0.719-26.223c-3.213-0.3-6.428-0.584-9.645-0.852C269.864,210.604,269.931,213.547,269.998,216.489z"/>
		<path fill="#8C2525" d="M123.887,237.077c3.249-0.311,6.499-0.605,9.75-0.883c-0.067,3.362-0.134,6.723-0.201,10.085
			c3.258-0.309,6.517-0.601,9.777-0.876c0.12-6.662,0.24-13.324,0.36-19.986c-3.246,0.215-6.491,0.446-9.735,0.693
			c0.067-3.362,0.134-6.723,0.201-10.085c-3.238,0.217-6.474,0.45-9.711,0.7C124.181,223.509,124.034,230.293,123.887,237.077z"/>
		<path fill="#8C2525" d="M308.679,220.133c-0.12-2.827-0.24-5.654-0.36-8.481c-3.203-0.397-6.409-0.778-9.616-1.143
			c0.212,5.712,0.425,11.423,0.637,17.135c3.234,0.307,6.467,0.631,9.698,0.971c0.12,2.827,0.24,5.654,0.36,8.481
			c3.245,0.311,6.489,0.639,9.732,0.983c-0.268-5.597-0.537-11.194-0.805-16.791C315.112,220.886,311.896,220.501,308.679,220.133z"
			/>
		<path fill="#8C2525" d="M221.588,241.938c-0.01-3.09-0.021-6.18-0.031-9.27c-3.258-0.017-6.517-0.017-9.775-0.001
			c0,6.24,0.001,12.479,0.001,18.719c3.278-0.076,6.557-0.135,9.836-0.178c0.01,3.09,0.021,6.18,0.031,9.27
			c3.289-0.072,6.579-0.128,9.869-0.168c-0.042-6.121-0.084-12.241-0.126-18.362C228.125,241.928,224.857,241.925,221.588,241.938z"
			/>
		<path fill="#8C2525" d="M250.483,206.248c-0.043-3.001-0.087-6.003-0.13-9.004c-6.419-0.465-12.844-0.866-19.273-1.202
			c0.021,3.06,0.042,6.121,0.063,9.181c3.225,0.138,6.45,0.293,9.673,0.464c0.032,3.031,0.064,6.062,0.096,9.092
			c6.469,0.282,12.935,0.63,19.397,1.042c-0.055-2.972-0.11-5.944-0.165-8.916C256.924,206.67,253.704,206.451,250.483,206.248z"/>
		<path fill="#8C2525" d="M212,223.307c-7-0.028-13.104,0.01-19.601,0.113c0.038-6.359,0.131-12.719,0.169-19.078
			c6.461,0.017,12.432,0.099,19.432,0.246C212,210.828,212,217.067,212,223.307z"/>
		<path fill="#8C2525" d="M202.123,194.967c-0.01,3.15,0.09,6.299,0.081,9.449c3.23,0.041,6.797,0.098,9.797,0.172
			c0,3.12,0,6.24,0,9.359c3,0.044,6.367,0.104,9.604,0.18c-0.01-3.09-0.075-6.18-0.086-9.27c3.227,0.106,6.426,0.228,9.651,0.366
			c-0.021-3.06-0.056-6.121-0.077-9.181C221.45,195.539,211.783,195.18,202.123,194.967z"/>
		<path fill="#8C2525" d="M269.796,207.661c3.216,0.268,6.431,0.552,9.645,0.852c-0.08-2.914-0.16-5.827-0.24-8.741
			c-9.602-0.988-19.219-1.831-28.849-2.528c0.043,3.001,0.087,6.003,0.13,9.004c3.221,0.203,6.442,0.422,9.661,0.658
			c0.055,2.972,0.11,5.944,0.165,8.916c3.231,0.206,6.461,0.429,9.69,0.667C269.931,213.547,269.864,210.604,269.796,207.661z"/>
		<path fill="#8C2525" d="M290.191,244.078c3.263,0.217,6.525,0.45,9.786,0.7c-0.106-2.856-0.212-5.712-0.319-8.567
			c-9.743-0.835-19.497-1.524-29.257-2.065c0.067,2.943,0.135,5.886,0.202,8.828c3.266,0.151,6.531,0.319,9.796,0.503
			c0.08,2.914,0.16,5.827,0.24,8.741c3.277,0.155,6.554,0.326,9.83,0.514C290.377,249.847,290.284,246.963,290.191,244.078z"/>
		<path fill="#8C2525" d="M172.908,214.205c3.24-0.087,6.48-0.157,9.72-0.211c0.028-3.21,0.056-6.42,0.084-9.629
			c6.462-0.048,12.923-0.03,19.382,0.052c0.01-3.15,0.019-6.299,0.029-9.449c-6.619-0.146-13.241-0.224-19.864-0.233
			c-3.043-0.004-6.087,0.006-9.131,0.031C173.054,201.245,172.981,207.725,172.908,214.205z"/>
		<path fill="#8C2525" d="M162.785,243.945c3.264-0.21,6.528-0.404,9.793-0.581c0.037-3.24,0.073-6.48,0.11-9.72
			c6.513-0.294,13.029-0.522,19.545-0.685c0.019-3.18,0.038-6.359,0.057-9.539c-6.678,0.106-13.356,0.28-20.033,0.524
			c-3.068,0.112-6.135,0.239-9.203,0.38C162.964,230.864,162.875,237.405,162.785,243.945z"/>
		<path fill="#8C2525" d="M317.521,204.496c0.134,2.798,0.268,5.597,0.402,8.395c-12.798-1.718-25.628-3.178-38.482-4.378
			c-0.08-2.914-0.16-5.827-0.24-8.741C292.004,201.089,304.78,202.664,317.521,204.496z"/>
		<path fill="#8C2525" d="M327.962,222.538c0.149,2.77,0.297,5.54,0.446,8.31c-3.225-0.405-6.452-0.794-9.68-1.166
			c0.134,2.798,0.268,5.597,0.402,8.395c6.485,0.688,12.965,1.441,19.438,2.259c-0.164-2.742-0.327-5.483-0.491-8.225
			c3.221,0.438,6.441,0.891,9.659,1.361c-0.179-2.714-0.358-5.427-0.537-8.14C340.795,224.337,334.383,223.405,327.962,222.538z"/>
		<path fill="#8C2525" d="M347.2,225.333c-6.404-0.996-12.817-1.928-19.237-2.795c-0.297-5.54-0.595-11.08-0.892-16.62
			c6.361,0.98,12.714,2.025,19.056,3.134C346.484,214.479,346.842,219.906,347.2,225.333z"/>
		<path fill="#8C2525" d="M182.002,223.637c3.429-0.091,6.858-0.163,10.288-0.218c0.038-6.359,0.076-12.719,0.114-19.078
			c-3.23-0.009-6.461-0.001-9.692,0.023c-0.028,3.21-0.056,6.42-0.084,9.629c-6.48,0.108-12.96,0.281-19.439,0.519
			c-0.045,3.27-0.09,6.54-0.134,9.811C169.369,224.033,175.685,223.804,182.002,223.637z"/>
		<path fill="#EDEDED" d="M211.783,242.026c-6.537,0.092-13.073,0.249-19.607,0.472c0.038-6.359,0.076-12.719,0.114-19.078
			c6.498-0.103,12.995-0.141,19.492-0.113C211.782,229.547,211.782,235.786,211.783,242.026z"/>
		<path fill="#EDEDED" d="M260.424,251.471c0.054,2.974,0.109,5.947,0.163,8.921c6.582,0.116,13.163,0.298,19.744,0.546
			c0.079,2.915,0.158,5.831,0.238,8.746c3.303,0.095,6.606,0.207,9.908,0.335c-0.095-2.977-0.19-5.954-0.285-8.931
			c-0.089-2.796-0.178-5.591-0.268-8.387C280.095,252.143,270.261,251.733,260.424,251.471z"/>
		<path fill="#EDEDED" d="M340.498,281.875c-0.163-2.743-0.326-5.486-0.488-8.23c-3.298-0.293-6.597-0.569-9.896-0.829
			c0.148,2.772,0.296,5.543,0.444,8.315c-3.314-0.231-6.629-0.446-9.944-0.643c0.133,2.8,0.267,5.6,0.4,8.4
			c9.989,0.508,19.975,1.166,29.957,1.976c-0.178-2.715-0.356-5.43-0.534-8.145C347.123,282.421,343.811,282.14,340.498,281.875z"/>
		<path fill="#EDEDED" d="M162.583,258.661c-0.045,3.27-0.09,6.54-0.134,9.811c-3.284,0.286-6.566,0.588-9.847,0.907
			c-0.053,3.301-0.105,6.601-0.158,9.902c3.288-0.349,6.579-0.682,9.87-0.998c-0.045,3.27-0.09,6.54-0.134,9.811
			c3.3-0.346,6.601-0.676,9.904-0.989c0.11-9.72,0.22-19.44,0.33-29.16C169.136,258.167,165.859,258.406,162.583,258.661z"/>
		<path fill="#EDEDED" d="M309.399,237.095c0.24,5.654,0.48,11.308,0.72,16.962c-3.273-0.254-6.547-0.491-9.822-0.712
			c0.106,2.856,0.212,5.712,0.319,8.567c6.577,0.384,13.151,0.835,19.723,1.351c-0.138-2.886-0.277-5.773-0.415-8.659
			c-0.264-5.509-0.528-11.018-0.792-16.527C315.888,237.734,312.644,237.406,309.399,237.095z"/>
		<path fill="#EDEDED" d="M270.604,242.974c-0.062-2.708-0.124-5.417-0.186-8.125c-0.073-3.177-0.145-6.355-0.218-9.532
			c-3.241-0.209-6.483-0.403-9.726-0.58c0.055,2.972,0.11,5.944,0.165,8.916c-6.51-0.295-13.022-0.525-19.536-0.689
			c0.032,3.031,0.064,6.062,0.096,9.092C251.004,242.215,260.807,242.521,270.604,242.974z"/>
		<path fill="#EDEDED" d="M123.446,257.43c0.074-3.392,0.147-6.784,0.221-10.176c-6.511,0.683-13.016,1.431-19.516,2.245
			c-0.085,3.454-0.171,6.907-0.256,10.361c3.255-0.438,6.512-0.859,9.771-1.264c-0.08,3.423-0.159,6.846-0.239,10.268
			c6.529-0.871,13.066-1.677,19.609-2.416c0.067-3.362,0.134-6.723,0.201-10.085C129.971,256.702,126.708,257.058,123.446,257.43z"
			/>
		<path fill="#EDEDED" d="M182.484,242.882c-0.028,3.21-0.11,6.42-0.138,9.629c3.275-0.174,6.524-0.332,9.8-0.474
			c-0.019,3.18-0.052,6.359-0.071,9.539c3.286-0.172,6.565-0.327,9.852-0.465c0.01-3.15,0.124-6.299,0.134-9.449
			c3.278-0.109,6.939-0.201,9.939-0.276c0-3.12,0-6.24,0-9.359C202,242.164,192.283,242.449,182.484,242.882z"/>
		<path fill="#EDEDED" d="M327.07,205.918c-3.181-0.49-6.364-0.964-9.549-1.422c0.134,2.798,0.268,5.597,0.402,8.395
			c-3.2-0.43-6.401-0.843-9.605-1.24c0.12,2.827,0.24,5.654,0.36,8.481c3.217,0.369,6.433,0.753,9.647,1.154
			c0.134,2.798,0.268,5.597,0.402,8.395c3.228,0.372,6.455,0.761,9.68,1.166C327.962,222.538,327.516,214.228,327.07,205.918z"/>
		<path fill="#EDEDED" d="M122.674,293.047c-6.568,0.959-13.127,1.983-19.677,3.074c0.171-6.907,0.342-13.814,0.513-20.721
			c6.527-0.968,13.063-1.87,19.605-2.706C122.968,279.479,122.821,286.263,122.674,293.047z"/>
		<path fill="#EDEDED" d="M143.393,235.409c-0.06,3.331-0.12,6.662-0.18,9.993c-3.26,0.276-6.519,0.568-9.777,0.876
			c-0.067,3.362-0.134,6.723-0.201,10.085c6.529-0.678,13.064-1.291,19.603-1.837c0.053-3.301,0.105-6.601,0.158-9.902
			c3.262-0.243,6.525-0.469,9.788-0.679c0.045-3.27,0.09-6.54,0.134-9.811C156.408,234.494,149.899,234.919,143.393,235.409z"/>
		<path fill="#EDEDED" d="M231.457,251.129c0.021,3.06,0.042,6.121,0.063,9.181c-3.29,0.039-6.58,0.095-9.869,0.168
			c0.01,3.09,0.021,6.18,0.031,9.27c6.6-0.204,13.202-0.342,19.805-0.414c-0.032-3.031-0.064-6.062-0.096-9.092
			c3.291-0.006,6.581,0.004,9.872,0.031c-0.043-3.001-0.087-6.003-0.13-9.004C244.575,251.156,238.016,251.109,231.457,251.129z"/>
		<path fill="#EDEDED" d="M212,288.823c3-0.195,6.531-0.373,9.851-0.535c-0.01-3.09-0.074-6.18-0.085-9.27
			c-6.62,0.264-13.264,0.594-19.877,0.991c-0.01,3.15-0.033,6.299-0.042,9.449c-3.316,0.228-6.637,0.473-9.95,0.735
			c-0.019,3.18,0.066,6.359,0.047,9.539c6.645-0.583,13.057-1.1,20.057-1.55C212,295.063,212,291.943,212,288.823z"/>
	</g>
</g>
<g>
	<g>
		<path fill="#8C2525" d="M315.08,255.648c-3.975-0.082-7.95-0.116-11.925-0.108c-0.252-1.635-0.504-3.256-0.756-4.862
			c3.934-0.007,7.868,0.032,11.802,0.125C314.495,252.404,314.787,254.019,315.08,255.648z"/>
		<path fill="#8C2525" d="M338.93,256.784c-2.12-0.163-4.24-0.308-6.36-0.436c-0.353-1.6-0.705-3.189-1.058-4.767
			c2.098,0.142,4.196,0.302,6.295,0.482C338.181,253.628,338.555,255.202,338.93,256.784z"/>
		<path fill="#8C2525" d="M298.981,271.565c-6.293,0.052-12.586,0.149-18.88,0.279c-0.167-1.701-0.335-3.388-0.502-5.063
			c6.231-0.17,12.461-0.295,18.692-0.357C298.521,268.123,298.751,269.836,298.981,271.565z"/>
		<path fill="#8C2525" d="M291.789,266.511c-2.167,0.036-4.334,0.079-6.501,0.128c-0.218-1.966-0.435-3.914-0.653-5.843
			c2.142-0.06,4.284-0.112,6.425-0.155C291.303,262.578,291.546,264.535,291.789,266.511z"/>
		<path fill="#8C2525" d="M355.904,254.126c-84.19-12.101-168.38,12.504-252.569,0.322c5.389-18.998,10.779-37.983,16.168-56.956
			c73.411,0.256,146.822,0.512,220.233,0.768C345.125,216.895,350.514,235.517,355.904,254.126z"/>
		<g>
			<path fill="#0A0A54" d="M291.06,260.641c0.451,3.597,0.902,7.262,1.354,10.994c4.378-0.057,8.756-0.094,13.134-0.107
				c-0.546-3.749-1.091-7.427-1.637-11.036C299.627,260.502,295.344,260.554,291.06,260.641z"/>
			<path fill="#0A0A54" d="M115.136,255.922c-1.836-0.194-3.672-0.404-5.508-0.631c-0.83,3.036-1.661,6.057-2.491,9.064
				c1.874,0.178,3.748,0.344,5.622,0.496c0.396-1.476,0.792-2.957,1.188-4.446c2.12,0.201,4.24,0.383,6.36,0.547
				c0.811-3.177,1.622-6.397,2.433-9.658c-2.073-0.196-4.146-0.413-6.218-0.652C116.061,252.412,115.599,254.172,115.136,255.922z"
				/>
			<path fill="#0A0A54" d="M156.877,262.217c-2.12,0.006-4.24,0.001-6.36-0.017c-0.271,1.414-0.542,2.813-0.813,4.197
				c2.142,0.015,4.283,0.018,6.425,0.012c-0.291,1.612-0.581,3.204-0.872,4.775c2.167-0.007,4.334-0.023,6.501-0.046
				c0.248-1.473,0.497-2.963,0.745-4.472c0.244-1.483,0.488-2.984,0.733-4.502c0.227-1.413,0.455-2.842,0.682-4.285
				c-2.098,0.031-4.196,0.05-6.295,0.056C157.376,259.377,157.127,260.805,156.877,262.217z"/>
			<path fill="#0A0A54" d="M260.226,256.947c-2.12,0.119-4.24,0.242-6.36,0.37c0.18,3.419,0.36,6.871,0.54,10.356
				c2.167-0.091,4.334-0.179,6.501-0.264c-0.122-1.9-0.245-3.788-0.367-5.664c2.142-0.105,4.283-0.205,6.425-0.301
				c-0.253-3.246-0.506-6.45-0.76-9.614c-2.098,0.117-4.196,0.241-6.295,0.37C260.016,253.774,260.121,255.356,260.226,256.947z"/>
		</g>
		<path fill="#DDDFE8" stroke="#686868" stroke-width="0.7623" stroke-miterlimit="10" d="M121.132,256.121
			c-0.376,1.487-0.751,2.965-1.127,4.434c-1.853-0.147-3.707-0.308-5.56-0.484c-0.461,1.736-0.921,3.463-1.382,5.181
			c1.876,0.149,3.751,0.285,5.627,0.409c-0.376,1.449-0.751,2.889-1.127,4.32c2.165,0.115,4.331,0.217,6.496,0.307
			c1.121-4.447,2.242-9.004,3.362-13.669C125.324,256.472,123.228,256.307,121.132,256.121z"/>
		<path fill="#DDDFE8" stroke="#686868" stroke-miterlimit="10" d="M235.766,243.521c0.047,3.308,0.035,6.624,0.082,9.948
			c-2.096,0.155-4.349,0.311-6.349,0.468c0,1.524,0,3.048,0,4.571c4-0.287,8.532-0.575,12.768-0.854
			c-0.046-1.63-0.062-3.257-0.108-4.879c-0.092-3.269-0.17-6.521-0.262-9.756C239.85,243.184,237.816,243.352,235.766,243.521z"/>
		<path fill="#DDDFE8" stroke="#686868" stroke-width="0.7623" stroke-miterlimit="10" d="M218.613,254.751
			c0.044-1.756,0.089-3.517,0.133-5.283c-2.071,0.162-4.142,0.322-6.213,0.479c-0.13,3.267-0.26,6.509-0.389,9.725
			c2.118-0.136,4.236-0.274,6.354-0.414c-0.044,1.748-0.089,3.491-0.133,5.23c1.608-0.091,3.215-0.183,4.823-0.275
			c0.047-3.259,0.094-6.528,0.142-9.807C221.757,254.521,220.185,254.636,218.613,254.751z"/>
		<path fill="#DDDFE8" stroke="#686868" stroke-width="0.7623" stroke-miterlimit="10" d="M139.999,257.287
			c0.362-1.697,0.724-3.414,1.086-5.149c-2.071-0.083-4.142-0.184-6.213-0.304c-0.72,3.233-1.439,6.407-2.159,9.522
			c2.118,0.1,4.236,0.184,6.354,0.254c-0.362,1.665-0.724,3.312-1.086,4.939c1.876,0.05,3.751,0.091,5.627,0.123
			c0.631-3.005,1.262-6.078,1.894-9.22C143.668,257.409,141.833,257.354,139.999,257.287z"/>
		<path fill="#DDDFE8" stroke="#686868" stroke-width="0.7623" stroke-miterlimit="10" d="M325.034,277.225
			c2.213,0.013,4.425,0.03,6.638,0.051c-0.391-2.001-0.781-3.986-1.172-5.954c-4.101-0.091-8.202-0.153-12.303-0.19
			c0.343,2.003,0.686,4.026,1.029,6.068c-2.213-0.006-4.425-0.009-6.638-0.008c0.272,1.76,0.545,3.534,0.817,5.323
			c4.189-0.014,8.379-0.026,12.568-0.038C325.661,280.713,325.348,278.962,325.034,277.225z"/>
		<path fill="#DDDFE8" stroke="#686868" stroke-width="0.7623" stroke-miterlimit="10" d="M332.879,255.973
			c-0.354-1.597-0.708-3.183-1.062-4.758c-1.834-0.127-3.669-0.24-5.503-0.339c0.726,3.433,1.451,6.924,2.177,10.473
			c1.876,0.075,3.751,0.161,5.627,0.259c0.354,1.622,0.708,3.255,1.062,4.899c2.165,0.089,4.331,0.19,6.496,0.304
			c-0.814-3.504-1.628-6.967-2.442-10.389C337.115,256.253,334.997,256.104,332.879,255.973z"/>
		<path fill="#DDDFE8" stroke="#686868" stroke-width="0.7623" stroke-miterlimit="10" d="M294.936,240.112
			c1.793-0.025,3.586-0.039,5.379-0.043c1.085,6.666,2.171,13.613,3.256,20.841c-1.876,0.006-3.751,0.019-5.627,0.04
			C296.942,253.726,295.939,246.78,294.936,240.112z"/>
		<path fill="#DDDFE8" stroke="#686868" stroke-width="0.7623" stroke-miterlimit="10" d="M164.369,257.512
			c3.669-0.057,7.337-0.15,11.006-0.274c-0.407,3.143-0.814,6.221-1.221,9.235c-3.751,0.1-7.503,0.177-11.254,0.225
			C163.39,263.706,163.88,260.644,164.369,257.512z"/>
		<path fill="#DDDFE8" stroke="#686868" stroke-width="0.7623" stroke-miterlimit="10" d="M302.695,255.133
			c4.236-0.012,8.473,0.024,12.709,0.117c0.637,3.524,1.274,7.115,1.911,10.774c-4.331-0.059-8.661-0.079-12.992-0.065
			C303.781,262.28,303.238,258.671,302.695,255.133z"/>
		<path fill="#DDDFE8" stroke="#686868" stroke-width="0.7623" stroke-miterlimit="10" d="M133.71,257.005
			c0.388-1.707,0.775-3.43,1.163-5.171c3.883,0.224,7.766,0.383,11.649,0.484c0.291-1.484,0.583-2.982,0.874-4.495
			c-5.891-0.162-11.783-0.463-17.674-0.933c-0.39,1.676-0.78,3.338-1.17,4.987c-0.377,1.593-0.754,3.175-1.131,4.743
			C129.517,256.766,131.613,256.895,133.71,257.005z"/>
		<path fill="#DDDFE8" stroke="#686868" stroke-width="0.7623" stroke-miterlimit="10" d="M348.171,267.188
			c-1.255-5.002-2.51-9.945-3.765-14.826c-0.467-1.819-0.935-3.629-1.402-5.43c-2.071-0.241-4.142-0.459-6.213-0.657
			c0.442,1.814,0.884,3.639,1.326,5.476c1.186,4.933,2.372,9.952,3.559,15.058C343.841,266.922,346.006,267.048,348.171,267.188z"/>
		<path fill="#DDDFE8" stroke="#686868" stroke-width="0.7623" stroke-miterlimit="10" d="M273.761,269.881
			c0.147,1.675,0.294,3.363,0.441,5.061c1.926-0.036,3.853-0.071,5.779-0.103c-0.167-1.722-0.334-3.432-0.501-5.128
			c-0.193-1.962-0.386-3.908-0.579-5.836c-5.925,0.184-11.85,0.415-17.774,0.676c0.124,1.889,0.248,3.791,0.372,5.704
			C265.587,270.118,269.674,269.992,273.761,269.881z"/>
		<path fill="#DDDFE8" stroke="#686868" stroke-width="0.7623" stroke-miterlimit="10" d="M175.375,257.239
			c-0.188,1.451-0.376,2.888-0.564,4.31c2.118-0.066,4.236-0.14,6.354-0.223c0.165-1.416,0.329-2.845,0.494-4.287
			c0.195-1.712,0.391-3.441,0.586-5.188c-5.695,0.259-11.39,0.448-17.085,0.541c-0.264,1.727-0.527,3.434-0.791,5.12
			C168.038,257.455,171.707,257.362,175.375,257.239z"/>
		<path fill="#DDDFE8" stroke="#686868" stroke-width="0.7623" stroke-miterlimit="10" d="M322.06,261.129
			c-0.678-3.578-1.357-7.093-2.035-10.544c2.096,0.08,4.193,0.176,6.289,0.289c-0.391-1.849-0.781-3.681-1.172-5.496
			c-3.883-0.23-7.766-0.394-11.649-0.499c0.346,1.84,0.692,3.7,1.037,5.579c0.634,3.448,1.269,6.962,1.903,10.542
			C318.309,261.034,320.184,261.077,322.06,261.129z"/>
		<path fill="#8C2525" d="M135.07,279.715c1.761,0.009,3.522,0.015,5.283,0.019c0.976-4.311,1.951-8.783,2.927-13.416
			c-1.874-0.033-3.748-0.076-5.622-0.129c-0.675,3.029-1.351,5.994-2.026,8.894c-2.189-0.031-4.378-0.07-6.567-0.116
			c-0.389,1.584-0.778,3.15-1.167,4.7C130.288,279.687,132.679,279.703,135.07,279.715z"/>
		<path fill="#DDDFE8" stroke="#686868" stroke-width="0.7623" stroke-miterlimit="10" d="M253.989,252.186
			c-0.098-1.824-0.197-3.638-0.295-5.443c2.071-0.148,4.142-0.291,6.213-0.428c0.23,3.362,0.46,6.766,0.69,10.211
			c-2.118,0.119-4.236,0.243-6.354,0.371c0.098,1.841,0.197,3.691,0.295,5.551c-2.144,0.111-4.287,0.225-6.431,0.342
			c-0.136-3.417-0.271-6.808-0.407-10.175C249.796,252.469,251.893,252.326,253.989,252.186z"/>
		<path fill="#DDDFE8" stroke="#686868" stroke-miterlimit="10" d="M229.5,268.41c0,1.523,0,3.046,0,4.569
			c4-0.156,8.808-0.312,13.182-0.465c-0.044-1.576-0.057-3.148-0.101-4.717c-2.165,0.1-4.316,0.202-6.481,0.304
			c-0.022-1.546-0.036-3.09-0.058-4.632c-4.287,0.246-8.571,0.496-12.858,0.743c-0.022,1.504-0.101,3.007-0.123,4.507
			C225.227,268.616,227.5,268.513,229.5,268.41z"/>
		<path fill="#DDDFE8" stroke="#686868" stroke-width="0.7623" stroke-miterlimit="10" d="M298.639,265.995
			c0.231,1.697,0.463,3.408,0.694,5.134c4.101-0.033,8.202-0.046,12.303-0.036c-0.272-1.725-0.545-3.435-0.817-5.131
			c-2.165-0.011-4.331-0.012-6.496-0.005c-0.251-1.698-0.501-3.381-0.751-5.049c-4.019,0.012-8.038,0.06-12.058,0.139
			c0.21,1.663,0.419,3.341,0.629,5.032C294.309,266.045,296.474,266.016,298.639,265.995z"/>
		<path fill="#DDDFE8" stroke="#686868" stroke-width="0.7623" stroke-miterlimit="10" d="M276.494,240.694
			c-1.793,0.085-3.586,0.177-5.379,0.276c0.147,1.537,0.294,3.085,0.441,4.645c-1.812,0.097-3.624,0.2-5.436,0.308
			c0.149,1.816,0.299,3.646,0.448,5.49c1.834-0.102,3.669-0.2,5.503-0.291c0.147,1.587,0.294,3.185,0.441,4.795
			c1.853-0.084,3.707-0.163,5.56-0.236C277.546,250.559,277.02,245.563,276.494,240.694z"/>
		<path fill="#DDDFE8" stroke="#686868" stroke-width="0.7623" stroke-miterlimit="10" d="M242.611,267.797
			c4.06-0.188,8.12-0.371,12.18-0.544c0.183,3.485,0.366,7.004,0.549,10.557c-4.148,0.075-8.297,0.154-12.446,0.234
			C242.8,274.612,242.705,271.196,242.611,267.797z"/>
		<path fill="#DDDFE8" stroke="#686868" stroke-width="0.7623" stroke-miterlimit="10" d="M108.884,259.501
			c0.414-1.51,0.828-3.023,1.241-4.54c1.834,0.226,3.669,0.435,5.503,0.628c0.855-3.252,1.711-6.533,2.566-9.846
			c-1.793-0.215-3.586-0.446-5.379-0.697c-0.414,1.533-0.828,3.063-1.241,4.589c-2.071-0.277-4.142-0.577-6.213-0.902
			c-0.944,3.335-1.888,6.669-2.831,10.003C104.648,259.011,106.766,259.266,108.884,259.501z"/>
		<path fill="#8C2525" d="M199.326,256.432c4.196-0.258,8.393-0.537,12.589-0.829c-0.061,1.494-0.122,2.982-0.184,4.465
			c-4.24,0.268-8.48,0.525-12.72,0.761C199.117,259.372,199.221,257.906,199.326,256.432z"/>
		<path fill="#8C2525" d="M194.252,251.579c3.886-0.236,7.773-0.496,11.659-0.772c-0.097,1.751-0.194,3.492-0.291,5.223
			c-3.934,0.26-7.868,0.504-11.802,0.726C193.963,255.045,194.108,253.319,194.252,251.579z"/>
		<path fill="#DDDFE8" stroke="#686868" stroke-width="0.7623" stroke-miterlimit="10" d="M211.934,264.845
			c0.07-1.717,0.14-3.442,0.21-5.174c-4.236,0.271-8.473,0.531-12.709,0.771c0.103-1.459,0.207-2.927,0.31-4.403
			c-1.834,0.114-3.669,0.224-5.503,0.328c-0.133,1.592-0.266,3.172-0.398,4.74c-0.133,1.567-0.265,3.123-0.398,4.666
			C199.609,265.498,205.772,265.182,211.934,264.845z"/>
		<path fill="#DDDFE8" stroke="#686868" stroke-width="0.7623" stroke-miterlimit="10" d="M192.282,279.002
			c0.143-1.587,0.286-3.188,0.429-4.802c-4.374,0.122-8.749,0.232-13.123,0.325c0.166-1.349,0.332-2.71,0.498-4.085
			c-2.165,0.06-4.331,0.115-6.496,0.164c-0.214,1.553-0.428,3.088-0.642,4.606c-0.193,1.368-0.386,2.721-0.579,4.06
			C179.007,279.2,185.645,279.108,192.282,279.002z"/>
		<path fill="#DDDFE8" stroke="#686868" stroke-width="0.7623" stroke-miterlimit="10" d="M187.016,266.044
			c-0.144,1.411-0.289,2.811-0.433,4.2c2.165-0.071,4.331-0.146,6.496-0.226c0.388-4.448,0.776-8.998,1.164-13.65
			c-2.096,0.12-4.193,0.233-6.289,0.339c-0.144,1.462-0.289,2.912-0.433,4.351c-2.118,0.098-4.236,0.188-6.354,0.27
			c-0.194,1.668-0.388,3.319-0.581,4.952C182.728,266.207,184.872,266.128,187.016,266.044z"/>
		<path fill="#DDDFE8" stroke="#686868" stroke-width="0.7623" stroke-miterlimit="10" d="M205.381,267.364
			c4.309-0.205,8.618-0.422,12.927-0.645c-0.083,3.221-0.165,6.426-0.248,9.614c-4.403,0.116-8.807,0.23-13.21,0.337
			C205.027,273.602,205.204,270.5,205.381,267.364z"/>
		<path fill="#DDDFE8" stroke="#686868" stroke-width="0.7623" stroke-miterlimit="10" d="M205.544,250.459
			c0.085-1.505,0.169-3.017,0.254-4.537c0.098-1.766,0.197-3.542,0.295-5.328c-1.771,0.132-3.542,0.26-5.312,0.383
			c-0.121,1.792-0.241,3.571-0.362,5.339c-3.842,0.265-7.684,0.509-11.527,0.723c-0.144,1.512-0.289,3.013-0.433,4.502
			C194.154,251.234,199.849,250.865,205.544,250.459z"/>
		<path fill="#DDDFE8" stroke="#686868" stroke-width="0.7623" stroke-miterlimit="10" d="M157.294,257.575
			c2.096-0.004,4.193-0.022,6.289-0.051c-0.953,6.023-1.906,11.785-2.859,17.289c-2.187,0.019-4.374,0.031-6.561,0.038
			C155.207,269.355,156.25,263.596,157.294,257.575z"/>
		<path fill="#DDDFE8" stroke="#686868" stroke-width="0.7623" stroke-miterlimit="10" d="M121.758,279.263
			c0.413-1.583,0.826-3.181,1.239-4.794c-2.187-0.064-4.374-0.137-6.561-0.22c0.376-1.414,0.751-2.836,1.127-4.268
			c-1.895-0.1-3.789-0.21-5.684-0.33c-0.395,1.46-0.79,2.913-1.184,4.36c-1.914-0.087-3.827-0.181-5.741-0.283
			c-0.483,1.733-0.966,3.462-1.448,5.185C109.589,279.068,115.673,279.183,121.758,279.263z"/>
		<path fill="#DDDFE8" stroke="#686868" stroke-width="0.7623" stroke-miterlimit="10" d="M160.754,279.369
			c1.936-0.012,3.872-0.027,5.808-0.044c0.241-1.509,0.483-3.037,0.724-4.585c1.914-0.026,3.827-0.055,5.741-0.088
			c0.376-2.671,0.751-5.397,1.127-8.179c-1.876,0.05-3.751,0.094-5.627,0.132c-0.207,1.385-0.414,2.755-0.621,4.111
			c-1.895,0.032-3.789,0.059-5.684,0.08C161.733,273.724,161.243,276.582,160.754,279.369z"/>
		<path fill="#DDDFE8" stroke="#686868" stroke-width="0.7623" stroke-miterlimit="10" d="M127.399,283.287
			c4.47-0.011,8.94-0.023,13.41-0.037c1.954-0.006,3.907-0.012,5.861-0.018c0.265-1.235,0.53-2.484,0.795-3.748
			c0.319-1.522,0.638-3.065,0.957-4.629c-2.187-0.005-4.374-0.016-6.561-0.034c-0.34,1.55-0.68,3.081-1.02,4.592
			c-4.148-0.011-8.297-0.034-12.446-0.073C128.063,280.667,127.731,281.983,127.399,283.287z"/>
		<path fill="#DDDFE8" stroke="#686868" stroke-width="0.7623" stroke-miterlimit="10" d="M147.395,247.822
			c-0.291,1.513-0.583,3.012-0.874,4.495c2.071,0.054,4.142,0.091,6.213,0.113c0.584-3.21,1.168-6.49,1.752-9.841
			c-1.77-0.022-3.539-0.055-5.309-0.102c-4.049-0.106-8.097-0.28-12.146-0.531c-0.388,1.804-0.775,3.592-1.163,5.362
			C139.711,247.552,143.553,247.717,147.395,247.822z"/>
		<path fill="#8C2525" d="M267.155,263.886c-2.153,0.088-4.305,0.181-6.458,0.278c-0.262-4.042-0.524-8.03-0.786-11.963
			c2.098-0.129,4.196-0.253,6.295-0.37C266.522,255.785,266.839,259.804,267.155,263.886z"/>
		<path fill="#8C2525" d="M273.613,263.637c-2.153,0.078-4.305,0.161-6.458,0.249c-0.127-1.633-0.253-3.256-0.38-4.868
			c2.131-0.102,4.262-0.198,6.393-0.288C273.317,260.354,273.465,261.99,273.613,263.637z"/>
		<path fill="#8C2525" d="M167.448,271.062c-1.896,0.031-3.792,0.057-5.689,0.077c0.265-1.573,0.53-3.167,0.796-4.781
			c1.874-0.023,3.748-0.054,5.622-0.091C167.934,267.885,167.691,269.483,167.448,271.062z"/>
		<path fill="#8C2525" d="M187.087,261.434c-2.12,0.096-4.24,0.185-6.36,0.265c0.167-1.427,0.335-2.867,0.502-4.321
			c2.098-0.088,4.196-0.184,6.295-0.288C187.378,258.55,187.233,259.997,187.087,261.434z"/>
		<path fill="#8C2525" d="M298.981,271.565c-2.189,0.018-4.378,0.042-6.567,0.07c-0.208-1.722-0.417-3.43-0.625-5.124
			c2.167-0.036,4.334-0.065,6.502-0.087C298.521,268.123,298.751,269.836,298.981,271.565z"/>
	</g>
</g>
<path opacity="0.5" fill="#171735" enable-background="new    " d="M143.505,199.263c6.503,14.233,9.251,27.066,19.761,36.327
	c41.967,36.981,123.73,27.534,132.931-34.579"/>
<ellipse cx="218.562" cy="201.001" rx="70.607" ry="46.221"/>
<ellipse fill="#E53017" cx="217.219" cy="199.384" rx="66.264" ry="43.603"/>
<g>
	<g>
		<path d="M80.285-46.567h0.086H80.285z"/>
		<path d="M46.71-45.176"/>
	</g>
</g>
<path fill="#C1C1C1" d="M341.508,331.616c-5.999-4.885-7.932-7.487-13.586-10.666c-40.765-22.922-66.43-11.258-70.989-9.132
	c3.053-0.518,7.011-0.733,11.765-1.522c29.22-4.848,50.743,14.549,63.354,27.725c4.792,10.57,5.305,38.392,3.976,46.625
	c-3.547,21.971-2.697,32.306-11.641,33.978c-26.588,4.971-46.729-22.135-40.335-13.871c2.135,2.76,6.093,4.937,7.888,6.349
	c9.576,7.531,11.798,7.383,14.04,8.215c1.883,0.698,13.707,2.646,16.583,1.707c3.629-1.185,8.063-1.316,14.263-9.367
	C347.34,398.003,341.508,331.616,341.508,331.616z"/>
<ellipse opacity="0.6" fill="#F9F7F7" enable-background="new    " cx="207.546" cy="176.082" rx="32.288" ry="18.064"/>
<ellipse transform="matrix(-0.2035 -0.9791 0.9791 -0.2035 87.2446 515.7374)" opacity="0.6" fill="#F9F7F7" enable-background="new    " cx="253.406" cy="222.381" rx="8.482" ry="13.824"/>
<ellipse opacity="0.5" fill="#F9F7F7" enable-background="new    " cx="200.928" cy="168.691" rx="13.001" ry="7.806"/>
<path fill="#8C3128" d="M257.987,222.477c-6.712,4.738-13.906,6.236-18.659,8.199c-12.808,5.29-21.75,5.693-36.046,7.068
	c-6.236,0.6-14.81-1.066-20.8-1.228c10.101,4.101,21.997,6.472,34.737,6.472c36.596,0,66.264-19.522,66.264-43.603
	c0-6.391-2.107-12.455-5.861-17.924c-0.982,6.466,1.8,16.747-2.814,24.478C270.906,212.477,265.196,217.388,257.987,222.477z"/>
<path fill="none" d="M126.335,181.662c-9.712-12.607-30.951-10.048-41.528-0.652c-2.916,2.59-5.67,5.742-8.161,8.738
	c-4.941,5.943-9.425,13.672-4.952,21.203c7.714,12.988,32.021,7.544,41.733,1.449C121.741,207.181,133.955,191.555,126.335,181.662z
	"/>
<g>
	<path fill="#FFFFFF" d="M97.853,247.688c-0.84,0.103-2.055,0.811-2.781,0.608c-3.731,0.376-3.401,7.908-2.763,10.373
		c0.653,2.524-3.751,9.606-3.06,12.045c0.512,1.807,4.828,6.048,5.529,7.816c0.996,2.515,3.394-5.385,3.511-7.844
		c0.086-1.809,0.248-3.552,0.571-5.321c0.552-3.023,1.401-5.841,1.739-8.943c0.251-2.304,1.402-4.922,0.193-7.142
		C100.119,248.048,99.27,247.515,97.853,247.688z"/>
	<path fill="#FFFFFF" d="M94.956,248.267c0.035,0.016,0.078,0.018,0.116,0.029c0.06-0.006,0.112-0.026,0.174-0.029H94.956z"/>
	<path fill="#FFFFFF" d="M132.197,180.889c-1.033-0.165-17.596-1.496-18.64-1.575c-2.428-0.245-2.82,16.617-5.25,16.398
		c-5.19-0.466-6.875,0.937-12.09,0.95c-2.083,0.005-5.145-0.556-7.176,0.146c-1.776,0.614-3.343,2.574-4.855,3.652
		c-2.769,1.975-5.988,2.672-9.004,4.06c-2.958,1.362-2.677,3.26-1.192,5.863c1.153,2.02,2.269,3.99,3.098,6.177
		c0.544,1.434,1.097,2.444,1.928,3.679c1.134,1.683,2.565,2.697,3.841,4.173c1.518,1.757,3.431,3.413,5.748,2.32
		c1.242-0.585,1.998-1.576,3.139-2.292c0.863-0.541,2.1-0.6,2.952-1.029c1.95-0.982,3.596-2.66,5.568-3.616
		c2.423-1.174,4.876-1.208,7.085-2.928c2.069-1.61,3.691-3.691,5.47-5.595c1.257-1.346,2.765-2.118,4.054-3.354
		c1.763-1.69,2.538-3.536,3.797-5.461C121.363,201.4,134.025,182.111,132.197,180.889z"/>
	<path fill="#FFFFFF" d="M367.362,268.907c-0.211-4.736-0.952-9.305-1.659-13.983c-0.713-4.72-1.071-10.843-3.142-15.254
		c-0.506-1.079-1.353-2.103-2.358-2.759c-2.685-1.753-4.872,0.188-6.991,1.868c-2.554,2.024-4.869,3.566-6.297,6.581
		c-1.432,3.024-0.178,6.767-0.178,9.956c0,3.285,0.3,6.247,1.408,9.308c1.004,2.774,1.417,5.535,1.924,8.406
		c0.257,1.455,0.923,2.961,1.778,4.201c0.523,0.758,3.232,2.394,3.292,0.721l0.29,0.435c-0.212,1.45,0.972,2.038,1.633,3.068
		c2.026,3.153,2.395,8.323,6.453,9.767c3.416,1.215,4.307-5.979,4.536-8.308C368.503,278.316,367.568,273.506,367.362,268.907z"/>
	<path fill="#FFFFFF" d="M360.646,222.738c1.836-0.602,2.346-1.417,2.846-3.108c0.36-1.215,0.903-2.35,0.639-3.708
		c-0.226-1.161-1.112-2.366-1.888-3.278c-1.565-1.842-3.259-3.852-4.969-5.539c-1.822-1.797-5.31-2.982-7.729-3.785
		c-1.625-0.539-3.572-0.527-5.294-0.542c-1.49-0.013-0.358-1.895-1.564-1c-0.574,0.426-0.902-4.886-1.377-4.554
		c-0.502,0.35-8.223-16.036-8.609-15.036l-6.362-0.616c-0.259,0,5.949,23.808,5.878,24.618c-0.159,1.833,6.252,5.713,7.278,7.131
		c1.737,2.403,3.648,4.336,5.908,6.176C349.151,222.552,355.759,224.339,360.646,222.738z"/>
</g>
<path fill="none" stroke="#000000" stroke-width="2" stroke-miterlimit="10" d="M386.937,219.311
	c0.248-1.078,0.528-2.088,0.978-3.216c1.162-2.913,2.108-7.99-1.594-9.359c-1.577-0.583-2.642-0.224-3.226-2.12
	c-0.375-1.215-0.085-2.763-0.156-4.035c-4.325-0.394-7.383,2.702-10.908,4.374c0.612,0.778,2.711,2.636,1.686,4
	c-0.728,0.969-3.206,0.99-4.181,2.057c-2.399,2.625,0.607,5.017,0.576,7.304c-2.021,2.802-5.881,5.129-14.359,5.058
	c-11.562-0.096-20.634-14.808-20.634-14.808s-18.588-4.51-46.695-8.614c0.041,0.616,0.075,1.233,0.075,1.855
	c0,24.203-31.426,43.823-70.191,43.823s-68.884-19.333-70.191-43.823c-0.085-1.595-0.249-1.471,0.018-3.025
	c-4.825,0.706-16.276,0.2-23.012,2.165c-1.955,0.571-3.513,1.35-4.397,2.427c-0.26,0.318-0.519,0.629-0.777,0.935
	c-11.312,13.425-20.247,15.852-40.214,28.077c-33.089,20.258-41.386,28.891-39.519,34.037c0,0,0.475,2.297,0.735,3.394
	c0.391,1.652,1.395,2.444,3.132,2.343c0.507-0.03,1.227-0.516,1.709-0.444c0.561,0.085,1.233,1.056,1.6,1.437
	c0.975,1.012,1.735,2.046,2.374,3.312c0.726,0.133,1.701-0.259,2.395-0.459c1.243-0.359,2.679-0.71,3.786-1.413
	c1.03-0.654,1.79-1.77,2.684-2.591c-0.593-0.957-0.944-2.138-0.853-3.251c1.355,0.111,2.043-1.261,2.057-2.435
	c0.001-0.117-0.016-0.227-0.032-0.336c3.51-2.04,8.858-5.43,14.422-10.641c8.855-8.294,22.349-14.838,23.557-13.789
	c6.59,5.722,2.35,19.111,0.59,31.522c-2.052,14.473-10.709,28.871-5.059,34.979c27.574,29.812,112.127,21.567,120.498,19.892
	c23.93-4.786,39.175-22.042,68.64-21.034c10.116,0.346,21.907,2.844,36.302,8.739c28.054,11.488,29.698,28.386,29.698,28.386
	s2.494-3.819,2.798-5.249c0.509-2.396-4.818-9.478-3.119-13.724c0.256-0.639,5.869-2.332,6.842-7.195
	c2.07-10.35,3.03-19.728-2.173-37.892c-4.105-14.333-9.387-33.975-4.265-38.244c5.122-4.268,9.75-5.923,16.247-6.168
	c7.973-0.301,9.477,1.203,17.451,0.451C393.037,234.992,388.895,226.563,386.937,219.311z"/>
<path d="M123.343,201.037c0.378,0.233-2.27,2.038-3.522,2.057c1.802-2.029,5.957-8.413,7.396-11.075
	c0.831-1.538,3.812-6.277,4.824-9.301c0.804-2.4,8.538-3.146,11.049-3.547c1.851-0.295,8.88-0.368,10.708,0.409
	c1.391,0.591-3.628,16.777-4.61,18.052c-1.126,1.463-4.898,0.583-6.392,0.733c-1.74,0.174-3.443,0.496-5.196,0.669
	c-2.479,0.245-5.056,0.685-7.56,1.069c-1.586,0.243-5.251-0.066-6.383,1.116c-0.241-0.111-0.348-0.295-0.47-0.497"/>
<polygon display="none" fill="#0A0A54" points="100.065,298.446 101.596,273.943 126.354,269.859 125.844,298.701 "/>
<path fill="#8C2525" d="M336.913,235.498"/>
<path fill="#8C2525" d="M337.013,226.134"/>
<polygon points="281.187,183.01 287.96,199.634 332.906,207.535 326.749,184.447 "/>
<path fill="#8C2525" d="M104.94,248.297l-2.682-0.322c0,0-0.615-2.634-1.763-4.885c-0.666-1.306-1.976-2.525-4.233-2.525
	c-0.039,0-2.195,0-2.195,0s-15.656-1.183-15.408-6.153c0.005-0.102,0.536-0.513,0.536-0.513s26.387-15.327,36.684-23.801
	s-5.685,35.403-5.685,35.403L104.94,248.297z"/>
<path fill="#8C2525" d="M351.276,238.312c-0.704-4.225-4.07-14.564,2.734-14.062c1.57,0.116-5.016-0.234-9.297-4.077
	c-4.345-3.9-9.72,9.967-9.72,9.967L351.276,238.312z"/>
</svg>
