<?xml version="1.0" encoding="utf-8"?>
<!-- Generator: Adobe Illustrator 17.0.0, SVG Export Plug-In . SVG Version: 6.00 Build 0)  -->
<!DOCTYPE svg PUBLIC "-//W3C//DTD SVG 1.1//EN" "http://www.w3.org/Graphics/SVG/1.1/DTD/svg11.dtd">
<svg version="1.1" id="Layer_1" xmlns="http://www.w3.org/2000/svg" xmlns:xlink="http://www.w3.org/1999/xlink" x="0px" y="0px"
	 width="547.589px" height="530.57px" viewBox="0 0 547.589 530.57" enable-background="new 0 0 547.589 530.57"
	 xml:space="preserve">
<ellipse transform="matrix(0.9789 0.2045 -0.2045 0.9789 48.5625 -52.7426)" fill="none" stroke="#49300E" stroke-width="4" stroke-miterlimit="10" cx="279.483" cy="208.604" rx="91.392" ry="47.554"/>
<g>
	<path fill="#224089" stroke="#454649" stroke-width="5" stroke-miterlimit="10" d="M456.665,78.186
		c-9.999-8.98-30.673-19.118-37.171-19.195c-12.282-2.097-9.182,9.43-8.061,9.318c0.439-0.044,5.038,3.868,10.422,9.743
		c5.93,6.471,12.81,15.326,16.143,23.918c0.594,1.479,1.088,3.011,1.513,4.687c2.714,10.721-2.677,15.822-9.885,20.72
		c-4.516,3.371-10.299,6.814-16.686,9.954c-7.047,3.465-14.827,6.56-22.458,8.772c-19.981,5.795-43.153,3.028-44.706,2.479
		c-1.827-0.646,7.648,22.399,15.558,41.024c1.812,10.578,11.027,29.127,13.075,28.873c2.822-0.351,70.807-13.022,97.188-53.207
		S475.553,95.148,456.665,78.186z"/>
</g>
<path fill="#D8D8D8" stroke="#424447" stroke-width="6" stroke-miterlimit="10" d="M234.239,133.048
	c1.014-0.634,1.587-1.038,1.587-1.038c-25.393-3.768-70.411-25.803-76.217-54.081c-2.008-9.781,0.484-22.552,10.161-33.166
	c6.395-7.014,16.573-12.491,28.36-17.669c1.861-0.817,0.054-0.744-0.166-1.077c-0.132-0.2,2.193-0.088,0.943-1.686
	c-4.306-5.502-7.732-6.311-7.732-6.311s-69.038,0.506-82.389,52.76c-0.688,2.692-0.982,4.347-1.005,5.255
	c-10.004,63.54,85.169,120.58,85.169,120.58l23.21-13.175C216.158,183.441,246.736,143.058,234.239,133.048z"/>
<path fill="#D8D8D8" d="M235.001,133.3c1.011-0.638,1.583-1.045,1.583-1.045c-25.409-3.657-70.522-25.496-76.452-53.748
	c-2.051-9.772,0.385-22.554,10.016-33.21c6.365-7.042,16.519-12.563,28.283-17.793c1.857-0.826,0.051-0.744-0.171-1.076
	c-0.133-0.199,2.193-0.098,0.936-1.69c-4.33-5.484-7.76-6.278-7.76-6.278S122.4,19.268,109.277,71.58
	c-0.676,2.695-0.963,4.351-0.983,5.26c-9.727,63.583,85.694,120.208,85.694,120.208l23.152-13.276
	C217.141,183.771,247.542,143.255,235.001,133.3z"/>
<path fill="#CECECE" d="M200.196,175.75c0,0-11.047,1.928-16.455-0.695c-5.409-2.623-9.291-8.071-19.191-7.627
	c-9.901,0.444-9.15-9.841-12.21-9.263c-3.06,0.578-9.287-5.536-10.722-5.582c-1.435-0.046-0.889,0.41-0.475,0.953
	c0.178,0.234,7.953,8.475,18.187,17.163c13.529,11.485,30.716,24.242,34.016,25.14C199.142,197.416,200.196,175.75,200.196,175.75z"
	/>
<ellipse transform="matrix(0.981 0.1938 -0.1938 0.981 45.7154 -50.2967)" fill="#EAD192" cx="279.981" cy="208.554" rx="90.973" ry="47.336"/>
<path fill="#E5E5E5" stroke="#000000" stroke-width="7" stroke-miterlimit="10" d="M340.226,195.029
	c-27.57-61.539-56.649-92.958-56.94-93.269l-0.448-0.478l-0.387,0.53c-75.241,102.997-97.657,160.403-114.169,210.375l-1.246,3.769
	c-13.368,40.417-24.914,75.323-26.004,124.941c-0.451,20.557-0.875,38.137,7.741,62.948c2.441,7.029,10.884,14.136,19.382,15.23
	c1.082,0.139,8.923,0.779,10.929,0.386c16.967-3.326,39.638-29.883,56.671-35.491c19.536-6.432,47.139-8.198,66.737,0
	c21.123,8.836,33.599,25.223,45.09,29.475c12.19,4.51,21.6,2.595,21.625,2.595c2.316,0,14.67-4.114,17.383-15.107
	c2.723-11.035,3.699-25.084,3.71-25.242C394.996,346.581,365.661,251.803,340.226,195.029z"/>
<path fill="#D1D1D1" d="M213.242,324.87c0,0,38.998,18.567,63.032,14.822c24.398-3.802,39.576-9.651,51.589-18.103
	c12.098-8.512,19.782-21.316,19.782-24.197S217.335,294.336,213.242,324.87z"/>
<ellipse cx="263.354" cy="294.436" rx="70.607" ry="46.221"/>
<path fill="#F4F4F4" d="M210.738,171.009c0,0,0.784-9.117-20.118-19.717s-52.047-44.662-48.877-45.92
	c3.17-1.258,36.513,29.675,38.76,30.251c2.247,0.576,21.376,9.366,24.035,9.594c2.659,0.229,13.264,1.523,14.665-1.418
	C220.602,140.858,210.738,171.009,210.738,171.009z"/>
<path d="M377.074,304.843c-10.062-45.355-23.66-82.118-36.322-109.813c-28.134-61.539-57.808-92.958-58.104-93.269l-0.457-0.478
	l-0.395,0.53c-68.655,92.098-94.209,147.742-110.895,194.214C220.663,286.831,304.238,288.636,377.074,304.843z"/>
<ellipse fill="#E53017" cx="263.011" cy="291.819" rx="66.264" ry="43.603"/>
<path fill="#8C3128" d="M303.778,314.911c-6.712,4.738-13.906,6.236-18.659,8.199c-12.808,5.29-21.75,5.693-36.046,7.068
	c-6.236,0.6-14.81-1.066-20.8-1.228c10.101,4.101,21.997,6.472,34.737,6.472c36.596,0,66.264-19.522,66.264-43.603
	c0-6.391-2.107-12.455-5.861-17.924c-0.982,6.466,1.8,16.747-2.814,24.478C316.698,304.912,310.988,309.823,303.778,314.911z"/>
<ellipse transform="matrix(0.9791 -0.2035 0.2035 0.9791 -57.8109 67.4888)" opacity="0.6" fill="#F9F7F7" cx="299.197" cy="314.797" rx="13.824" ry="8.482"/>
<ellipse opacity="0.6" fill="#F9F7F7" cx="253.338" cy="268.516" rx="32.288" ry="18.064"/>
<ellipse opacity="0.5" fill="#F9F7F7" cx="246.719" cy="261.126" rx="13.001" ry="7.806"/>
<path d="M172.881,288.408c0,0-5.707,15.361-11.77,17.861c-6.063,2.501-7.133,6.073-8.916,8.931
	c-0.543,0.871-0.988,2.306-1.322,3.951c-0.763,3.753-0.957,8.6-0.461,10.338c0.713,2.501,3.21,12.503,4.28,13.932
	c1.07,1.429,1.07,1.429,1.07,1.429"/>
<path fill="none" d="M92.853,432.391c0.591-3.903,7.263-6.742,10.489-7.783c2.097-0.677,7.133-1.231,8.274-2.931
	c0.751,3.802,6.958,9.062,9.628,11.941c2.263,2.441,4.502,4.345,6.5,6.989c-0.082-0.187-0.295-0.551-0.347-0.739
	c0.421,7.629-1.61,15.894-2.144,23.38c-0.239,3.357,0,6.815,0,10.183c0,4.076,1.196,8.514,0.886,12.289
	c-8.624,1.778-15.149,6.513-24.305,3.157c-6.518-2.39-12.484-5.026-18.575-8.364c-0.237,0.001-0.234,0.018,0.011,0.053
	c1.069-2.735-11.458-15.716-1.239-15.713c3.662,0.001,7.191,3.513,10.813,3.966c5.63,0.704,4.603-2.446,6.156-7.18
	c1.346-4.101,2.202-6.276,0.1-10.424c-1.196-2.36-1.922-3.787-1.927-6.481c-0.005-2.425,1.897-4.836,1.789-6.866
	c-0.129-2.42-3.799-5.593-6.109-6.095"/>
<path d="M387.434,359.261c0,0-1.88-16.278,2.39-21.256c4.27-4.978,3.604-8.647,3.897-12.003c0.089-1.023-0.165-2.503-0.613-4.121
	c-1.021-3.691-3.047-8.098-4.277-9.423c-1.77-1.905-8.531-9.688-10.132-10.476c-1.602-0.788-1.602-0.788-1.602-0.788"/>
<path d="M440.617,287.996c-2.26-1.451-4.501-5.783-4.921,9.126c-0.09,3.191-5.783,18.358-7.532,27.459
	c-1.017,5.289-0.85,6.781-7.074,7.377c-6.881,0.659-18.552-7.632-23.054-9.784c-2.732-1.306-12.384-6.565-14.247-1.395
	c-1.461,4.055,7.327,8.776,9.951,10.372c5.785,3.519,13.148,4.42,19.369,7.394c2.948,1.409,11.33,7.272,14.642,5.19
	c2.141-1.346,5.244-10.32,5.923-12.382c2.8-8.515,4.531-17.521,7.841-25.872c2.366-5.968,12.947-13.911,0.223-16.95"/>
<path d="M72.619,349.517"/>
<path d="M86.306,261.365c0.069-2.391-11.049-9.184-15.848-15.697c-2.113-2.868-8.401-11.321-10.476-12.959
	c-2.068-1.633-6.698-3.972-9.251-4.245c-2.619-0.28-11.065-0.795-12.516,2.503c-1.057,2.868,2.12,8.197,4.462,9.795
	c5.07,3.459,10.477,9.631,12.734,11.537c3.756,3.173,5.774,7.343,7.248,17.354c-6.704-0.457-16.202-9.608-22.746-12.58
	c-5.254-2.386-21.934-2.812-23.184,1.645c-0.536,1.912-0.43,7.552,0.653,9.036c1.056,1.448,7.554,2.968,9.549,4.129
	c3.3,1.92,9.378,3.104,12.174,5.702c4.803,4.461,10.594,5.982,11.883,12.358c1.666,8.239-2.233,18.897,5.048,24.542
	c12.875,9.981,34.429,19.493,44.472-2.714c2.065-4.565,1.494-3.666,4.985-7.917c2.59-3.154,7.951-5.458,10.409-8.65
	c5.28-6.857-4.944-14.741-6.744-22.871c-2.081-9.396-2.193-18.874-12.315-16.86c-3.208,0.638-9.296,2.715-10.556,5.864"/>
<path d="M-19.626,295.104"/>
<path d="M96.792,290.066c2.087-1.69,4.324,4.158,5.892,8.532c1.657,4.622,2.465,9.603,4.063,14.354
	c0.507,1.506,7.203,18.773,14.273,18.671c6.912-0.1,17.604-9.62,21.843-12.252c2.573-1.598,11.59-7.882,14.009-2.948
	c1.897,3.87-6.321,9.526-8.754,11.4c-5.365,4.132-12.584,5.835-18.442,9.472c-2.776,1.724-10.465,8.47-13.985,6.764
	c-2.275-1.103-6.344-9.683-7.244-11.658c-3.716-8.157-7.651-18.909-12.599-17.541c-6.188,1.711-12.423-19.724-0.109-24.139"/>
<path d="M454.511,255.365c0.407,0.883,12.317-7.395,17.116-13.908c2.113-2.868,10.257-11.619,12.619-12.807
	c2.584-1.299,5.646-2.807,8.199-3.08c2.619-0.28,4.622-0.354,8.217,1.643c2.672,1.484,3.177,4.039,2.191,6.711
	c-2.023,5.485-6.18,8.622-8.457,10.546c-3.243,2.739-15.87,10.4-18.109,17.843c-0.355,1.178,0.479,2.052,1.285,2.595
	c6.704-0.457,16.788-10.862,23.332-13.833c5.254-2.386,12.084-3.591,17.699-2.496c1.948,0.38,4.793,3.287,2.876,9.039
	c-0.567,1.7-1.506,4.656-7.593,8.266c-3.283,1.947-13.116,3.136-18.503,6.148c-5.721,3.199-14.334,10.444-9.908,5.677
	c3.244-3.494,10.997,14.122,3.715,19.767c-12.875,9.981-38.839,30.503-48.881,8.296c-2.065-4.565-1.494-3.666-4.985-7.917
	c-2.59-3.154-7.951-5.458-10.409-8.65c-5.28-6.857,2.311-15.823,6.744-22.871c5.371-8.539,0.879-10.286,12.858-13.78
	c3.14-0.916,8.753-0.365,10.013,2.784"/>
<path fill="none" d="M241.804,28.723c1.023-0.104,2.037-0.259,3.043-0.465"/>
<path fill="#D6D6D6" d="M426.342,60.663c-20.924-8.484-16.833,7.231-15.526,7.095c1.307-0.136,39.628,34.599,25.744,52.213
	c-6.824,8.657-27.067,19.987-46.355,25.672c-19.956,5.882-43.139,3.216-44.694,2.674c-3.058-1.066,25.757,63.941,25.757,63.941
	l41.676-10.983l50.116-39.783l14.621-42.516l-16.633-31.614L426.342,60.663z"/>
<path fill="#F4F4F4" d="M342.923,186.929c0,0,2.502-8.802,25.805-11.296c23.303-2.494,64.508-23.289,61.991-25.59
	c-2.517-2.301-44.667,14.789-46.971,14.53c-2.305-0.259-23.308,1.172-25.875,0.442c-2.567-0.73-12.941-3.282-13.207-6.529
	C344.399,155.24,342.923,186.929,342.923,186.929z"/>
<path fill="#CECECE" d="M363.116,182.131c2.347-0.303,16.843,21.717,18.696,25.524c1.654,3.399,8.072-3.008,11.117-4.613
	c3.095-1.632,10.56-1.822,12.891-1.598c7.657,0.737,10.324-4.99,13.974-6.671c1.669-0.769,2.836-2.202,7.435-5.54
	c2.316-1.682,6.608-5.015,9.406-7.85c1.568-1.589,9.746-6.654,11.349-8.374c4.166-4.472,2.454-3.76,5.912-9.441
	c2.917-4.792,4.136,1.384,8.895-11.942c1.708-4.782,5.065-4.779,5.831-11.258c0.55-4.656,5.157-13.928,3.038-19.945
	c-1.164-3.304,0.095-11.266-0.936-14.377c-1.267-3.822-8.717-6.08-10.48-10.187c-4.999-11.643-12.487-21.762-25.057-25.905
	c-12.88-4.245-22.205-11.516-16.443-11.552c6.4-0.04,27.262,10.06,37.345,19.036c18.961,16.88,41.517,46.722,15.312,87.021
	c-26.206,40.299-94.134,53.267-96.955,53.63S355.042,183.175,363.116,182.131z"/>
<path fill="#CECECE" d="M178.88,107.355c0,0-10.733-8.912-16.409-21.29c-4.709-10.269-5.469-23.003,2.015-34.284
	c5.51-8.306,15.168-17.486,32.848-24.308c5.591-2.158-5.214-5.442-6.37-5.13c-5.96,1.608-12.572,3.79-16.286,5.157
	c-4.693,1.728-7.833,1.772-7.833,1.772c-5.962,3.111-3.32,3.261-6.735,6.348c-3.338,3.017-9.025,5.964-9.933,11.036
	c-0.281,1.569-2.248,1.956-3.48,4.741c-1.232,2.786-2.458,6.008-2.613,7.786c-0.251,2.875,0.848,7.367,1.441,10.404
	c0.455,2.334,0.447,6.16,1.403,8.661c1.024,2.679,4.038,6.086,5.542,9.571c1.728,4.004,0.815,5.616,2.441,8.29
	c1.825,3,5.237,2.343,7.031,3.864c3.338,2.829,5.609,5.824,5.935,6.252C168.961,107.652,178.88,107.355,178.88,107.355z"/>
<path fill="#CECECE" d="M400.081,142.334c0,0,12.815-4.701,24.153-12.243c9.406-6.257,18.207-10.998,14.827-24.107
	c-2.347-9.102-6.718-13.936-18.167-29.037c-3.621-4.776,2.484-4.257,3.303-3.384c4.224,4.502,10.975,9.631,13.415,12.748
	c3.082,3.938-1.397,7.894,5.519,10.192c6.382,2.12,3.754,3.451,5.035,7.872c1.252,4.322-4.997,17.1-7.126,18.724
	c-2.28,1.74-4.258,6.396-7.369,8.569c-3.575,2.497-3.784,4.352-6.574,5.771c-3.13,1.592-4.631,2.288-6.957,2.638
	c-4.327,0.651-7.148,3.203-7.65,3.396C410.818,144.115,400.081,142.334,400.081,142.334z"/>
<path fill="none" d="M228.113,127.149c1.433,1.279,2.006,0.616,2.011-1.166"/>
<path fill="#846B39" d="M234.572,131.437c3.415-4.479-4.016-8.253-7.138-10.499c-0.018,1-0.672,2.263-0.666,3.233
	c-1.782-2.159-3.797-4.359-5.961-6.003c-0.021,1.226-0.788,2.699-0.769,3.935c-2.079-2.514-5.498-5.1-9.013-5.382
	c0.26,1.596-0.143,3.505,0.664,5.235c-2.453,0.027-4.975-0.945-7.07-2.128c0.471,1.901,1.553,4.52,1.107,6.54
	c-2.608-1.114-5.574-2.59-8.351-1.837c0.934,1.502,1.798,3.815,2.052,5.53c-1.642-0.566-3.952-0.617-5.564-1.26
	c0.077,0.833-0.262,1.793-0.133,2.743c-3.185-0.04-5.721-2.235-8.706-2.957c1.013,2.977,4.106,4.68,4.525,8.231
	c-3.064-0.694-6.842-1.243-7.88,2.29c2.309,0.239,3.95,1.847,4.405,4.221c-2.67-1.03-6.812-3.416-9.054-1.326
	c2.372,2,5.511,3.947,6.584,6.837c-1.712-0.191-3.612,0.425-5.156,0.313c1.169,0.525,2.194,1.751,3.016,2.226
	c-2.467-0.022-5.329,0.906-6.855,2.624c2.287,1.34,7.278,3.031,6.705,6.2c-0.366,2.023-6.089,3.104-7.776,4.717
	c1.256-0.013,2.687,0.381,4.05,0.209c-0.887,0.279-2.191,1.071-3.625,1.3c1.119,0.19,2.769,1.269,3.656,1.538
	c-3.756,1.359-5.772,3.807-8.013,6.986c1.812-0.301,3.666,0.502,5.126,0.825c-1.498,2.186-4.04,3.927-4.57,6.784
	c1.678-1.3,3.851-1.414,5.967-0.568c-0.649,2.215-1.967,4.208-3.105,6.331c0.924-0.615,2.06-0.922,2.964-1.585
	c-0.819,1.183-1.118,2.902-1.833,4.119c1.791-1.27,3.436-0.859,5.081-0.775c-0.572,0.838-0.991,1.769-0.579,2.45
	c0.651-0.577,1.479-0.926,2.362-1.012c-0.918,1.696-1.723,3.18-2.158,5.135c1.227-1.408,3.21-1.547,4.393-3.029
	c-1.239,2.341-1.694,5.475-1.315,7.986c1.37-0.358,2.689-2.938,3.575-4.237c-0.058,1.606-1.41,4.489-0.758,5.751
	c2.583-3.189,5.947-8.168,5.817-12.909c-0.021-0.758,3.16-7.484,2.955-7.999c3.116-5.624,3.25-12.462,7.306-16.941
	c2.886-3.187,7.208-5.203,10.367-8.088c3.071-2.804,4.996-5.955,8.335-8.36c2.534-1.825,5.363-2.734,7.84-4.96
	C230.497,141.067,235.998,136.191,234.572,131.437z"/>
<path fill="#FCFBFA" d="M286.084,90.652c-12.568,0.022-21.607,6.08-24.955,17.816c-2.016,7.066-1.922,7.409,4.373,12.747
	c8.251,6.996,27.021,15.627,38.409,12.786c14.418-3.597,17.344-27.733,7.073-36.925c-5.702-5.103-17.853-7.14-25.106-9.957
	c-0.622,0.803-0.142,1.199-0.426,2.06"/>
<path fill="#846B39" d="M349.771,147.297c-0.721-5.586,7.602-5.143,11.428-5.529c-0.484,0.875-0.548,2.296-1.039,3.133
	c2.622-0.98,5.467-1.879,8.162-2.222c-0.594,1.072-0.666,2.732-1.3,3.793c3.057-1.139,7.31-1.671,10.496-0.159
	c-1.023,1.252-1.627,3.108-3.19,4.204c2.111,1.249,4.781,1.667,7.187,1.688c-1.358,1.412-3.604,3.14-4.226,5.112
	c2.815,0.338,6.122,0.541,8.152,2.581c-1.56,0.835-3.463,2.407-4.541,3.765c1.705,0.33,3.732,1.439,5.449,1.688
	c-0.483,0.683-0.669,1.684-1.255,2.442c2.779,1.556,6.073,0.922,9.019,1.788c-2.365,2.073-5.895,2.003-8.032,4.869
	c3.001,0.93,6.548,2.341,5.682,5.92c-2.12-0.947-4.344-0.373-5.924,1.455c2.827,0.442,7.608,0.444,8.506,3.375
	c-3.054,0.547-6.746,0.665-9.119,2.633c1.578,0.69,2.917,2.172,4.31,2.847c-1.275-0.129-2.775,0.421-3.725,0.422
	c2.149,1.213,4.164,3.447,4.627,5.697c-2.651,0.018-7.819-1.01-8.906,2.021c-0.694,1.936,3.724,5.731,4.38,7.971
	c-1.082-0.639-2.518-1.012-3.613-1.842c0.629,0.685,1.363,2.022,2.491,2.937c-1.064-0.394-3.032-0.284-3.935-0.494
	c2.575,3.054,3.098,6.182,3.452,10.055c-1.419-1.166-3.426-1.396-4.853-1.847c0.205,2.642,1.538,5.42,0.569,8.16
	c-0.804-1.965-2.63-3.149-4.885-3.473c-0.544,2.243-0.398,4.628-0.473,7.035c-0.493-0.994-1.323-1.828-1.776-2.854
	c0.118,1.434-0.482,3.072-0.47,4.483c-1.325-2.881-1.213-7.199-3.297-8.707c-2.194-1.587-2.853-1.309-2.69-3.008
	c0.203-2.124-0.074-1.908-0.261-4.1c-0.534-6.259-2.753-13.512-4.084-19.673c-0.908-4.202-3.645-8.108-4.94-12.186
	c-1.259-3.963-1.353-7.655-3.044-11.406c-1.284-2.847-3.28-5.048-4.313-8.213C348.489,157.675,346.16,150.702,349.771,147.297"/>
<path fill="none" stroke="#443B31" stroke-width="5" stroke-miterlimit="10" d="M191.221,195.551
	c4.046-25.831,46.557-38.513,96.585-30.575c44.778,7.105,79.334,29.782,83.194,52.985c-0.14-49.476-31.184-93.048-76.172-100.08
	c-48.515-7.583-94.794,28.943-106.161,82.127l1.816,0.287C190.523,199.365,191.076,196.479,191.221,195.551z"/>
<path fill="#515151" d="M369.808,219.176c-0.091-1.107-0.818-1.845-1.202-2.845c-0.486-1.267-0.042-2.717-0.522-3.943
	c-0.355-0.905-1.054-1.808-1.426-2.783c-0.402-1.054-0.804-2.168-1.465-3.223c-1.392-2.226-2.962-3.873-4.727-5.836
	c-1.108-1.232-1.78-2.597-2.836-3.81c-0.83-0.954-2.756-3.478-4.139-3.563c-2.679-0.165-0.609,4.543-0.063,5.61
	c0.837,1.636,1.694,2.947,2.329,4.694c0.491,1.348,1.007,2.802,1.595,4.134c0.896,2.028,2.127,3.946,2.91,6.011
	c0.834,2.199,1.593,4.549,2.591,6.707c0.827,1.788,2.467,4.021,4.633,3.885C370.158,224.045,369.975,221.205,369.808,219.176z"/>
<path fill="#515151" d="M365.273,223.342c1.862-0.113,3.578-1.081,4.382-2.791c1.258-2.673-0.426-4.705-0.747-7.278"/>
<path fill="#E5D83C" d="M349.997,189.993c-3.297,11.776-6.929,24.377-3.253,36.362c4.594,14.977,21.124,23,34.867,22.171
	c13.473-0.813,16.853-2.626,25.989-5.369c7.682-2.306,14.15-4.847,19.893-0.991c1.133,0.761,2.528,0.152,3.509,1.31
	c6.043,7.131-1.001,11.562,2.186,18.367c3.275,6.991,11.741,7.705,12.883,17.021c9.347-15.522,17.248-26.065-0.316-37.638
	c-6.902-4.548-10.716-9.702-15.49-12.424c-10.923-6.228-9.895-2.534-11.859-4.104c-5.355-4.28-15.939,0.314-28.024-0.9
	c-6.46-0.649-10.873,4.51-11.242,3.77c-2.964-5.942-7.268-1.985-10.005-5.379c-6.527-8.093-5.893-37.854-17.086-37.047
	c-0.852,2.686-3.056,4.133-4.152,6.21"/>
<path fill="#E5D83C" d="M217.565,173.226c0.761,12.205,1.677,25.287-4.425,36.239c-7.625,13.685-25.468,18.072-38.733,14.388
	c-13.005-3.613-15.931-6.093-24.291-10.686c-7.03-3.862-12.824-7.7-19.245-5.13c-1.268,0.507-2.504-0.38-3.705,0.547
	c-7.4,5.709-1.439,11.516-5.98,17.503c-4.665,6.152-13.092,5.079-16.158,13.95c-5.894-17.134-11.414-29.096,8.181-36.739
	c7.7-3.004,12.508-7.246,17.746-8.909c11.984-3.806,10.206-0.408,12.455-1.533c6.132-3.066,15.52,3.641,27.592,4.982
	c6.453,0.717,9.689,6.684,10.205,6.038c4.141-5.19,7.522-0.421,10.908-3.167c8.076-6.549,13.68-35.784,24.457-32.654
	c0.271,2.805,2.124,4.681,2.762,6.941"/>
<path fill="#A0864B" d="M218.388,187.612c-0.04-0.826-0.772-4.162-0.72-5.119c0.184-0.393,0.34-0.814,0.43-1.302
	c0.546-2.982,2.11-6.728,2.536-9.257l-4.4,1.973c-0.603,2.807,1.508,4.477-0.387,6.928c-1.199,1.551-2.805,2.962-4.345,4.116
	c-2.115,1.585-3.497,2.706-3.557,5.392c1.417-3.761,6.39-3.901,8.854-6.551c-0.173,1.069-0.019,2.641-0.099,3.516
	c-0.11,1.2-0.425,2.533-0.76,3.708c-0.806,2.834-1.589,5.576-4.428,6.973c-1.85,0.911-3.76,1.322-5.633,1.989
	c0.978-3.553-1.208-6.933-2.099-10.352c-0.993-3.81-0.3-9.457,1.631-12.981l-0.041-0.041c-3.655,2.1-4.4,5.249-3.981,8.729
	c-0.006-0.004-0.01-0.008-0.015-0.011c-1.55-0.997-4.232,6.988-5.428,8.433l0.728-0.857c-1.659,2.185-2.525,4.524-3.054,6.963
	c-3.733-0.259-8.174,0.818-11.466,2.38c-0.784,0.372-1.509,0.819-2.205,1.303c0.067-0.37,0.077-0.8,0.06-1.298l-0.151,1.36
	c-0.044,0.031-0.088,0.06-0.132,0.091c-1.869-6.179-8.33-8.984-14.343-8.923c-2.13,0.021-3.893,0.427-5.614,1.126
	c-1.057-6.498-9.499-5.59-14.114-4.25c-0.558,0.162-1.091,0.369-1.614,0.595c-1.113-0.274-2.018-1.136-3.122-1.49
	c-1.135-0.364-2.24-0.375-3.449-0.389c-3.865-0.044-6.427,1.338-9.776,3.118c-2.481,1.319-4.618,3.026-5.989,5.499
	c-0.702,1.267-1.241,3.034-1.92,4.577c-0.12-0.252-0.239-0.504-0.371-0.727l1.356-1.808c-4.072,1.318-11.173,1.307-7.797,6.429
	c2.86,4.339,6.714,4.663,5.535,11.181c-1.027,5.674-7.08,8.057-10.297,12.693c-2.927,4.22-3.207,8.116-3.289,13.35
	c1.265-8.955,13.23-11.326,15.757-19.713c1.129-3.746,1.449-10.685,0.576-16.177c1.773,0.796,3.813,1.341,5.101,1.792
	c4.262,1.493,7.963-1.469,11.412-3.745c-0.039-0.207-0.086-0.394-0.143-0.562c1.215,0.824,2.409,1.422,3.492,2.456
	c1.391,1.328,2.686,3.216,4.197,4.402c1.463,1.149,3.539,1.678,5.182,2.481c3.515,1.719,6.262,3.09,10.348,2.687
	c0.705-0.069,2.678-0.086,3.747-0.454c0.062,0.087,0.117,0.176,0.182,0.262c2.55,3.387,5.3,4.981,9.283,5.978
	c2.264,0.567,6.494,2.282,8.895,1.471c0.274,0.166,0.547,0.333,0.829,0.478c2.66,1.37,5.735,0.804,8.501,0.241
	c3.937-0.802,7.551-1.795,10.707-4.473c2.025-1.719,3.002-4.211,4.851-5.978c1.517-1.45,3.636-2.577,4.533-4.581
	c0.525-1.171,0.839-2.223,1.459-3.307c0.962-1.684,2.449-4.877,2.258-6.614c-0.005-0.006-0.012-0.008-0.017-0.013
	c1.429-1.829,2.159-4.304,2.405-6.509C218.739,192.479,218.5,189.945,218.388,187.612z M171.385,220.49
	c-3.267-1.318-4.807-3.902-6.691-6.691c-3.213-4.756-5.887-12.408-12.421-12.702c2.496,0.59,3.113,2.07,4.326,4.228
	c0.917,1.63,2.278,2.652,3.343,4.202c0.961,1.398,1.673,2.911,2.415,4.419c-1.016-0.1-2.193,0.416-3.191,0.371
	c-1.547-0.07-3.081-0.398-4.637-0.565c-3.352-0.359-6.325-3.301-8.823-5.332c-3.045-2.477-5.296-4.353-9.202-5.02
	c-2.531-0.432-5.762-1.633-8.182-0.186c2.001-0.033,4.407-0.383,6.116,0.512c0.656,0.344,1.192,0.822,1.723,1.311
	c-0.539-0.007-1.185,0.216-1.91,0.616c-1.882,1.038-3.788,1.808-5.982,2.288c-1.643,0.36-3.374,0.32-4.987-0.177
	c-0.793-0.244-1.607-0.685-2.437-1.058c-0.187-0.785-0.404-1.515-0.654-2.181c2.809-2.637,4.314-6.495,7.905-8.415
	c3.439-1.839,8.239-2.945,11.909-1.476c-1.146,0.841-2.247,1.749-3.344,2.63c-1.418,1.138-3.866,3.803-6.009,4.582
	c5.053-1.118,9.019-5.897,13.715-7.834c3.629-1.497,12.258-2.033,14.457,2.302c-0.016,0.008-0.033,0.014-0.049,0.022
	c-0.075-0.068-0.149-0.137-0.228-0.222l0.224,0.224c-0.702,0.331-1.408,0.706-2.14,1.123c-3.374,1.921-7.566,2.587-11.443,2.289
	c3.451,1.215,8.437,0.442,12.032,0.057c3.47-0.372,6.889-2.167,10.52-1.542c3.201,0.55,5.739,2.534,7.813,4.733
	c0.863,0.915,1.11,2.015,2.538,1.952c-2.574,2.074-4.998,4.3-8.719,4.74c0.172,0.142,0.366,0.244,0.569,0.327
	c-0.72,0.289-1.33,0.728-1.633,1.339c0.793,0.216,1.68-0.043,2.469,0.166c0.94,0.249,1.87,1.17,2.579,1.791
	c1.658,1.452,2.17,3.045,3.054,4.933c0.47,1.005,1.073,1.979,1.759,2.903C177.327,220.838,172.663,221.005,171.385,220.49z
	 M184.17,218.846c-2.737-1.387-5.678-3.359-7.349-5.943c-0.889-1.375-1.651-2.676-3.361-3.154c-0.05-0.014-0.112-0.019-0.165-0.031
	c2.155-0.831,4.405-2.502,5.398-3.484c3.363-3.326,9.728-5.456,14.339-3.626l0.102,0.051c-0.433,3.168-0.618,6.46-1.477,9.772
	c-0.082-0.012-0.166-0.027-0.248-0.039c-1.906-0.266-6.976,0.51-7.101,3.113c0.837-1.43,2.98-1.091,4.403-0.932
	c1.791,0.2,3.696,0.749,5.374,1.466c1.916,0.819,4.045,2.526,6.083,2.713c0.245,0.022,0.536,0.029,0.855,0.019
	C195.532,220.819,189.77,221.683,184.17,218.846z M200.291,213.122c-2.634,0.485-5.329-0.152-7.928-0.583
	c3.643-5.504,0.181-12.289,4.198-17.806c0.621-0.853,4.262-3.614,5.494-6.11c1.092,4.05,2.974,8.238,3.225,11.571
	c-0.68,0.267-1.353,0.579-2.015,0.974c-1.468,0.877-2.579,1.83-3.583,3.211c-0.712,0.979-2.69,2.982-2.197,4.188
	c2.237-4.924,10.775-3.625,15.055-4.818c0.422-0.118,0.813-0.28,1.184-0.469C210.644,208.045,206.146,212.044,200.291,213.122z"/>
<path fill="#C12B17" stroke="#561010" stroke-miterlimit="10" d="M131.27,205.625c-2.463-0.348-6.354-0.271-9.065,0.358
	c-0.025-2.237-1.274-4.038-2.831-4.11c-0.232-2.836,0.317-5.519,0.96-8.168c1.247-5.142,0.513-8.587-3.047-12.909
	c-6.674-8.104-22.699,0.984-20.271,11.096c0.952,3.966,5.276,5.452,8.741,6.816c3.118,1.228,8.34,3.583,10.651,6.532
	c-0.036,0.263-0.057,0.534-0.057,0.812c0,2.315,1.312,4.191,2.93,4.191c0.038,0,0.073-0.014,0.111-0.016
	c2.081,2.302,4.525,3.386,5.684,7.011c0.666,2.082,0.314,3.76-0.022,5.73c-0.201,1.177-1.492,4.178-1.042,5.284
	c1.167,2.868,8.278,3.173,10.768,2.137c3.402-1.415,7.192-7.739,8.121-11.253C145.001,211.181,138.157,206.598,131.27,205.625z
	 M113.921,201.558c-2.009-2.012-4.501-5.071-7.138-6c-2.974-1.047-6.847,0.792-6.305-4.067c0.342-3.062,2.585-6.194,5.276-7.231
	c2.371-0.914,6.418-1.073,8.864-0.322c3.876,1.19,3.555,4.198,3.385,7.625c-0.151,3.038-0.514,6.258-0.251,9.344
	c0.029,0.343,0.064,0.89,0.137,1.477c-0.746,0.581-1.304,1.595-1.479,2.821C115.824,203.99,115.153,202.791,113.921,201.558z
	 M135.031,223.769c-3.56,2.309-4.156-0.862-5.589-3.454c-1.763-3.186-2.569-4.781-5.402-7.067c-1.179-0.952-2.696-1.995-4.038-3.149
	c0.725-0.265,1.342-0.907,1.737-1.783c0.777,0.091,1.609,0.135,2.301,0.135c2.411-0.003,6.097-0.704,8.172,0.692
	c0.914,0.615,2.023,2.498,2.89,3.375c0.805,0.815,3.397,2.642,3.65,3.785C139.249,218.545,136.751,222.654,135.031,223.769z"/>
<g>
	<path fill="#BAA54A" d="M192.245,194.492c1.305-8.331,10.468-15.732,18.596-20.8c17.075-10.647,43.103-13.188,76.997-7.81
		c44.778,7.105,79.334,29.782,83.194,52.985c-0.14-49.476-31.184-93.048-76.172-100.08c-48.515-7.583-93.013,24.421-104.38,77.605
		l-0.003,4.294C190.518,199.754,192.1,195.42,192.245,194.492z"/>
</g>
<g>
	<g>
		<path fill="#49300E" d="M281.289,156.215l0.597-4.827c-0.008,0-0.016-0.001-0.023-0.001c0.037,0.002,0.072,0.108,0.113-0.046
			c1.276-4.819,4.246-34.707,4.246-34.707c0.011-0.086-8.611,0.103-8.611,0.103l-0.228,34.89c-0.409-0.037-0.826-0.067-1.233-0.1
			c-41.89-3.433-76.636,10.325-82.515,32.401C203.203,163.382,239.36,151.079,281.289,156.215z"/>
		<path fill="#49300E" d="M371.331,213.552c2.338-24.544-31.472-52.773-75.909-60.392l8.975-34.595c0,0-7.134-1.546-7.333-1.657
			c0,0-6.814,30.051-6.944,35.034c-0.003,0.117,0.008,0.209,0.01,0.317c-0.035-0.005-0.069-0.011-0.103-0.015l-0.555,4.498
			c45.929,6.693,79.287,31.997,80.751,54.658c-10.022-20.28-39.265-43.743-82.136-49.385c-48.079-6.327-89.944,8.077-95.868,32.393
			c9.6-21.641,48.713-33.513,93.839-27.575c14.107,1.857,27.228,6.039,38.241,10.538c26.59,10.863,44.729,28.074,45.955,43.863
			c0.07,0.907,0.041,4.697-0.172,5.574c0.997-2.248,0.992-3.298,1.313-5.737C371.8,217.982,372.041,216.618,371.331,213.552z"/>
	</g>
</g>
<path fill="#A0864B" d="M438.835,237.422l0.948,2.052c-0.175,0.19-0.345,0.412-0.515,0.633c-0.341-1.651-0.498-3.492-0.92-4.878
	c-0.823-2.706-2.555-4.822-4.706-6.63c-2.903-2.441-5.119-4.329-8.908-5.094c-1.185-0.239-2.268-0.46-3.454-0.341
	c-1.154,0.115-2.218,0.769-3.364,0.804c-0.464-0.33-0.942-0.645-1.453-0.92c-4.232-2.276-12.297-4.929-14.69,1.204
	c-1.537-1.043-3.176-1.809-5.254-2.276c-5.867-1.317-12.772,0.075-15.892,5.726c-0.036-0.039-0.074-0.077-0.11-0.116l0.137-1.361
	c-0.121,0.483-0.201,0.906-0.213,1.281c-0.579-0.619-1.195-1.208-1.884-1.735c-2.892-2.216-7.01-4.199-10.714-4.726
	c-0.007-2.496-0.364-4.964-1.53-7.447l0.516,0.95c-0.867-1.663-1.862-10.132-3.561-9.423c-0.006,0.003-0.011,0.005-0.017,0.007
	c0.992-3.664-1.101-2.558-4.237-5.377l-0.468-0.643c1.151,3.85,3.266,6.271,1.497,9.79c-1.587,3.158-4.429,6.01-4.216,9.689
	c-1.692-1.044-3.473-1.843-5.091-3.121c-2.483-1.96-2.675-4.804-2.871-7.744c-0.081-1.219-0.11-2.588,0.033-3.784
	c0.104-0.872,0.584-2.377,0.638-3.458c1.855,3.107,6.689,4.284,7.288,8.258c0.503-2.639-0.613-4.024-2.35-6.017
	c-1.265-1.451-2.54-3.166-3.388-4.933c-1.34-2.793-0.132-3.175-0.134-6.046l-1.988-1.403c-0.113,2.562-0.065,4.297-0.155,7.327
	c-0.015,0.496,0.05,0.94,0.148,1.363c-0.149,0.947-1.563,4.056-1.774,4.855c-0.598,2.257-1.362,4.686-1.594,7.009
	c-0.22,2.208-0.024,4.78,0.99,6.868c-0.006,0.004-0.013,0.005-0.019,0.01c-0.55,1.659,0.236,5.093,0.825,6.94
	c0.379,1.19,0.467,2.284,0.735,3.539c0.459,2.147,2.294,3.693,3.475,5.427c1.439,2.114,1.872,4.755,3.493,6.86
	c2.526,3.279,5.852,5.005,9.534,6.613c2.587,1.129,5.476,2.326,8.364,1.543c0.305-0.083,0.608-0.19,0.91-0.294
	c2.179,1.295,6.673,0.502,9.006,0.422c4.104-0.142,7.126-1.125,10.328-3.904c0.081-0.07,0.153-0.147,0.232-0.218
	c0.968,0.583,2.895,1.012,3.569,1.227c3.911,1.248,6.884,0.482,10.681-0.464c1.775-0.442,3.915-0.525,5.586-1.342
	c1.726-0.844,3.387-2.419,5.025-3.427c1.276-0.785,2.568-1.12,3.929-1.671c-0.091,0.153-0.176,0.326-0.257,0.52
	c2.897,2.948,5.897,6.618,10.377,6.049c1.354-0.172,3.462-0.278,5.363-0.685c-2.003,5.187-3.141,12.041-2.82,15.939
	c0.717,8.731,11.922,13.551,11.286,22.573c1.015-5.135,1.556-9.004-0.424-13.742c-2.175-5.207-7.597-8.803-7.414-14.566
	c0.21-6.62,4.047-6.13,7.751-9.776C449.487,241.037,442.541,239.562,438.835,237.422z M348.525,220.892
	c3.936,2.062,12.557,2.578,13.715,7.861c0.734-1.076-0.781-3.449-1.272-4.555c-0.693-1.56-1.581-2.725-2.832-3.89
	c-0.564-0.525-1.157-0.971-1.766-1.374c0.943-3.207,3.659-6.909,5.574-10.641c0.682,2.699,3.666,6.16,4.095,7.124
	c2.774,6.236-2.03,12.146,0.381,18.291c-2.631-0.123-5.4-0.063-7.874-1.088c-5.5-2.279-9.063-7.13-11.079-12.433
	C347.788,220.449,348.137,220.689,348.525,220.892z M373.111,241.589c-6.07,1.603-11.524-0.447-16.464-3.599
	c0.311,0.076,0.596,0.131,0.84,0.16c2.032,0.244,4.471-0.981,6.516-1.381c1.792-0.35,3.769-0.489,5.562-0.309
	c1.426,0.143,3.591,0.259,4.111,1.832c0.421-2.571-4.373-4.391-6.293-4.529c-0.083-0.006-0.167-0.009-0.25-0.014
	c-0.148-3.418,0.36-6.677,0.599-9.865l0.11-0.028c4.891-0.824,10.67,2.589,13.263,6.545c0.765,1.168,2.616,3.273,4.549,4.536
	c-0.054,0.001-0.116-0.007-0.168-0.004c-1.772,0.11-2.789,1.223-3.946,2.382C379.365,239.492,376.078,240.805,373.111,241.589z
	 M434.971,243.487c-1.681,0.148-3.383-0.175-4.914-0.871c-2.045-0.929-3.747-2.08-5.371-3.489c-0.626-0.543-1.21-0.896-1.739-1.002
	c0.621-0.367,1.246-0.723,1.959-0.922c1.858-0.519,4.137,0.328,6.087,0.778c-2.064-1.921-5.474-1.422-8.04-1.529
	c-3.959-0.165-6.553,1.199-10.049,2.984c-2.867,1.464-6.39,3.719-9.743,3.369c-1.556-0.163-3.125-0.162-4.652-0.417
	c-0.986-0.165-2.028-0.916-3.043-1.031c1.041-1.32,2.054-2.65,3.286-3.816c1.366-1.293,2.91-2.007,4.148-3.41
	c1.637-1.856,2.55-3.175,5.114-3.23c-6.452-1.079-10.666,5.844-14.803,9.823c-2.427,2.334-4.473,4.538-7.943,5.144
	c-1.358,0.237-5.883-0.902-6.77-0.777c0.865-0.76,1.657-1.587,2.327-2.471c1.259-1.661,2.093-3.112,4.018-4.185
	c0.822-0.458,1.925-1.164,2.896-1.212c0.815-0.039,1.629,0.4,2.449,0.354c-0.169-0.661-0.673-1.218-1.317-1.651
	c0.216-0.038,0.426-0.098,0.624-0.2c-3.547-1.209-5.451-3.893-7.535-6.459c1.384,0.36,1.855-0.663,2.891-1.377
	c2.488-1.716,5.385-3.125,8.63-2.994c3.681,0.149,6.649,2.619,9.965,3.708c3.435,1.128,8.149,2.928,11.777,2.461
	c-3.854-0.52-7.814-2.048-10.711-4.632c-0.628-0.56-1.24-1.075-1.858-1.546l0.266-0.172c-0.095,0.066-0.182,0.118-0.27,0.169
	c-0.014-0.011-0.029-0.02-0.043-0.031c3.057-3.779,11.383-1.45,14.619,0.773c4.187,2.877,7.066,8.379,11.773,10.529
	c-1.932-1.21-3.769-4.328-4.918-5.738c-0.889-1.091-1.775-2.209-2.72-3.271c3.897-0.669,8.358,1.417,11.337,3.934
	c3.11,2.629,3.775,6.717,5.97,9.882c-0.383,0.6-0.749,1.268-1.096,1.996C436.686,243.153,435.798,243.414,434.971,243.487z"/>
<path fill="#C12B17" stroke="#561010" stroke-miterlimit="10" d="M413.409,250.505c0.173,3.63,2.557,10.607,5.588,12.702
	c2.218,1.534,9.236,2.723,10.976,0.162c0.671-0.987,0.037-4.192,0.087-5.385c0.083-1.997,0.09-3.712,1.177-5.608
	c1.892-3.302,4.508-3.851,7.025-5.667c0.036,0.01,0.068,0.031,0.105,0.039c1.582,0.338,3.258-1.222,3.742-3.486
	c0.058-0.272,0.094-0.541,0.114-0.806c2.877-2.4,8.475-3.611,11.782-4.159c3.674-0.609,8.213-1.158,9.973-4.837
	c4.489-9.38-9.281-21.619-17.502-15.091c-4.385,3.482-5.824,6.698-5.68,11.987c0.074,2.725,0.049,5.464-0.77,8.188
	c-1.538-0.256-3.136,1.245-3.628,3.427c-2.52-1.182-6.309-2.071-8.79-2.246C420.668,239.235,413.017,242.285,413.409,250.505z
	 M442.226,242.422c0.085-1.236-0.248-2.345-0.857-3.068c0.195-0.559,0.343-1.087,0.443-1.416c0.902-2.962,1.221-6.187,1.708-9.19
	c0.55-3.387,0.866-6.395,4.905-6.748c2.548-0.222,6.473,0.78,8.6,2.169c2.415,1.577,3.954,5.109,3.647,8.175
	c-0.486,4.864-3.889,2.256-7.016,2.658c-2.773,0.356-5.85,2.826-8.235,4.374C443.96,240.325,443.053,241.357,442.226,242.422z
	 M418.056,248.601c0.487-1.065,3.403-2.309,4.361-2.938c1.031-0.676,2.509-2.285,3.532-2.696c2.321-0.931,5.779,0.526,8.136,1.033
	c0.677,0.146,1.5,0.277,2.279,0.35c0.203,0.939,0.672,1.696,1.326,2.106c-1.554,0.848-3.256,1.55-4.608,2.235
	c-3.248,1.644-4.37,3.034-6.76,5.781c-1.944,2.234-3.189,5.21-6.188,2.208C418.684,255.23,417.101,250.691,418.056,248.601z"/>
<path fill="#49300E" d="M190.059,199.446c0.534-2.474,2.592-5.635,3.992-8.192c1.645-3.004,3.524-5.671,5.95-8.089
	c0.68-0.678,3.566-2.764,2.841-3.968c-1.007-1.673-2.93,1.603-3.63,2.241c-2.139,1.95-4.722,4.783-6.284,7.253
	c-0.115-2.363,1.344-5.282,2.477-7.314c1.35-2.42,3.971-4.746,5.062-7.148c-1.972-0.378-4.327,3.779-5.209,5.249
	c-1.401,2.334-3.329,5.499-4.468,7.646c-1.18,2.225-1.355,4.925-1.749,7.392c-0.174,1.09-0.645,2.574-0.41,3.723
	c0.33,1.615,2.098,1.991,1.67,0.286"/>
<path fill="none" d="M185.146,183.123c3.017-4.952,4.9-10.608,8.077-15.502c-2.438,0.35-4.474,4.882-5.546,6.885
	c-1.14,2.129-3.465,6.237-3.01,8.741c0.546,0.227,0.704,0.009,1.027-0.272"/>
</svg>
