<?xml version="1.0" encoding="utf-8"?>
<!-- Generator: Adobe Illustrator 19.1.0, SVG Export Plug-In . SVG Version: 6.00 Build 0)  -->
<!DOCTYPE svg PUBLIC "-//W3C//DTD SVG 1.1//EN" "http://www.w3.org/Graphics/SVG/1.1/DTD/svg11.dtd">
<svg version="1.1" id="Layer_1" xmlns="http://www.w3.org/2000/svg" xmlns:xlink="http://www.w3.org/1999/xlink" x="0px" y="0px"
	 viewBox="0 0 500 500" enable-background="new 0 0 500 500" xml:space="preserve">
<g>
	<path fill="none" d="M416.7,467.6c-0.2,1.5-0.5,3-0.7,4.5C416.2,470.6,416.5,469.1,416.7,467.6c2-14.5,3.3-29.8,4-45.7l0,0
		C420,437.8,418.7,453.1,416.7,467.6z"/>
	<path fill="#423E3F" d="M378.1,494.9v-0.3V494.9z"/>
	<path fill="#F9F8F2" d="M178,497C178,497,178,497,178,497l-0.1,0.1C178,497.1,178,497.1,178,497z"/>
	<path fill="#423E3F" d="M178,497C178,497,178,497,178,497l-0.1,0.1C178,497.1,178,497.1,178,497z"/>
	<path fill="#FFFFFF" d="M362,469.2L362,469.2c6.8,6,13.7,12.7,20.6,20.2v0C375.7,481.9,368.9,475.2,362,469.2z"/>
	<g>
		<path fill="#423E3F" d="M180.8,495.2c1,0,2.4-0.5,3.9-1.2C183.3,494.7,181.9,495.2,180.8,495.2L180.8,495.2z"/>
	</g>
	<g>
		<polygon fill="#423E3F" points="187.2,492.3 187.6,492 187.8,491.7 187.6,492 		"/>
	</g>
	<g>
		<path fill="#423E3F" d="M341.6,213.3c-0.4,2.6-0.9,5.1-1.5,7.5C340.7,218.3,341.2,215.9,341.6,213.3L341.6,213.3z"/>
	</g>
	<g>
		<path fill="#423E3F" d="M381.9,223.3c-1.4-0.7-2.8-1.5-4.3-2.3c-0.3-0.2-0.6-0.3-0.9-0.5c0.3,0.2,0.6,0.3,0.9,0.5
			C379.1,221.8,380.5,222.5,381.9,223.3z"/>
	</g>
	<g>
		<path fill="#423E3F" d="M332.1,239.3c-1.2,2-2.5,4-3.7,6.1l-1,1.4l1-1.4C329.7,243.3,330.9,241.3,332.1,239.3z"/>
	</g>
	<g>
		<path fill="#423E3F" d="M420.7,421.9L420.7,421.9c0.8-19.1,0.7-39-0.4-60.1C421.4,382.9,421.5,402.8,420.7,421.9z"/>
	</g>
	<g>
		<g>
			<path fill="#423E3F" d="M97.2,146.6c-0.2-1.5-0.7-2.9-1.5-4.3c-0.8-1.3-2-2.5-3.7-3.5c-1.3-0.8-2.7-1.4-4.1-1.7
				c-1.4-0.3-2.8-0.4-4.2-0.2c-1.4,0.2-2.7,0.6-4,1.2c-1.3,0.6-2.5,1.5-3.6,2.6c0.4-1.2,0.6-2.4,0.6-3.6s-0.2-2.3-0.6-3.4
				c-0.4-1.1-1-2.1-1.8-3c-0.8-0.9-1.7-1.7-2.8-2.4c-1.7-1-3.3-1.7-4.9-2c-1.6-0.3-3.1-0.3-4.6-0.1c-1.5,0.3-2.9,0.8-4.3,1.5
				c-1.4,0.7-2.7,1.6-3.9,2.7c-1.2,1.1-2.4,2.2-3.4,3.6c-1.1,1.3-2,2.7-2.9,4.1c-0.7,1.2-1.4,2.5-2.1,3.8s-1.3,2.8-1.8,4.2
				c-0.6,1.4-1,2.9-1.4,4.4c-0.4,1.5-0.7,2.9-1,4.3l28.5,17.6l-37.5-2.1l-5.5,18.5l39,28.4l7.5-16.1l-6.8-4.2l2.6-7.5l8.1,0.6
				l2.6-12c1.1-0.7,2.1-1.5,3.1-2.4c1.1-1,2.2-2.1,3.2-3.3s2-2.4,2.9-3.6c0.9-1.3,1.7-2.5,2.5-3.7c0.8-1.2,1.5-2.6,2.3-4.1
				c0.8-1.5,1.5-3,2.1-4.6c0.6-1.6,1-3.2,1.3-4.8C97.4,149.7,97.4,148.1,97.2,146.6z M67.2,149.9c-0.3,0.7-0.6,1.3-0.9,1.8l-6.4-4.2
				c0.1-0.5,0.2-0.9,0.3-1.3c0.1-0.4,0.3-0.9,0.5-1.3c0.2-0.3,0.5-0.6,0.8-1c0.4-0.3,0.8-0.6,1.3-0.8c0.5-0.2,1-0.3,1.5-0.3
				c0.5,0,1.1,0.2,1.7,0.5c0.9,0.6,1.5,1.2,1.7,2c0.3,0.8,0.3,1.5,0.2,2.3C67.8,148.4,67.6,149.2,67.2,149.9z M56.9,191.8l-10.5-6.4
				l12.3,1.5L56.9,191.8z M80.8,156.5c-0.2,0.5-0.5,1-0.7,1.4c-0.2,0.3-0.4,0.5-0.6,0.8c-0.2,0.3-0.5,0.5-0.7,0.8l-6.6-4.3
				c0.2-0.6,0.5-1.2,0.8-1.8c0.3-0.4,0.6-0.8,1-1.3c0.4-0.4,0.8-0.8,1.4-1c0.5-0.2,1.1-0.4,1.8-0.4c0.6,0,1.3,0.2,2.1,0.7
				c0.7,0.5,1.3,1,1.5,1.5c0.3,0.6,0.4,1.2,0.4,1.7S81,156,80.8,156.5z"/>
		</g>
	</g>
	<g>
		<path fill="#423E3F" d="M155.7,381.6c-0.1-4.7,0-9.5,0.1-14.4C155.7,372.1,155.7,376.9,155.7,381.6z"/>
	</g>
	<g>
		<g>
			<path fill="#423E3F" d="M98.6,80.2l24.7,12.6l-13.8-19.1l12.7-10.3l26.5,39l-13.5,12.3l-23-14.2l14.3,21.4l-12.4,9.4L85.3,91.3
				L98.6,80.2z M79.6,99.3l32.6,34.4l-9.2,11.4l-35-31.4L79.6,99.3z M17.8,228.1l29.1-2.7l-27.3-10.3l3.2-15.7l46.1,19.2l-1.4,17.2
				l-50.4,8.7L17.8,228.1z M74.2,311.4c-0.3,1.3-0.7,2.5-1.2,3.6l-14.4,1.7c0.9-1.7,1.6-3.4,1.9-5.2c0.4-1.8,0.3-3.7-0.2-5.6
				c-0.3-1.2-0.8-2.2-1.4-3c-0.6-0.8-1.3-1.3-2-1.7c-0.8-0.4-1.6-0.6-2.5-0.7c-0.9-0.1-1.9-0.1-2.9,0c-1,0.1-2,0.3-3,0.5
				c-1,0.2-2,0.5-3,0.8c-3.5,1-7,2.1-10.5,3.4c-3.4,1.3-6.9,2.6-10.3,3.8l-5.1-15.1c6.8-2.5,13.7-4.8,20.6-6.6
				c1.3-0.4,2.6-0.7,3.9-1.1c1.3-0.4,2.6-0.6,4-0.9c2.9-0.5,5.7-0.6,8.4-0.3c2.7,0.3,5.3,1,7.6,2.1c2.3,1.1,4.3,2.7,6.1,4.8
				c1.7,2.1,3,4.6,3.8,7.6c0.3,1.2,0.6,2.4,0.7,3.8c0.1,1.3,0.2,2.7,0.1,4.1C74.6,308.7,74.5,310.1,74.2,311.4z M87.6,276.3
				l-0.3-0.3h0.3V276.3z"/>
		</g>
	</g>
	<g>
		<path fill="#423E3F" d="M303.3,269.3c6.1-4,11.7-8.6,16.9-14C315.1,260.7,309.4,265.3,303.3,269.3z"/>
	</g>
	<g>
		<path fill="#423E3F" d="M342.2,206.9L342.2,206.9c1.4,0.2,3,0.6,4.6,1C345.2,207.4,343.6,207.1,342.2,206.9z"/>
	</g>
	<g>
		<path fill="#423E3F" d="M392.5,229c3.1,1.8,5.6,3.2,7.4,4.3C398.1,232.2,395.6,230.8,392.5,229z"/>
	</g>
	<g>
		<path fill="#423E3F" d="M409.8,269.2c3.6,21.8,6.3,42.9,8.2,63C416.1,312,413.4,291,409.8,269.2z"/>
	</g>
	<g>
		<path fill="#423E3F" d="M217.3,280.9c2.3,0.8,4.7,1.4,7,2C222,282.3,219.6,281.7,217.3,280.9z"/>
	</g>
	<g>
		<path fill="#423E3F" d="M166.2,272L166.2,272c0.8-4.5,1.8-9,2.7-13.5C168,263,167.1,267.5,166.2,272z"/>
	</g>
	<g>
		<path fill="#423E3F" d="M205.9,276.1c3.7,1.9,7.5,3.5,11.4,4.8C213.4,279.6,209.6,278,205.9,276.1z"/>
	</g>
	<g>
		<path fill="#423E3F" d="M331,199.5l-0.3-2.2c-0.2-1.7-0.4-3.4-0.7-5c0.3,1.7,0.5,3.3,0.7,5L331,199.5z"/>
	</g>
	<g>
		<path fill="#423E3F" d="M326.6,180.3c1.3,3.2,2.2,6.5,2.9,10C328.8,186.8,327.9,183.5,326.6,180.3z"/>
	</g>
	<g>
		<path fill="#423E3F" d="M292,261.7c-4.1,2.2-8.4,4.1-12.8,5.6C283.6,265.8,287.9,263.9,292,261.7z"/>
	</g>
	<g>
		<path fill="#423E3F" d="M315.8,163.8c-3.3-3.5-7.2-6.8-11.6-9.9c-14.5-9.8-31-14.5-49.3-13.8c18.4-0.7,34.8,4,49.3,13.8
			C308.6,157,312.5,160.3,315.8,163.8z"/>
	</g>
	<g>
		<path fill="#423E3F" d="M203.3,157.4c-1.4,1-2.7,2.2-4,3.3c-1,0.8-2,1.6-2.9,2.5c1-0.9,2-1.7,2.9-2.5
			C200.6,159.6,202,158.4,203.3,157.4z"/>
	</g>
	<g>
		<rect x="200.8" y="258.8" fill="#423E3F" width="0.3" height="0"/>
	</g>
	<g>
		<path fill="#423E3F" d="M330.1,212.3l0.3-1c0.3-1.8,0.5-3.6,0.6-5.5c-0.1,1.9-0.3,3.7-0.6,5.5L330.1,212.3z"/>
	</g>
	<g>
		<path fill="#423E3F" d="M174.9,202.1l-0.3,2.9c-0.1,1.1-0.2,2.3-0.2,3.6c0-1.2,0.1-2.4,0.2-3.6L174.9,202.1z"/>
	</g>
	<g>
		<path fill="#423E3F" d="M185,243.4c-3.1-4.3-5.5-8.9-7.2-13.8C179.5,234.5,181.9,239.1,185,243.4z"/>
	</g>
	<g>
		<path fill="#423E3F" d="M166.2,272.9c-1.5,7.9-2.9,15.6-4.1,23.3C163.3,288.6,164.7,280.8,166.2,272.9L166.2,272.9z"/>
	</g>
	<g>
		<path fill="#423E3F" d="M200.5,273.1c-1.8-1.1-3.6-2.2-5.3-3.4c-1.8-1.3-3.6-2.6-5.3-3.9c1.7,1.3,3.4,2.6,5.3,3.9
			C196.9,270.9,198.7,272.1,200.5,273.1z"/>
	</g>
	<g>
		<polygon fill="#423E3F" points="87.6,276.3 87.6,276 87.3,276 		"/>
	</g>
	<g>
		<g>
			<path fill="#423E3F" d="M483.6,212.3C483.6,212.3,483.6,212.3,483.6,212.3c-4.2-2.9-8.7-4.2-13.8-3.9c-5.1-0.3-9.6,1-13.5,3.8
				c-2,1.3-3.9,2.9-5.6,4.8l-0.3,0.3c-2,2.6-3.7,5.5-5.1,8.3l-34-10.3l-0.3-0.3l-0.3-1.9V213l-0.3-0.6
				c-12.9-59.8-32.5-120.9-59-183.5c-31.6-16.5-67.2-26.6-105-28.3c-25.1,55.2-45.9,107.7-62,157.5c-11,11.9-17.7,25-20.2,38.8
				l-23.9,15.4l-32.9,21.2c-6.5,4.5-11,10.9-13.5,18.9v0.7c-2,9.3-0.3,17,5.3,23.4h0.3c21.7,26.3,36.8,55.2,45,86.9v3.5
				c-0.8,40.4,3.9,77.3,14,111v-0.3c1.8,6.3,3.7,11.6,5.8,15.9c4.5,1.3,9,2.5,13.6,3.6l1.3-1.5c0.2-0.3,0.4-0.6,0.6-0.8
				c-0.5-0.3-1-0.5-1.5-1c-2.3-2.1-4.5-6-6.6-11.6c-0.9-2.5-1.8-5.3-2.6-8.4c-2.5-8.1-4.6-16.4-6.4-24.9
				c-4.5-21.2-6.9-43.5-7.2-67.2c-0.1-4.7,0-9.5,0.1-14.4v-4.5c0.2-7.1,0.6-14.3,1.1-21.6c1.1-14.6,2.8-29.5,5.2-44.9
				c1.2-7.7,2.6-15.4,4.1-23.3v-1v0c0.8-4.5,1.8-9,2.7-13.5s1.9-9,2.9-13.5c1.1,2,2.4,3.8,3.8,5.7c1.8,2.4,3.7,4.8,5.8,7.2
				c1.1,1.3,2.3,2.6,3.7,3.9c1.5,1.4,3.2,2.8,4.8,4.1c1.7,1.3,3.4,2.6,5.3,3.9c1.7,1.2,3.5,2.3,5.3,3.4c1.8,1.1,3.6,2.1,5.5,3
				c3.7,1.9,7.5,3.5,11.4,4.8c2.3,0.8,4.7,1.4,7,2c5.7,1.4,11.6,2.3,17.6,2.6c5.8,0.3,11.7,0,17.8-0.7c9.2-1.1,17.7-3.1,25.7-6.2
				c6.4-2.4,12.3-5.6,17.9-9.3c6.1-4,11.7-8.6,16.9-14l2.5-3l4.2-5l0.4-0.5l1-1.4c1.3-2.1,2.5-4.1,3.7-6.1c1.2-2,2.3-4,3.3-6.1
				c0.8-1.6,1.4-3.5,2.2-5.1c1-2.4,1.8-4.8,2.4-7.3c0.6-2.4,1.1-4.9,1.5-7.5v-1c0.1-0.8,0.2-1.7,0.3-2.6c0.1-0.9,0.1-1.9,0.3-2.8h0
				l0,0c1.4,0.2,3,0.6,4.6,1c0.9,0.2,1.8,0.5,2.8,0.8c1,0.3,2.2,0.8,3.3,1.2c1.8,0.6,3.7,1.3,5.7,2.1c0.4,0.1,0.6,0.2,1,0.4
				c2.5,1.1,5.3,2.3,8.1,3.7c2.9,1.4,5.9,2.9,8.9,4.5c0.3,0.2,0.6,0.3,0.9,0.5c1.5,0.8,2.9,1.6,4.3,2.3c4.1,2.2,7.7,4,10.6,5.7h0
				c3.1,1.8,5.6,3.2,7.4,4.3c1.9,1.1,3.1,1.9,3.8,2.4c2.2,11.3,4.2,22.5,6,33.4c3.6,21.8,6.3,42.9,8.2,63c1,10.1,1.7,20,2.2,29.6
				c1.2,21.1,1.3,41,0.4,60.1c4.1-4.4,7.9-9,11.6-13.7c0.8-49.1-4.4-104.2-15.6-165.7l69.8,21.2c0.2-3.9,0.3-7.8,0.3-11.7
				C486.7,238.5,485.7,225.3,483.6,212.3z M163.4,232.2c-3.1,11.9-5.6,24-7.9,35.9c-3.7,2.9-7.9,4.2-12.4,3.5l-25-11.2l-0.8-1.3
				l0.6-0.7l45.5-26.9V232.2z M198.7,151.3l-0.3-0.3L198.7,151.3z"/>
		</g>
	</g>
	<g>
		<g>
			<path fill="#423E3F" d="M407.4,107.4c-0.3,5.5,4.5,12.8,13.8,21.8c2.8,4.2,7.3,8,13.5,11.2c7.3,3.5,13.8,4.2,19.4,2.6
				c2.1-0.6,4.2-1.7,6.3-3.2c-11.2-22.5-25.7-43.1-42.8-61.1c-1,1.4-1.8,2.9-2.6,4.6C409.7,94,407.1,102,407.4,107.4z M451.9,139.1
				h-0.6H451.9z"/>
		</g>
	</g>
	<g>
		<path fill="#423E3F" d="M352.1,460.9c-4-3.1-8.1-6-12.1-8.6c-4-2.6-8-4.9-12-7c-8-4.1-15.9-7.2-23.7-9.2c-3.9-1-7.8-1.7-11.7-2.2
			c-3.9-0.5-7.8-0.6-11.6-0.6c-3.9,0.1-7.7,0.4-11.5,1c-24.9,4-49.2,19.2-72.8,45.6l-0.6,0.9l-0.3,0.4c-1.1,1.6-2.2,2.9-3.1,4.5
			l-0.6,0.6c-1.3,2.1-2.9,3.6-4.3,5.2l-0.2,0.3l-0.4,0.3l-1,0.7v0.3c-0.5,0.3-1,0.5-1.4,0.7c-1.5,0.7-2.8,1.2-3.9,1.2h0c0,0,0,0,0,0
			h0c-0.2-0.1-0.5-0.3-0.7-0.5c-0.7,0.8-1.4,1.6-2.1,2.3c5.9,1.4,11.9,2.6,18,3.5c2.8-3,5.7-6.8,8.7-11.5
			c45.9-50.9,94.5-55.5,145.6-13.5c4-2,7.9-4.2,11.7-6.4C358.7,466.3,355.4,463.5,352.1,460.9z"/>
	</g>
	<g>
		<path fill="#423E3F" d="M180.1,494.7c0,0-0.1-0.1-0.1-0.1c-0.2,0.3-0.4,0.6-0.6,0.8L178,497c0,0,0,0,0,0
			C178.7,496.3,179.4,495.6,180.1,494.7z"/>
	</g>
	<g>
		<path fill="#423E3F" d="M329.6,190.3c0.1,0.6,0.3,1.3,0.4,1.9C329.8,191.6,329.7,190.9,329.6,190.3z"/>
	</g>
	<g>
		<path fill="#423E3F" d="M200.8,258.8L200.8,258.8c16.6,11.2,36,15.4,57.9,13.1c7.2-0.9,14-2.4,20.4-4.7
			c-6.4,2.2-13.2,3.8-20.4,4.7C236.8,274.2,217.4,270,200.8,258.8z"/>
	</g>
	<g>
		<path fill="#423E3F" d="M301.2,255.9c-3,2.1-6.1,4-9.3,5.7C295.2,259.9,298.3,258.1,301.2,255.9z"/>
	</g>
	<g>
		<path fill="#423E3F" d="M246.9,140.8c2.7-0.3,5.4-0.5,8-0.6C252.3,140.3,249.6,140.5,246.9,140.8c-14.9,1.6-27.8,6.4-39.4,13.8
			c-1.4,0.8-2.8,1.8-4.2,2.8c1.4-1,2.8-2,4.2-2.8C219.1,147.2,232,142.4,246.9,140.8z"/>
	</g>
	<g>
		<path fill="#423E3F" d="M193.5,166.1l-0.6,0.6c-1.1,1.1-2.2,2.3-3.2,3.5c1-1.2,2.1-2.4,3.2-3.5L193.5,166.1z"/>
	</g>
	<g>
		<path fill="#423E3F" d="M192.1,251.5c2.7,2.6,5.7,5,9,7.4h0C197.8,256.5,194.8,254.1,192.1,251.5z"/>
	</g>
	<g>
		<path fill="#423E3F" d="M175.2,219.7c-0.3-1.6-0.3-2.9-0.6-4.5C174.9,216.8,174.9,218.1,175.2,219.7z"/>
	</g>
	<g>
		<path fill="#FFFFFF" d="M180.1,494.7c0.2,0.1,0.5,0.4,0.7,0.5h0c0,0,0,0,0,0c1,0,2.4-0.5,3.9-1.2c0.5-0.2,0.9-0.4,1.4-0.7V493
			l1-0.7l0.4-0.3l0.2-0.3c1.4-1.5,2.9-3,4.3-5.2l0.6-0.6c0.8-1.6,2-2.9,3.1-4.5l0.3-0.4l0.6-0.9c23.6-26.4,47.9-41.7,72.8-45.6
			c3.8-0.6,7.7-1,11.5-1c3.9-0.1,7.7,0.1,11.6,0.6c3.9,0.5,7.8,1.2,11.7,2.2c7.8,2,15.8,5,23.7,9.2c4,2.1,8,4.4,12,7
			c4,2.6,8,5.5,12.1,8.6c3.3,2.6,6.6,5.4,9.9,8.3c21.9-12.8,41.6-28.8,58.6-47.3c0.8-19.1,0.7-39-0.4-60.1
			c-0.5-9.7-1.3-19.5-2.2-29.6c-1.9-20.2-4.6-41.2-8.2-63c-1.8-10.9-3.8-22.1-6-33.4c-0.7-0.5-2-1.3-3.8-2.4
			c-1.9-1.1-4.3-2.6-7.4-4.3h0c-2.9-1.7-6.5-3.6-10.6-5.7c-1.4-0.7-2.8-1.5-4.3-2.3c-0.3-0.2-0.6-0.3-0.9-0.5
			c-3.1-1.6-6-3.2-8.9-4.5c-2.9-1.4-5.6-2.6-8.1-3.7c-0.4-0.2-0.7-0.2-1-0.4c-2-0.8-3.8-1.5-5.7-2.1c-1.1-0.4-2.3-0.9-3.3-1.2
			c-1-0.3-1.9-0.5-2.8-0.8c-1.6-0.4-3.2-0.8-4.6-1c-0.1,1-0.2,1.9-0.3,2.8c-0.1,0.9-0.1,1.8-0.3,2.6v1v0c-0.4,2.6-0.9,5.1-1.5,7.5
			c-0.6,2.4-1.4,4.9-2.4,7.3c-0.8,1.6-1.4,3.5-2.2,5.1c-1,2.1-2.1,4.1-3.3,6.1c-1.2,2-2.5,4-3.7,6.1l-1,1.4l-0.4,0.5l-4.2,5l-2.5,3
			c-5.2,5.4-10.9,10-16.9,14c-5.6,3.7-11.5,6.8-17.9,9.3c-7.9,3.1-16.5,5.1-25.7,6.2c-6.1,0.7-12,0.9-17.8,0.7
			c-6.1-0.3-12-1.2-17.6-2.6c-2.4-0.6-4.7-1.2-7-2c-3.9-1.3-7.7-2.9-11.4-4.8c-1.8-0.9-3.7-1.9-5.5-3c-1.8-1.1-3.6-2.2-5.3-3.4
			c-1.8-1.3-3.6-2.6-5.3-3.9c-1.7-1.3-3.3-2.7-4.8-4.1c-1.4-1.3-2.5-2.6-3.7-3.9c-2.1-2.4-4-4.8-5.8-7.2c-1.4-1.9-2.7-3.7-3.8-5.7
			c-1,4.5-2,9-2.9,13.5s-1.9,9-2.7,13.5v1v0c-1.5,7.9-2.9,15.6-4.1,23.3c-2.4,15.3-4.1,30.3-5.2,44.9c-0.5,7.3-0.9,14.5-1.1,21.6
			v4.5c-0.1,4.9-0.1,9.6-0.1,14.4c0.3,23.7,2.7,46.1,7.2,67.2c1.8,8.5,3.9,16.8,6.4,24.9c0.8,3.1,1.7,5.9,2.6,8.4
			c2.1,5.6,4.3,9.5,6.6,11.6c0.5,0.5,1,0.7,1.5,1c0.8-1,1.6-2.1,2.6-3.1C181.8,492.8,180.9,493.8,180.1,494.7z"/>
	</g>
	<g>
		<path fill="#423E3F" d="M182.5,491.6c-0.9,1-1.8,2.1-2.6,3.1c0,0,0.1,0.1,0.1,0.1C180.9,493.8,181.8,492.8,182.5,491.6z"/>
	</g>
	<g>
		<path fill="#423E3F" d="M178.5,493.7c-2.3-2.1-4.5-6-6.6-11.6C174,487.7,176.2,491.6,178.5,493.7z"/>
	</g>
	<g>
		<path fill="#423E3F" d="M340.1,220.8c-0.6,2.4-1.4,4.9-2.4,7.3c-0.8,1.6-1.4,3.5-2.2,5.1c0.8-1.6,1.4-3.5,2.2-5.1
			C338.7,225.6,339.4,223.2,340.1,220.8z"/>
	</g>
	<g>
		<polygon fill="#423E3F" points="327.4,246.7 327,247.3 322.8,252.3 327,247.3 		"/>
	</g>
	<g>
		<path fill="#423E3F" d="M352.1,460.9c3.3,2.6,6.6,5.4,9.9,8.3l0,0C358.7,466.3,355.4,463.5,352.1,460.9z"/>
	</g>
	<g>
		<path fill="#423E3F" d="M186.2,493.3c-0.5,0.3-1,0.5-1.4,0.7C185.2,493.8,185.7,493.6,186.2,493.3l0-0.3l1-0.7l-1,0.7V493.3z"/>
	</g>
	<g>
		<path fill="#423E3F" d="M285.5,278.6c6.4-2.4,12.3-5.6,17.9-9.3C297.7,273,291.8,276.2,285.5,278.6z"/>
	</g>
	<g>
		<path fill="#423E3F" d="M162.9,448.9c-4.5-21.2-6.9-43.5-7.2-67.2C156,405.3,158.4,427.7,162.9,448.9z"/>
	</g>
	<g>
		<path fill="#423E3F" d="M367.8,216c-2.9-1.4-5.6-2.6-8.1-3.7c-0.4-0.2-0.7-0.2-1-0.4c0.4,0.1,0.6,0.2,1,0.4
			C362.2,213.4,364.9,214.6,367.8,216z"/>
	</g>
	<g>
		<path fill="#423E3F" d="M292.6,434c-3.9-0.5-7.8-0.6-11.6-0.6C284.8,433.4,288.7,433.6,292.6,434z"/>
	</g>
	<g>
		<path fill="#423E3F" d="M342.2,206.9c-0.1,1-0.2,1.9-0.3,2.8C342,208.8,342,207.8,342.2,206.9L342.2,206.9z"/>
	</g>
	<g>
		<path fill="#423E3F" d="M340,452.4c-4-2.6-8-4.9-12-7C332,447.4,336,449.8,340,452.4z"/>
	</g>
	<g>
		<path fill="#423E3F" d="M304.3,436.2c-3.9-1-7.8-1.7-11.7-2.2C296.5,434.5,300.4,435.2,304.3,436.2z"/>
	</g>
	<g>
		<path fill="#423E3F" d="M259.8,284.8c-6.1,0.7-12,0.9-17.8,0.7c-6.1-0.3-12-1.2-17.6-2.6c5.7,1.4,11.6,2.3,17.6,2.6
			C247.8,285.8,253.7,285.5,259.8,284.8z"/>
	</g>
	<g>
		<path fill="#423E3F" d="M281,433.5c-3.9,0.1-7.7,0.4-11.5,1C273.2,433.9,277.1,433.5,281,433.5z"/>
	</g>
	<g>
		<path fill="#423E3F" d="M352.9,209.8c-1.1-0.4-2.3-0.9-3.3-1.2c-1-0.3-1.9-0.5-2.8-0.8c0.9,0.2,1.8,0.5,2.8,0.8
			C350.6,209,351.8,209.4,352.9,209.8z"/>
	</g>
	<g>
		<path fill="#423E3F" d="M156.9,341.1c1.1-14.6,2.8-29.5,5.2-44.9C159.7,311.5,158,326.5,156.9,341.1z"/>
	</g>
	<g>
		<path fill="#423E3F" d="M185,261.7c-1.4-1.3-2.5-2.6-3.7-3.9c-2.1-2.4-4-4.8-5.8-7.2c1.8,2.4,3.7,4.8,5.8,7.2
			C182.5,259.2,183.6,260.4,185,261.7z"/>
	</g>
	<g>
		<path fill="#423E3F" d="M73.9,299.5c-0.8-3-2.1-5.6-3.8-7.6c-1.7-2.1-3.7-3.6-6.1-4.8c-2.3-1.1-4.8-1.8-7.6-2.1
			c-2.7-0.3-5.5-0.2-8.4,0.3c-1.4,0.2-2.7,0.5-4,0.9c-1.3,0.3-2.6,0.7-3.9,1.1c-7,1.9-13.8,4.1-20.6,6.6l5.1,15.1
			c3.5-1.2,6.9-2.5,10.3-3.8c3.4-1.3,6.9-2.4,10.5-3.4c1-0.3,2-0.5,3-0.8c1-0.2,2-0.4,3-0.5c1-0.1,1.9-0.1,2.9,0
			c0.9,0.1,1.8,0.3,2.5,0.7c0.8,0.4,1.5,1,2,1.7c0.6,0.8,1,1.7,1.4,3c0.5,1.9,0.6,3.8,0.2,5.6c-0.4,1.8-1,3.6-1.9,5.2l14.4-1.7
			c0.5-1.1,1-2.3,1.2-3.6s0.5-2.6,0.5-4c0.1-1.4,0-2.7-0.1-4.1C74.4,301.9,74.2,300.7,73.9,299.5z"/>
	</g>
	<g>
		<polygon fill="#423E3F" points="68.9,218.7 22.8,199.5 19.6,215.1 46.9,225.4 17.8,228.1 17.1,244.6 67.5,235.9 		"/>
	</g>
	<g>
		<polygon fill="#423E3F" points="112.3,133.7 79.6,99.3 68,113.7 103.1,145.1 		"/>
	</g>
	<g>
		<polygon fill="#423E3F" points="126.4,121.8 112.1,100.4 135.1,114.6 148.6,102.3 122.1,63.3 109.4,73.7 123.2,92.8 98.6,80.2 
			85.3,91.3 114,131.2 		"/>
	</g>
</g>
<g>
	<g>
		<path fill="#423E3F" d="M66.1,266.8l-7.9-1.3l-0.4-7.9l7.7-2.5L62.3,238l-45.9,16l2,19.2l46.9,11.3L66.1,266.8z M35.3,262.7
			l11.9-3.3l0.3,5.2L35.3,262.7z"/>
	</g>
</g>
<g>
	<g>
		<path fill="#A5192D" d="M331,199.5l-0.3-2.2c-0.2-1.7-0.4-3.4-0.7-5c-0.1-0.6-0.2-1.3-0.4-1.9c-0.7-3.5-1.6-6.8-2.9-10
			c-0.7-1.8-1.5-3.5-2.4-5.2c-2.3-4-5.1-7.8-8.4-11.3c-3.3-3.5-7.2-6.8-11.6-9.9c-14.5-9.8-31-14.5-49.3-13.8
			c-2.6,0.1-5.3,0.3-8,0.6c-14.9,1.6-27.8,6.4-39.4,13.8c-1.4,0.8-2.8,1.8-4.2,2.8s-2.7,2.2-4,3.3c-1,0.8-2,1.6-2.9,2.5
			c-1,0.9-2,1.8-3,3l-0.6,0.6c-1.1,1.1-2.2,2.3-3.2,3.5c-1,1.2-2,2.4-3,3.5c-6.5,8.7-10.4,18.3-11.8,28.2l-0.3,2.9
			c-0.1,1.1-0.2,2.3-0.2,3.6c0,1.2,0.1,2.5,0.2,3.8v2.9c0.3,1.6,0.3,2.9,0.6,4.5c0.3,1.6,0.8,3.2,1.1,4.8c0.4,1.7,0.9,3.4,1.5,5.1
			c1.7,4.9,4.1,9.5,7.2,13.8c2.1,2.8,4.4,5.6,7.1,8.1c2.7,2.6,5.7,5,9,7.4h0l0,0h-0.3c16.6,11.2,36,15.4,57.9,13.1
			c7.2-0.9,14-2.4,20.4-4.7c4.5-1.5,8.8-3.4,12.8-5.6c3.2-1.7,6.3-3.6,9.3-5.7c4-2.9,7.9-6.2,11.4-9.9c9.6-10.6,15.5-21.8,17.4-33.7
			l0.3-1c0.3-1.8,0.5-3.6,0.6-5.5c0.1-1.9,0.1-3.8,0-5.7V199.5z M243.5,182.2c-3.9,5.7-9.3,9.6-16.3,11.8c-7,1.9-13.5,1.6-19.4-1.3
			c-5.9-2.6-9.6-6.7-11-12.8c-0.6-2.2-0.8-4.2-0.6-6.4l0.3-1.6c0,0,0.7-3.1,1.3-4.7c0.6-1.6,2.6-4.9,2.6-4.9v0
			c2-2.9,4.5-5.5,7.3-7.4c2.5-1.9,5.6-3.5,9.3-4.5c7-2.3,13.5-1.9,19.4,0.9l1.4,0.6c1.4,1,2.8,1.9,3.9,3.2l1.7,1.6
			c1.7,2.2,2.8,4.8,3.7,8C248.6,170.6,247.2,176.4,243.5,182.2z"/>
	</g>
</g>
<g>
	<path fill="#FFFFFF" d="M243.5,156.8l-1.7-1.6c-1.1-1.3-2.5-2.2-3.9-3.2l-1.4-0.6c-5.9-2.9-12.4-3.2-19.4-0.9
		c-3.7,0.9-6.7,2.6-9.3,4.5c-2.8,1.9-5.3,4.5-7.3,7.4v0c0,0-2,3.3-2.6,4.9c-0.6,1.6-1.3,4.7-1.3,4.7l-0.3,1.6
		c-0.3,2.2,0,4.2,0.6,6.4c1.4,6.1,5.1,10.3,11,12.8c5.9,2.9,12.4,3.2,19.4,1.3c7-2.2,12.4-6.1,16.3-11.8c3.7-5.8,5.1-11.5,3.7-17.3
		C246.3,161.6,245.2,159.1,243.5,156.8z"/>
</g>
</svg>
