<?xml version="1.0" encoding="utf-8"?>
<!-- Generator: Adobe Illustrator 19.1.0, SVG Export Plug-In . SVG Version: 6.00 Build 0)  -->
<!DOCTYPE svg PUBLIC "-//W3C//DTD SVG 1.1//EN" "http://www.w3.org/Graphics/SVG/1.1/DTD/svg11.dtd">
<svg version="1.1" id="Layer_1" xmlns="http://www.w3.org/2000/svg" xmlns:xlink="http://www.w3.org/1999/xlink" x="0px" y="0px"
	 viewBox="0 0 500 500" enable-background="new 0 0 500 500" xml:space="preserve">
<g>
	<defs>
		<path id="SVGID_1_" d="M250,500C111.9,500,0,388.1,0,250S111.9,0,250,0s250,111.9,250,250S388.1,500,250,500z"/>
	</defs>
	<clipPath id="SVGID_2_">
		<use xlink:href="#SVGID_1_"  overflow="visible"/>
	</clipPath>
	<g clip-path="url(#SVGID_2_)">
		<g>
			<g>
				<g>
					<polygon fill="#1D1D1B" points="103.2,273.9 103.5,274.2 103.5,273.9 					"/>
					<path fill="#1D1D1B" d="M464.8,137.9h0.6H464.8z"/>
					<path fill="#F9F8F2" d="M194.6,491.9l-1.4,1.6c1.4-1.6,3.1-3.3,4.6-5.5C196.6,489.3,195.5,490.6,194.6,491.9"/>
					<path fill="#1D1D1B" d="M392,491.3V491V491.3z"/>
					<path fill="#A8563A" d="M213.8,150l-0.3-0.3L213.8,150z"/>
				</g>
			</g>
			<g>
				<path fill="#423E3F" d="M553,253v-0.6l-15.9-41.7l-32.7-86c2.5-0.9,4.2-2.2,5.3-3.8c3.6-3.8,3.6-8.9-0.3-15l-1.4-1.6
					c-7-4.8-12-9.5-15.4-14c-5.3-8-14.8-14.4-29-18.8c-17.3-5.7-29-1.9-34.9,11.2c-5.3,10.5-7.8,18.5-7.5,23.9
					c-0.3,5.4,4.5,12.7,13.7,21.7c2.8,4.2,7.3,8,13.4,11.2c7.3,3.5,13.7,4.2,19.3,2.5c3.3-1,6.7-2.9,10-6.4c0.6-0.3,1.4-0.6,2.8-0.6
					l29.1,75.8h0l9.8,25.8l-8.4-2.6l-0.8-0.3c-0.8-7-3.3-13.1-7.8-18.2c-1.7-1.9-3.3-3.5-5.3-4.8c-4.2-2.9-8.7-4.1-13.7-3.8
					c-5-0.3-9.5,1-13.4,3.8c-2,1.3-3.9,2.9-5.6,4.8l-0.3,0.3c-2,2.6-3.6,5.4-5,8.3l-33.8-10.2l-0.3-0.3l-0.3-1.9v-0.3l-0.3-0.6
					C403.9,116,366.4,17.8,311.4-83.8c-0.8-1.6-1.7-2.6-2.8-2.9c-1.4-0.3-2.5-0.3-3.9,0.3c-1.4,0.3-2.2,1.3-2.8,2.6
					C257.8,2.6,223.7,82.5,199.7,156.8c-10.9,11.8-17.6,24.8-20.1,38.5l-23.7,15.3l-32.7,21c-6.4,4.5-10.9,10.8-13.4,18.8v0.7
					c-2,9.2-0.3,16.9,5.3,23.3h0.3c21.5,26.1,36.6,54.8,44.7,86.3v3.5c-0.8,40.2,3.9,76.8,13.9,110.3v-0.3
					c5.3,18.8,11.7,28.7,19.8,29.9c7.8,2.9,16.5-3.5,26-18.5c52.8-58.6,109.2-55.4,169,9.9h0.3c10.3,11.1,20.7,15,31,11.8l0.3-0.3
					c9.8-3.2,15.9-10.8,18.1-22.9c12.3-65.9,9.5-146.9-8.1-243.4l105.8,32.2h0.6c7,1.3,11.7,0,14.2-3.5
					C554.7,266.1,555.2,260.7,553,253z M158.7,269.6l-24.9-11.2l-0.8-1.3l0.6-0.6l45.2-26.8v0.6c-3.1,11.8-5.6,23.9-7.8,35.7
					C167.3,268.9,163.1,270.2,158.7,269.6z M430.4,464.2c-0.8,6.1-2,11.8-2.8,17.2c-1.1,5.7-3.6,9.9-7.8,12.1v0.3l-1.9,0.6l-0.6,0.3
					h-0.5l-2.2,0.3c-5,0.4-10.1-1.6-14.8-5.7c-1.1-0.9-2.2-2.2-3.1-3.2v-0.3c-65.3-71-127.1-73.9-184.9-9.3l-0.6,0.9l-0.3,0.3
					c-1.1,1.6-2.2,2.9-3.1,4.5l-0.5,0.6c-1.3,2.1-2.9,3.6-4.2,5.1l-0.2,0.3l-1.4,0.9v0.3c-2,1.3-3.9,1.9-5.3,1.9c0,0,0,0,0,0h0
					c-3.1-1.2-6.1-5.6-8.8-13c-0.9-2.5-1.8-5.2-2.6-8.3c-9.8-32.2-14.2-67.2-13.4-105.8v-4.5c0.8-28.3,4.2-58,10.3-89.2v-1
					c1.7-8.9,3.6-17.8,5.6-26.8c1.1,1.9,2.4,3.8,3.7,5.6c1.8,2.4,3.7,4.8,5.8,7.1c1.1,1.3,2.2,2.5,3.6,3.8c3.1,2.9,6.4,5.4,10,8
					c13.8,9.6,29.4,14.8,46.5,15.6c5.7,0.3,11.6,0,17.7-0.7c24.3-2.8,44.1-12.7,60-29.3l2.5-3l4.2-5l1.4-1.9c2.5-4.1,5-8,7-12.1
					c0.8-1.6,1.4-3.5,2.2-5.1c2-4.8,3.1-9.6,3.9-14.7v-1c0.3-1.6,0.3-3.5,0.6-5.4c2.2,0.3,4.7,0.9,7.4,1.8c1,0.3,2.2,0.8,3.3,1.2
					c1.8,0.6,3.6,1.3,5.6,2.1c0.4,0.1,0.6,0.2,1,0.4c5,2.1,10.9,4.9,16.9,8.1c0.3,0.2,0.6,0.3,0.9,0.5c5.9,3.2,10.9,5.7,14.8,8h0
					c6.1,3.5,9.8,5.7,11.2,6.7C435.1,324.1,439.3,400.8,430.4,464.2z"/>
			</g>
			<g>
				<path fill="#FFFFFF" d="M430.4,464.2c-0.8,6.1-2,11.8-2.8,17.2c-1.1,5.7-3.6,9.9-7.8,12.1v0.3l-1.9,0.6l-0.6,0.3h-0.5l-2.2,0.3
					c-5,0.4-10.1-1.6-14.8-5.7c-1.1-0.9-2.2-2.2-3.1-3.2v-0.3c-65.3-71-127.1-73.9-184.9-9.3l-0.6,0.9l-0.3,0.3
					c-1.1,1.6-2.2,2.9-3.1,4.5l-0.5,0.6c-1.3,2.1-2.9,3.6-4.2,5.1l-0.2,0.3l-1.4,0.9v0.3c-2,1.3-3.9,1.9-5.3,1.9c0,0,0,0,0,0h0
					c-3.1-1.2-6.1-5.6-8.8-13c-0.9-2.5-1.8-5.2-2.6-8.3c-9.8-32.2-14.2-67.2-13.4-105.8v-4.5c0.8-28.3,4.2-58,10.3-89.2v-1
					c1.7-8.9,3.6-17.8,5.6-26.8c1.1,1.9,2.4,3.8,3.7,5.6c1.8,2.4,3.7,4.8,5.8,7.1c1.1,1.3,2.2,2.5,3.6,3.8c3.1,2.9,6.4,5.4,10,8
					c13.8,9.6,29.4,14.8,46.5,15.6c5.7,0.3,11.6,0,17.7-0.7c24.3-2.8,44.1-12.7,60-29.3l2.5-3l4.2-5l1.4-1.9c2.5-4.1,5-8,7-12.1
					c0.8-1.6,1.4-3.5,2.2-5.1c2-4.8,3.1-9.6,3.9-14.7v-1c0.3-1.6,0.3-3.5,0.6-5.4c2.2,0.3,4.7,0.9,7.4,1.8c1,0.3,2.2,0.8,3.3,1.2
					c1.8,0.6,3.6,1.3,5.6,2.1c0.4,0.1,0.6,0.2,1,0.4c5,2.1,10.9,4.9,16.9,8.1c0.3,0.2,0.6,0.3,0.9,0.5c5.9,3.2,10.9,5.7,14.8,8h0
					c6.1,3.5,9.8,5.7,11.2,6.7C435.1,324.1,439.3,400.8,430.4,464.2z"/>
			</g>
		</g>
		<g>
			<path fill="#423E3F" d="M56.3,285c1.3-0.4,2.6-0.7,3.9-1c1.3-0.4,2.6-0.6,3.9-0.8c2.8-0.5,5.6-0.6,8.3-0.3c2.7,0.3,5.2,1,7.5,2.1
				c2.3,1.1,4.3,2.7,6,4.7c1.7,2,3,4.6,3.8,7.6c0.3,1.2,0.5,2.4,0.7,3.8c0.1,1.3,0.2,2.7,0.1,4s-0.2,2.7-0.5,4
				c-0.3,1.3-0.7,2.5-1.2,3.6l-14.3,1.6c0.9-1.6,1.6-3.4,1.9-5.2c0.4-1.8,0.3-3.7-0.2-5.5c-0.3-1.2-0.8-2.2-1.4-3
				c-0.6-0.7-1.3-1.3-2-1.7c-0.8-0.4-1.6-0.6-2.5-0.7c-0.9-0.1-1.9-0.1-2.9,0c-1,0.1-2,0.3-3,0.5c-1,0.2-2,0.5-3,0.7
				c-3.5,1-7,2.1-10.4,3.4c-3.4,1.3-6.8,2.5-10.2,3.8l-5.1-15C42.6,289,49.4,286.9,56.3,285z"/>
			<path fill="#423E3F" d="M78.4,236.2l3.1,16.9l-7.7,2.5l0.4,7.8l7.9,1.3l-0.8,17.6l-46.6-11.3l-2-19.1L78.4,236.2z M63.4,257.4
				l-11.8,3.2l12.1,1.9L63.4,257.4z"/>
			<path fill="#423E3F" d="M39.2,197.9L84.9,217L83.5,234l-50.1,8.7l0.7-16.4l28.9-2.7L36,213.4L39.2,197.9z"/>
			<path fill="#423E3F" d="M96.7,171.5l-3.6,16.8l-8-0.6l-2.6,7.4l6.8,4.2l-7.5,16L43,187.1l5.5-18.4L96.7,171.5z M74.7,185.4
				l-12.2-1.5l10.5,6.4L74.7,185.4z"/>
			<path fill="#423E3F" d="M107.9,137.6c1.6,1,2.8,2.2,3.6,3.5c0.8,1.3,1.3,2.7,1.5,4.2c0.2,1.5,0.2,3.1-0.1,4.7
				c-0.3,1.6-0.7,3.2-1.3,4.8c-0.6,1.6-1.3,3.1-2,4.6c-0.8,1.5-1.6,2.8-2.3,4.1c-0.7,1.2-1.6,2.4-2.5,3.7c-0.9,1.2-1.8,2.4-2.9,3.6
				c-1,1.2-2.1,2.2-3.2,3.3c-1.1,1-2.3,1.9-3.6,2.7l-37.7-23.3c0.2-1.4,0.5-2.8,0.9-4.2c0.4-1.5,0.9-2.9,1.4-4.3
				c0.5-1.4,1.2-2.8,1.8-4.2c0.7-1.3,1.4-2.6,2.1-3.8c0.9-1.4,1.8-2.7,2.9-4c1.1-1.3,2.2-2.5,3.4-3.5c1.2-1.1,2.5-1.9,3.9-2.7
				c1.4-0.7,2.8-1.2,4.3-1.5c1.5-0.3,3-0.2,4.6,0.1c1.6,0.3,3.2,1,4.8,2c1.1,0.7,2,1.5,2.8,2.4c0.8,0.9,1.3,1.9,1.7,2.9
				c0.4,1.1,0.6,2.2,0.6,3.3c0,1.2-0.2,2.4-0.6,3.6c1.1-1.1,2.3-1.9,3.6-2.6c1.3-0.6,2.6-1.1,4-1.2c1.4-0.2,2.8-0.1,4.2,0.2
				C105.3,136.2,106.6,136.8,107.9,137.6z M82,142.1c-0.6-0.4-1.1-0.5-1.7-0.5c-0.5,0-1.1,0.1-1.5,0.3c-0.5,0.2-0.9,0.4-1.2,0.8
				c-0.4,0.3-0.6,0.6-0.8,1c-0.2,0.4-0.4,0.8-0.5,1.3c-0.1,0.4-0.2,0.9-0.3,1.3l6.4,4.2c0.3-0.4,0.6-1,0.9-1.7
				c0.3-0.7,0.6-1.5,0.7-2.2c0.1-0.8,0.1-1.5-0.2-2.3C83.5,143.3,82.9,142.7,82,142.1z M89,152.2c-0.4,0.6-0.6,1.1-0.8,1.7l6.6,4.3
				c0.2-0.3,0.5-0.5,0.7-0.8c0.2-0.3,0.4-0.5,0.6-0.8c0.3-0.4,0.5-0.9,0.7-1.4c0.2-0.5,0.3-1.1,0.3-1.7c0-0.6-0.1-1.2-0.4-1.7
				c-0.3-0.6-0.8-1.1-1.5-1.5c-0.7-0.5-1.4-0.7-2.1-0.7c-0.6,0-1.2,0.1-1.7,0.4c-0.5,0.2-1,0.6-1.4,1
				C89.5,151.4,89.2,151.8,89,152.2z"/>
			<path fill="#423E3F" d="M95.6,98.4l32.4,34.1l-9.1,11.3l-34.8-31.2L95.6,98.4z"/>
			<path fill="#423E3F" d="M137.8,62.6l26.3,38.7l-13.4,12.2l-22.8-14.1l14.2,21.2l-12.3,9.4l-28.6-39.7l13.2-11.1l24.5,12.5
				l-13.7-19L137.8,62.6z"/>
		</g>
		<path fill="#A5192D" d="M345.2,198.5v-0.6l-0.3-2.2c-0.8-8-2.8-15.3-6.4-22c-4.5-8-11.2-15-19.8-21.1c-16.5-11.1-35.5-15.6-57-13
			c-14.8,1.6-27.6,6.4-39.1,13.7c-2.8,1.6-5.6,3.8-8.1,6.1c-1.9,1.6-3.9,3.2-5.9,5.4l-0.6,0.6c-2.2,2.2-4.2,4.8-6.1,7
			c-6.4,8.6-10.3,18.2-11.7,28l-0.3,2.9c-0.3,2.3-0.3,4.8,0,7.3v2.9c0.3,1.6,0.3,2.9,0.6,4.5c0.3,1.6,0.8,3.2,1.1,4.8
			c3.3,13.7,11.4,24.8,24.6,34.1h-0.3c16.5,11.1,35.7,15.3,57.5,13c21.5-2.5,39.4-11.2,53.6-25.8c9.5-10.5,15.4-21.7,17.3-33.5
			l0.3-1C345.2,206.2,345.5,202.3,345.2,198.5z"/>
		<path fill="#FFFFFF" d="M215.6,160.9L215.6,160.9c0,0-2,3.2-2.6,4.9s-1.3,4.7-1.3,4.7l-0.3,1.6c-0.3,2.2,0,4.1,0.6,6.4
			c1.4,6.1,5,10.2,10.9,12.7c5.9,2.9,12.3,3.2,19.3,1.3c7-2.2,12.3-6.1,16.2-11.8c3.6-5.8,5-11.5,3.6-17.2c-0.8-3.2-2-5.7-3.6-8
			l-1.7-1.6c-1.1-1.3-2.5-2.2-3.9-3.2l-1.4-0.6c-5.9-2.9-12.3-3.2-19.3-0.9c-3.6,0.9-6.7,2.5-9.2,4.4
			C220.1,155.5,217.6,158.1,215.6,160.9L215.6,160.9z"/>
	</g>
</g>
</svg>
